<svg xmlns="http://www.w3.org/2000/svg" viewBox="0 0 500 365.76"><defs><style>.cls-1{fill:#ebebeb;}.cls-10,.cls-2{fill:#fff;}.cls-3{fill:none;stroke-width:0.7px;}.cls-10,.cls-3{stroke:#ebebeb;stroke-miterlimit:10;}.cls-4{fill:#a6a6a6;}.cls-5{fill:#b85128;}.cls-6{fill:#263238;}.cls-7{fill:#dbdbdb;}.cls-8{fill:#c7c7c7;}.cls-12,.cls-9{fill:#455a64;}.cls-10{stroke-width:0.35px;}.cls-11{fill:#020100;}.cls-11,.cls-15{opacity:0.1;}.cls-12{opacity:0.18;}.cls-13{fill:#ffbe9d;}.cls-14{fill:#ff9cbd;}.cls-15{fill:#050400;}</style></defs><title>Email</title><g id="Table"><path class="cls-1" d="M443.48,161.94a19.88,19.88,0,0,1-5.91,2.39,20.39,20.39,0,1,1,5.91-2.39Z"/><path class="cls-2" d="M439.2,142.21a6.21,6.21,0,1,1-6.14-6.28A6.21,6.21,0,0,1,439.2,142.21Z"/><path class="cls-2" d="M443.51,159.38l0,2.56a19.88,19.88,0,0,1-5.91,2.39A20.3,20.3,0,0,1,422,161.68l0-2.55a10.73,10.73,0,0,1,21.45.25Z"/><path class="cls-1" d="M66.88,104.32A13.36,13.36,0,0,1,47,95.89a13.36,13.36,0,1,1,19.9,8.43Z"/><path class="cls-2" d="M64.07,91.39a4.07,4.07,0,1,1-4-4.11A4.05,4.05,0,0,1,64.07,91.39Z"/><path class="cls-2" d="M66.9,102.64l0,1.68a13.34,13.34,0,0,1-14-.17l0-1.68a7,7,0,1,1,14.05.17Z"/><rect class="cls-3" x="81.45" y="44.76" width="88.39" height="60.25"/><path class="cls-4" d="M88.06,48.34a1.78,1.78,0,1,1-1.77-1.78A1.77,1.77,0,0,1,88.06,48.34Z"/><path class="cls-1" d="M95.3,48.34a1.77,1.77,0,1,1-1.77-1.78A1.77,1.77,0,0,1,95.3,48.34Z"/><path class="cls-5" d="M102.54,48.34a1.77,1.77,0,1,1-1.77-1.78A1.77,1.77,0,0,1,102.54,48.34Z"/><line class="cls-3" x1="81.45" y1="51.81" x2="169.84" y2="51.81"/><rect class="cls-1" x="46.37" y="136.82" width="46.85" height="29.71" transform="matrix(0.99, -0.14, 0.14, 0.99, -19.85, 10.82)"/><path class="cls-2" d="M91,133.8c-1.63,2-3.3,4-5,6s-3.35,4-5,5.95-3.52,4.09-5.29,6.12l-.16.2-4.71,5.36-.24.26-.29-.18-6-3.93a1.2,1.2,0,0,1-.21-.13c-2.26-1.48-4.5-3-6.75-4.49s-4.29-2.91-6.42-4.37-4.28-3-6.4-4.5c2.21,1.26,4.38,2.61,6.57,3.91s4.37,2.67,6.54,4c2.43,1.5,4.85,3,7.27,4.59h0l5.43,3.48,4.3-4.81,0,0q2.86-3.2,5.77-6.37,2.59-2.84,5.21-5.63C87.48,137.48,89.22,135.6,91,133.8Z"/><path class="cls-2" d="M65.12,153.33l-.05.06-.64.72c-1,1.14-2.1,2.25-3.19,3.32-1.32,1.34-2.69,2.62-4.06,3.9s-2.77,2.52-4.21,3.74-2.88,2.41-4.39,3.54c1.24-1.43,2.55-2.78,3.87-4.1s2.7-2.62,4.06-3.9,2.78-2.53,4.22-3.74c1.13-1,2.3-1.94,3.49-2.85.28-.22.55-.43.84-.63Z"/><path class="cls-2" d="M94.78,162.31c-1.76-.68-3.49-1.45-5.19-2.24s-3.38-1.62-5.06-2.47-3.32-1.74-5-2.67c-1.33-.74-2.65-1.52-3.94-2.34l-.83-.53-.06,0,.07,0,1,.39c1.4.56,2.77,1.18,4.13,1.81,1.71.79,3.38,1.62,5,2.48s3.33,1.74,5,2.66S93.2,161.26,94.78,162.31Z"/><rect class="cls-1" x="405.64" y="166.25" width="47.07" height="74.22" transform="translate(132.43 574.15) rotate(-76.68)"/><path class="cls-2" d="M470.7,189c-3.57,2.09-7.18,4.06-10.77,6.11s-7.2,4-10.81,5.92q-5.65,3.06-11.31,6l-.35.2q-5,2.63-10,5.24l-.49.25-.32-.44c-2.21-3.06-4.4-6.12-6.6-9.2-.08-.09-.15-.21-.23-.32-2.49-3.47-5-6.95-7.41-10.48-2.35-3.35-4.69-6.74-7-10.12s-4.63-6.82-6.89-10.3c2.54,3.13,5,6.36,7.48,9.53s4.94,6.44,7.37,9.7q4.08,5.4,8.13,10.93s0,0,0,0l6.06,8.24c3-1.56,6.06-3.13,9.1-4.65,0,0,0,0,0,0q6.08-3.09,12.16-6.13,5.46-2.72,10.93-5.35C463.4,192.45,467,190.66,470.7,189Z"/><path class="cls-2" d="M421.32,203.14l-.11.05c-.45.24-.91.47-1.37.7-2.17,1.1-4.37,2.12-6.59,3.1-2.72,1.21-5.47,2.34-8.23,3.45s-5.53,2.13-8.34,3.12-5.64,1.93-8.52,2.72c2.65-1.4,5.35-2.65,8.06-3.85s5.48-2.33,8.23-3.45,5.55-2.14,8.36-3.13c2.23-.78,4.5-1.54,6.79-2.21.53-.17,1-.32,1.59-.46Z"/><path class="cls-2" d="M460,233.3c-2.22-2-4.33-4.12-6.39-6.26s-4.07-4.33-6.07-6.53-3.93-4.47-5.81-6.77c-1.54-1.86-3-3.76-4.49-5.71l-.92-1.25a.61.61,0,0,0-.07-.1l.1.08,1.22,1.14c1.75,1.63,3.42,3.32,5.08,5,2.07,2.14,4.07,4.33,6.05,6.54s3.93,4.47,5.81,6.77S458.3,230.86,460,233.3Z"/><rect class="cls-1" x="275.89" y="34.06" width="42.64" height="27.04"/><path class="cls-2" d="M318.53,34.06c-1.73,1.65-3.48,3.23-5.21,4.85s-3.51,3.17-5.27,4.74-3.68,3.26-5.52,4.87l-.17.16-4.91,4.26-.25.2-.23-.2-4.91-4.27-.17-.15c-1.85-1.61-3.69-3.23-5.53-4.88s-3.51-3.15-5.26-4.73-3.49-3.2-5.21-4.85c1.83,1.42,3.63,2.9,5.44,4.34s3.61,3,5.41,4.45c2,1.65,4,3.33,6,5h0l4.47,3.81c1.49-1.27,3-2.55,4.47-3.81h0q3-2.55,6-5,2.69-2.23,5.4-4.44C314.9,37,316.7,35.48,318.53,34.06Z"/><path class="cls-2" d="M292.79,48.5a.12.12,0,0,0-.05,0l-.68.56c-1.07.91-2.16,1.77-3.28,2.61-1.35,1-2.74,2-4.14,3s-2.81,1.92-4.25,2.85-2.89,1.82-4.4,2.65c1.29-1.14,2.64-2.19,4-3.22s2.75-2,4.14-3,2.82-1.93,4.26-2.86c1.14-.73,2.31-1.46,3.5-2.13l.83-.47Z"/><path class="cls-2" d="M318.42,60.24c-1.5-.83-3-1.73-4.39-2.65s-2.85-1.89-4.26-2.85-2.79-2-4.15-3c-1.1-.84-2.2-1.7-3.26-2.6l-.68-.57-.05,0,.06,0,.84.48c1.19.67,2.35,1.4,3.5,2.13,1.44.93,2.85,1.89,4.25,2.86s2.79,2,4.14,3S317.13,59.1,318.42,60.24Z"/><ellipse class="cls-1" cx="133.67" cy="322.77" rx="103.64" ry="8.92"/><polygon class="cls-6" points="21.86 257.65 78.89 257.48 135.93 257.42 250 257.3 364.07 257.42 421.11 257.48 478.14 257.65 421.11 257.82 364.07 257.88 250 258 135.93 257.88 78.89 257.82 21.86 257.65"/><rect class="cls-7" x="94.12" y="58.03" width="310.57" height="207.75"/><rect class="cls-6" x="96.38" y="60.57" width="306.06" height="202.68"/><rect class="cls-8" x="53.67" y="281.36" width="391.47" height="14.26"/><polygon class="cls-7" points="53.67 281.36 94.12 265.78 404.69 265.78 445.15 281.36 53.67 281.36"/><polygon class="cls-6" points="97.73 275.83 123.84 265.78 374.98 265.78 401.08 275.83 97.73 275.83"/><rect class="cls-2" x="113.68" y="75.96" width="271.47" height="171.88"/><rect class="cls-9" x="113.45" y="75.96" width="271.7" height="6.61"/><path class="cls-8" d="M118.7,79.27a1.64,1.64,0,1,1-1.64-1.64A1.63,1.63,0,0,1,118.7,79.27Z"/><path class="cls-2" d="M125.4,79.27a1.64,1.64,0,1,1-1.64-1.64A1.63,1.63,0,0,1,125.4,79.27Z"/><path class="cls-5" d="M132.1,79.27a1.64,1.64,0,1,1-1.64-1.64A1.64,1.64,0,0,1,132.1,79.27Z"/><rect class="cls-7" x="380.32" y="82.58" width="4.82" height="165.27"/><path class="cls-4" d="M382.73,139.88h0a1.25,1.25,0,0,1-1.25-1.25V84.79a1.24,1.24,0,0,1,1.25-1.24h0A1.23,1.23,0,0,1,384,84.79v53.84A1.24,1.24,0,0,1,382.73,139.88Z"/><rect class="cls-2" x="191.91" y="92.98" width="146.33" height="5.57"/><path class="cls-1" d="M338.29,98.6H191.85V92.92H338.29Z"/><rect class="cls-5" x="332.61" y="92.92" width="5.68" height="5.68"/><path class="cls-2" d="M337.22,97.32l-.52.39-.95-1.26L335.4,96a.78.78,0,0,0,.2-.11.89.89,0,0,0,.27-.34l.37.48Z"/><path class="cls-2" d="M336.2,94.36a1.4,1.4,0,1,0-.45,2.09l.19-.12a1.26,1.26,0,0,0,.3-.31A1.4,1.4,0,0,0,336.2,94.36Zm-.6,1.52a.78.78,0,0,1-.2.11.84.84,0,0,1-.82-1.44.83.83,0,0,1,1.18.15.85.85,0,0,1,.11.84A.89.89,0,0,1,335.6,95.88Z"/><rect class="cls-8" x="193.07" y="94.07" width="0.3" height="3.38"/><path class="cls-5" d="M370.55,98.76A3.16,3.16,0,1,1,372,95.32,3.19,3.19,0,0,1,370.55,98.76Z"/><path class="cls-2" d="M369.85,95.71a1,1,0,1,1-1-1A1,1,0,0,1,369.85,95.71Z"/><path class="cls-2" d="M370.55,98.36v.4a3.18,3.18,0,0,1-3.33,0v-.4a1.67,1.67,0,0,1,3.33,0Z"/><path class="cls-7" d="M359.59,99.23H357.4v-.78a.12.12,0,0,0-.07-.1l-.24-.14a.11.11,0,0,0-.12,0l-.68.39-1.1-1.9.68-.39a.09.09,0,0,0,.05-.11v-.27a.11.11,0,0,0-.05-.12l-.68-.39,1.1-1.9.68.39a.11.11,0,0,0,.12,0l.24-.14a.12.12,0,0,0,.07-.1v-.78h2.19v.78a.15.15,0,0,0,.07.11,1.83,1.83,0,0,1,.24.13.12.12,0,0,0,.13,0l.67-.39,1.1,1.9-.68.39a.12.12,0,0,0-.05.12v.27a.12.12,0,0,0,.05.11l.68.39-1.1,1.9L360,98.2a.12.12,0,0,0-.13,0l-.24.14a.12.12,0,0,0-.07.1Zm-1.65-.55h1.11v-.23a.67.67,0,0,1,.36-.59,1.18,1.18,0,0,0,.19-.11.66.66,0,0,1,.7,0l.2.11.55-1-.2-.12a.66.66,0,0,1-.33-.61v-.22a.66.66,0,0,1,.33-.61l.2-.12-.55-.95-.2.11a.66.66,0,0,1-.7,0l-.19-.11a.66.66,0,0,1-.36-.59v-.23h-1.11v.23a.66.66,0,0,1-.36.59l-.19.11a.66.66,0,0,1-.7,0l-.2-.11-.55.95.2.12a.66.66,0,0,1,.33.61v.22a.66.66,0,0,1-.33.61l-.2.12.55,1,.2-.11a.66.66,0,0,1,.7,0,1.18,1.18,0,0,0,.19.11.67.67,0,0,1,.36.59Zm.56-1a1.63,1.63,0,1,1,1.62-1.63A1.63,1.63,0,0,1,358.5,97.68Zm0-2.71a1.08,1.08,0,1,0,1.07,1.08A1.08,1.08,0,0,0,358.5,95Z"/><rect class="cls-1" x="177.63" y="121.49" width="202.69" height="11.49"/><rect class="cls-2" x="186.63" y="125.51" width="3.45" height="3.45"/><polygon class="cls-2" points="204.74 128.96 201.28 128.96 202.69 127.23 201.28 125.51 204.74 125.51 206.14 127.23 204.74 128.96"/><polygon class="cls-5" points="195.87 125.51 196.43 126.64 197.68 126.83 196.78 127.71 196.99 128.96 195.87 128.37 194.75 128.96 194.96 127.71 194.05 126.83 195.31 126.64 195.87 125.51"/><rect class="cls-6" x="208.62" y="126.53" width="27.49" height="1.4"/><rect class="cls-6" x="340.3" y="126.53" width="24.96" height="1.4"/><rect class="cls-9" x="244.5" y="126.53" width="85.31" height="1.4"/><rect class="cls-10" x="186.63" y="136.99" width="3.45" height="3.45"/><polygon class="cls-10" points="204.74 140.45 201.28 140.45 202.69 138.72 201.28 137 204.74 137 206.14 138.72 204.74 140.45"/><polygon class="cls-5" points="195.87 137 196.43 138.13 197.68 138.31 196.78 139.2 196.99 140.45 195.87 139.86 194.75 140.45 194.96 139.2 194.05 138.31 195.31 138.13 195.87 137"/><rect class="cls-6" x="208.62" y="138.02" width="27.49" height="1.4"/><rect class="cls-6" x="340.3" y="138.02" width="24.96" height="1.4"/><rect class="cls-9" x="244.5" y="138.02" width="85.31" height="1.4"/><rect class="cls-1" x="177.63" y="144.46" width="202.69" height="11.49"/><rect class="cls-2" x="186.63" y="148.48" width="3.45" height="3.45"/><polygon class="cls-2" points="204.74 151.93 201.28 151.93 202.69 150.21 201.28 148.48 204.74 148.48 206.14 150.21 204.74 151.93"/><polygon class="cls-2" points="195.87 148.48 196.43 149.62 197.68 149.8 196.78 150.69 196.99 151.93 195.87 151.34 194.75 151.93 194.96 150.69 194.05 149.8 195.31 149.62 195.87 148.48"/><rect class="cls-7" x="208.62" y="149.51" width="27.49" height="1.4"/><rect class="cls-7" x="340.3" y="149.51" width="24.96" height="1.4"/><rect class="cls-8" x="244.5" y="149.51" width="85.31" height="1.4"/><rect class="cls-10" x="186.63" y="159.97" width="3.45" height="3.45"/><polygon class="cls-10" points="204.74 163.42 201.28 163.42 202.69 161.7 201.28 159.97 204.74 159.97 206.14 161.7 204.74 163.42"/><polygon class="cls-5" points="195.87 159.97 196.43 161.11 197.68 161.29 196.78 162.17 196.99 163.42 195.87 162.83 194.75 163.42 194.96 162.17 194.05 161.29 195.31 161.11 195.87 159.97"/><rect class="cls-7" x="208.62" y="160.99" width="27.49" height="1.4"/><rect class="cls-7" x="340.3" y="160.99" width="24.96" height="1.4"/><rect class="cls-8" x="244.5" y="160.99" width="85.31" height="1.4"/><rect class="cls-1" x="177.63" y="167.44" width="202.69" height="11.49"/><rect class="cls-2" x="186.63" y="171.46" width="3.45" height="3.45"/><polygon class="cls-2" points="204.74 174.91 201.28 174.91 202.69 173.18 201.28 171.46 204.74 171.46 206.14 173.18 204.74 174.91"/><polygon class="cls-5" points="195.87 171.46 196.43 172.59 197.68 172.78 196.78 173.66 196.99 174.91 195.87 174.32 194.75 174.91 194.96 173.66 194.05 172.78 195.31 172.59 195.87 171.46"/><rect class="cls-7" x="208.62" y="172.48" width="27.49" height="1.4"/><rect class="cls-7" x="340.3" y="172.48" width="24.96" height="1.4"/><rect class="cls-8" x="244.5" y="172.48" width="85.31" height="1.4"/><rect class="cls-10" x="186.63" y="182.95" width="3.45" height="3.45"/><polygon class="cls-10" points="204.74 186.4 201.28 186.4 202.69 184.67 201.28 182.95 204.74 182.95 206.14 184.67 204.74 186.4"/><polygon class="cls-10" points="195.87 182.95 196.43 184.08 197.68 184.26 196.78 185.15 196.99 186.4 195.87 185.81 194.75 186.4 194.96 185.15 194.05 184.26 195.31 184.08 195.87 182.95"/><rect class="cls-7" x="208.62" y="183.97" width="27.49" height="1.4"/><rect class="cls-7" x="340.3" y="183.97" width="24.96" height="1.4"/><rect class="cls-8" x="244.5" y="183.97" width="85.31" height="1.4"/><rect class="cls-1" x="177.63" y="190.42" width="202.69" height="11.49"/><rect class="cls-2" x="186.63" y="194.43" width="3.45" height="3.45"/><polygon class="cls-2" points="204.74 197.88 201.28 197.88 202.69 196.16 201.28 194.43 204.74 194.43 206.14 196.16 204.74 197.88"/><polygon class="cls-5" points="195.87 194.43 196.43 195.57 197.68 195.75 196.78 196.64 196.99 197.88 195.87 197.29 194.75 197.88 194.96 196.64 194.05 195.75 195.31 195.57 195.87 194.43"/><rect class="cls-7" x="208.62" y="195.46" width="27.49" height="1.4"/><rect class="cls-7" x="340.3" y="195.46" width="24.96" height="1.4"/><rect class="cls-8" x="244.5" y="195.46" width="85.31" height="1.4"/><rect class="cls-10" x="186.63" y="205.92" width="3.45" height="3.45"/><polygon class="cls-10" points="204.74 209.37 201.28 209.37 202.69 207.65 201.28 205.92 204.74 205.92 206.14 207.65 204.74 209.37"/><polygon class="cls-10" points="195.87 205.92 196.43 207.06 197.68 207.24 196.78 208.12 196.99 209.37 195.87 208.78 194.75 209.37 194.96 208.12 194.05 207.24 195.31 207.06 195.87 205.92"/><rect class="cls-7" x="208.62" y="206.95" width="27.49" height="1.4"/><rect class="cls-7" x="340.3" y="206.95" width="24.96" height="1.4"/><rect class="cls-8" x="244.5" y="206.95" width="85.31" height="1.4"/><rect class="cls-1" x="177.63" y="213.39" width="202.69" height="11.49"/><rect class="cls-2" x="186.63" y="217.41" width="3.45" height="3.45"/><polygon class="cls-2" points="204.74 220.86 201.28 220.86 202.69 219.13 201.28 217.41 204.74 217.41 206.14 219.13 204.74 220.86"/><polygon class="cls-2" points="195.87 217.41 196.43 218.54 197.68 218.73 196.78 219.61 196.99 220.86 195.87 220.27 194.75 220.86 194.96 219.61 194.05 218.73 195.31 218.54 195.87 217.41"/><rect class="cls-7" x="208.62" y="218.43" width="27.49" height="1.4"/><rect class="cls-7" x="340.3" y="218.43" width="24.96" height="1.4"/><rect class="cls-8" x="244.5" y="218.43" width="85.31" height="1.4"/><rect class="cls-10" x="186.63" y="228.9" width="3.45" height="3.45"/><polygon class="cls-10" points="204.74 232.35 201.28 232.35 202.69 230.62 201.28 228.9 204.74 228.9 206.14 230.62 204.74 232.35"/><polygon class="cls-10" points="195.87 228.9 196.43 230.03 197.68 230.22 196.78 231.1 196.99 232.35 195.87 231.76 194.75 232.35 194.96 231.1 194.05 230.22 195.31 230.03 195.87 228.9"/><rect class="cls-7" x="208.62" y="229.92" width="27.49" height="1.4"/><rect class="cls-7" x="340.3" y="229.92" width="24.96" height="1.4"/><rect class="cls-8" x="244.5" y="229.92" width="85.31" height="1.4"/><rect class="cls-1" x="177.63" y="236.37" width="202.69" height="11.49"/><rect class="cls-2" x="186.63" y="240.38" width="3.45" height="3.45"/><polygon class="cls-2" points="204.74 243.84 201.28 243.84 202.69 242.11 201.28 240.38 204.74 240.38 206.14 242.11 204.74 243.84"/><polygon class="cls-5" points="195.87 240.38 196.43 241.52 197.68 241.7 196.78 242.59 196.99 243.84 195.87 243.25 194.75 243.84 194.96 242.59 194.05 241.7 195.31 241.52 195.87 240.38"/><rect class="cls-7" x="208.62" y="241.41" width="27.49" height="1.4"/><rect class="cls-7" x="340.3" y="241.41" width="24.96" height="1.4"/><rect class="cls-8" x="244.5" y="241.41" width="85.31" height="1.4"/><rect class="cls-7" x="197.74" y="111.13" width="38.37" height="4.11"/><rect class="cls-7" x="186.63" y="111.13" width="5.23" height="4.11"/><path class="cls-2" d="M191.86,111.13c-.21.22-.43.44-.64.67l-.65.65c-.22.23-.45.45-.67.67l0,0-.6.58,0,0,0,0-.6-.59,0,0-.68-.67-.64-.65-.64-.67c.22.19.44.4.66.6l.67.61.73.7h0l.55.52.55-.52h0l.74-.69.66-.61C191.41,111.53,191.63,111.32,191.86,111.13Z"/><path class="cls-2" d="M188.7,113h0l-.08.1c-.13.17-.26.34-.4.49s-.34.39-.51.57l-.52.54-.54.5a7.68,7.68,0,0,1,.49-.61l.51-.57c.17-.18.34-.36.52-.53s.28-.28.43-.41l.1-.08Z"/><path class="cls-2" d="M191.85,115.24c-.19-.16-.37-.33-.54-.5l-.53-.54c-.17-.18-.34-.37-.5-.57s-.27-.31-.41-.48a.44.44,0,0,0-.08-.11h0l.11.09.42.41c.18.17.35.35.53.53l.5.57A7.75,7.75,0,0,1,191.85,115.24Z"/><rect class="cls-7" x="262.31" y="111.13" width="38.37" height="4.11"/><path class="cls-7" d="M253.56,112.52a.87.87,0,1,1-.87-.87A.87.87,0,0,1,253.56,112.52Z"/><path class="cls-7" d="M254.19,114.92v.32h-3v-.32a1.51,1.51,0,0,1,3,0Z"/><path class="cls-7" d="M255.79,112a.87.87,0,1,1-.87-.87A.87.87,0,0,1,255.79,112Z"/><path class="cls-7" d="M256.42,114.39v.32h-3v-.32a1.51,1.51,0,0,1,3,0Z"/><rect class="cls-7" x="326.88" y="111.13" width="38.37" height="4.11"/><path class="cls-7" d="M321,111.13h-5.22v4.11H321l1.57-2.06Zm.05,2.36a.31.31,0,1,1,.31-.31A.31.31,0,0,1,321,113.49Z"/><rect class="cls-5" x="113.45" y="82.58" width="64.19" height="165.27"/><rect class="cls-2" x="122.42" y="107.05" width="46.24" height="12.26"/><rect class="cls-2" x="122.42" y="92.92" width="6.45" height="1.04"/><rect class="cls-2" x="122.42" y="97.56" width="6.45" height="1.04"/><rect class="cls-2" x="122.42" y="95.27" width="6.45" height="1.04"/><rect class="cls-1" x="134.99" y="92.92" width="8.96" height="5.68"/><path class="cls-1" d="M144,92.92V98.6h-9V92.92l1.14.67,1.14.68,1.25.78h0l.94.59.94-.59h0l1.26-.78,1.13-.68Z"/><path class="cls-2" d="M144,92.92l-1.1.75-1.1.73-1.17.75,0,0-1,.66-.05,0-.05,0-1-.66,0,0-1.16-.75-1.11-.73L135,92.92l1.14.67,1.14.68,1.25.78h0l.94.59.94-.59h0l1.26-.78,1.13-.68Z"/><path class="cls-2" d="M138.54,95h0l-.14.12-.69.55q-.44.33-.87.63c-.3.21-.59.41-.9.6s-.61.39-.92.56c.27-.24.55-.46.84-.68l.87-.63c.29-.2.59-.41.89-.6s.49-.31.74-.45l.17-.1Z"/><path class="cls-2" d="M143.93,97.51c-.32-.17-.63-.36-.93-.56s-.6-.39-.89-.6-.59-.41-.87-.63-.47-.36-.69-.55l-.14-.12h0l.17.1c.26.14.5.29.74.45s.6.4.89.6l.87.63C143.37,97.05,143.65,97.27,143.93,97.51Z"/><rect class="cls-11" x="113.45" y="130" width="64.19" height="8.72"/><rect class="cls-2" x="122.42" y="131.88" width="37.22" height="5.12"/><rect class="cls-2" x="122.42" y="141.9" width="37.22" height="5.12"/><rect class="cls-2" x="122.42" y="151.93" width="37.22" height="5.12"/><rect class="cls-2" x="122.42" y="161.96" width="37.22" height="5.12"/><rect class="cls-12" x="130.32" y="171.99" width="37.22" height="5.12"/><rect class="cls-12" x="130.32" y="182.02" width="37.22" height="5.12"/><rect class="cls-2" x="122.42" y="192.05" width="37.22" height="5.12"/><rect class="cls-2" x="122.42" y="202.08" width="37.22" height="5.12"/><circle class="cls-4" cx="381.48" cy="82.19" r="34.32" transform="translate(210 432.73) rotate(-76.09)"/><rect class="cls-2" x="358.06" y="67.33" width="46.85" height="29.71"/><path class="cls-7" d="M404.91,67.33c-1.89,1.81-3.82,3.54-5.73,5.33s-3.85,3.48-5.78,5.2-4,3.59-6.07,5.36c-.07,0-.12.11-.19.17l-5.39,4.68-.27.22-.26-.22-5.39-4.69-.19-.16q-3-2.66-6.08-5.37c-1.92-1.71-3.85-3.45-5.77-5.19s-3.84-3.52-5.73-5.33c2,1.55,4,3.18,6,4.77S368,75.34,370,77q3.28,2.73,6.58,5.54h0l4.92,4.18c1.63-1.4,3.27-2.8,4.91-4.18v0Q389.7,79.72,393,77c2-1.63,3.95-3.26,5.93-4.87S402.9,68.88,404.91,67.33Z"/><path class="cls-7" d="M376.63,83.19l-.06,0c-.25.21-.49.43-.74.63-1.17,1-2.38,1.94-3.6,2.86-1.49,1.14-3,2.23-4.55,3.32s-3.09,2.12-4.67,3.13-3.18,2-4.84,2.91c1.42-1.24,2.9-2.41,4.39-3.54s3-2.23,4.55-3.31,3.1-2.13,4.68-3.14c1.26-.81,2.54-1.6,3.85-2.35.3-.18.61-.34.92-.51Z"/><path class="cls-7" d="M404.8,96.09c-1.66-.91-3.26-1.9-4.84-2.91s-3.13-2.07-4.67-3.13-3.07-2.18-4.56-3.32c-1.21-.92-2.42-1.86-3.59-2.85l-.74-.64-.06,0,.07,0c.31.18.62.34.92.52,1.31.75,2.58,1.54,3.85,2.35,1.58,1,3.13,2.07,4.67,3.14s3.06,2.17,4.55,3.31S403.38,94.85,404.8,96.09Z"/><circle class="cls-5" cx="399.78" cy="67.33" r="7.55" transform="translate(-0.22 133.35) rotate(-18.93)"/><path class="cls-2" d="M399,69V62.84a.84.84,0,0,1,.84-.83.83.83,0,0,1,.82.83V69a.82.82,0,0,1-.82.84A.84.84,0,0,1,399,69Zm.84,3.67a.84.84,0,0,1-.84-.84v-.3a.85.85,0,0,1,.84-.84.83.83,0,0,1,.82.84v.3A.82.82,0,0,1,399.79,72.66Z"/><path class="cls-8" d="M47.73,319.63l101.72.44c24.72-19.42,27.27-48.18,9.64-65.61-10.68-10.55-24.24-8.42-37.14-10.1h0a37.81,37.81,0,0,1-13.09-3.84c-13.29-7-20.79-23.55-32-37.46q-2.09-2.62-4.38-5.08c-9.19-9.82-27.49-10.14-37.06,3.67C11.08,236.71,22.22,288.91,47.73,319.63Z"/><path class="cls-7" d="M45.47,239.38c2.66,41.74,50.86,57.32,81,44.81C152.6,273.32,144,248.51,122,244.36h0a37.81,37.81,0,0,1-13.09-3.84c-13.29-7-20.79-23.55-32-37.46C60.2,194.39,43.51,208.83,45.47,239.38Z"/><path class="cls-13" d="M126.33,326.16c-1.51-.53-35.75-27.11-36.41-29-.26-.69,3.32-5.9,7.83-12.08,1-1.33,2-2.7,3-4.09,6.71-9,14-18.42,14-18.42l23,17.72-14.68,17.92-3.22,3.94s8.56,16,9.07,18.13S127.83,326.68,126.33,326.16Z"/><path class="cls-1" d="M104.38,276.23c-1.19,1.58-2.41,3.2-3.61,4.81-1,1.39-2,2.76-3,4.09-4.5,6.18-8.07,11.39-7.82,12.08.67,1.84,34.9,28.42,36.41,29s3.11-3.74,2.61-5.83-9.07-18.13-9.07-18.13l3.22-3.94,3.28-4Z"/><path class="cls-5" d="M126.49,326.48c-1.53-.54-36.23-27.73-36.9-29.61-.31-.86,5.17-8.48,11.11-16.4l22.62,17.62-3.29,4s8.63,16.36,9.14,18.49S128,327,126.49,326.48Z"/><path class="cls-6" d="M127.08,324.7c-5.71-4.7-29.16-23.12-35.16-27.33,0,0-.07,0,0,0,5.55,4.79,29.15,23,35.1,27.4C127.13,324.89,127.2,324.8,127.08,324.7Z"/><path class="cls-6" d="M121.86,301.43c-2-2.22-5-4.06-8-3.8-.12,0-.1.18,0,.21a41.06,41.06,0,0,1,7.83,3.88A.19.19,0,0,0,121.86,301.43Z"/><path class="cls-6" d="M122.74,303.73c-2-2.23-5-4.07-8.06-3.81-.12,0-.1.18,0,.21A41.06,41.06,0,0,1,122.5,304,.19.19,0,0,0,122.74,303.73Z"/><path class="cls-6" d="M123.61,306c-2-2.23-5-4.07-8.06-3.81-.12,0-.1.18,0,.21a40.77,40.77,0,0,1,7.83,3.88A.19.19,0,0,0,123.61,306Z"/><path class="cls-6" d="M124.48,308.31c-2-2.22-5-4.07-8.06-3.81-.11,0-.1.18,0,.21a41,41,0,0,1,7.82,3.88A.19.19,0,0,0,124.48,308.31Z"/><path class="cls-6" d="M130.24,299.45c.07-1.94-2-2.69-3.63-2.64a15.58,15.58,0,0,0-7.63,2.48.09.09,0,0,0,0,.13.36.36,0,0,0,.13.56c2.44.78,5,1.92,7.56,1.93C128.18,301.92,130.17,301.29,130.24,299.45Zm-7.2,1c-1.2-.35-2.39-.77-3.61-1.08a46.39,46.39,0,0,1,4.49-1.35,18.66,18.66,0,0,1,2.24-.36c1.17-.08,4.9.71,2.52,2.91C127.38,301.74,124.48,300.83,123,300.41Z"/><path class="cls-6" d="M113.63,294.13c1.26,2.29,3.46,3.95,5.31,5.71a.36.36,0,0,0,.56-.15.09.09,0,0,0,.11-.07,15.58,15.58,0,0,0-1.48-7.89c-.71-1.42-2.39-2.91-4.06-1.91S112.9,292.8,113.63,294.13Zm.25-2.44c.79-3.13,3.27-.24,3.75.83a16,16,0,0,1,.76,2.14c.45,1.5.67,3,1,4.59-.86-.93-1.79-1.77-2.68-2.66C115.62,295.53,113.44,293.42,113.88,291.69Z"/><path class="cls-9" d="M161.45,245.12c-1.57,11.94-31,46.38-34.37,50.33l-.77.9L102,277.66l.28-.37,21.42-28s-35.41,20.67-53.13,11.29c-8-4.22-13.86-11.7-13.86-11.7l23.13-12.33s6.4,2.07,10.49,1.47c14.1-2.06,45.69-14.06,53.18-13.76C153.16,224.62,162.9,234.18,161.45,245.12Z"/><path class="cls-6" d="M131.37,238.83a29,29,0,0,0-2.21,2.83c-.75,1-1.52,2-2.28,3l0,0,.4-.87c.48-1,.86-2,1.43-3,0-.06-.06-.11-.09-.05-.58.94-1.25,1.83-1.75,2.81-.23.47-.46.94-.66,1.42-.11.26-.23.52-.33.79a2.46,2.46,0,0,0-.14.38c-.34.46-.67.92-1,1.39-.72,1.05-1.36,2.15-2.09,3.19,0,.05.05.11.09.05.74-1,1.57-1.88,2.32-2.85s1.49-2,2.21-3l2.08-3a30.28,30.28,0,0,0,2.1-3.07S131.41,238.79,131.37,238.83Z"/><path class="cls-6" d="M128.8,290.57c-1.34-1.23-2.77-2.38-4.18-3.53s-2.84-2.31-4.27-3.45c-2.85-2.29-5.7-4.6-8.58-6.84-1.59-1.24-3.19-2.45-4.84-3.6-.07,0-.15.06-.09.12,2.71,2.46,5.59,4.71,8.44,7s5.73,4.56,8.62,6.81c1.59,1.22,3.16,2.49,4.82,3.62C128.78,290.73,128.86,290.63,128.8,290.57Z"/><path class="cls-6" d="M48.35,194.63a2.08,2.08,0,0,0,1.53,3.74,2.37,2.37,0,0,0,0,.88A2.3,2.3,0,0,0,52.44,201a2.3,2.3,0,0,0,0,.74A2.09,2.09,0,0,0,55,203.3a2.07,2.07,0,0,0,1.17-.74A2.08,2.08,0,0,0,58.59,204a2,2,0,0,0,.79-.38,1.25,1.25,0,0,0,0,.19,2.09,2.09,0,0,0,4,.32,2,2,0,0,0,2.34,1.15,2.08,2.08,0,0,0,1.53-1.45,2.28,2.28,0,0,0,3-.88,2.28,2.28,0,0,0,3.49-1.82,2.07,2.07,0,0,0,2.42-2.25,2.15,2.15,0,0,0,1,0,2.28,2.28,0,0,0,1.72-2.74,2.41,2.41,0,0,0-.29-.7,1.17,1.17,0,0,0,.36,0,2.08,2.08,0,0,0,1.56-2.49,2,2,0,0,0-.54-1,2.29,2.29,0,0,0,.9-3.79,2.3,2.3,0,0,0,1-2.43,2.26,2.26,0,0,0-1.28-1.56,2.06,2.06,0,0,0-.71-3,2.28,2.28,0,0,0-1.58-3.74,2,2,0,0,0,0-1,2.08,2.08,0,0,0-2.22-1.6,2.21,2.21,0,0,0,0-1,2.28,2.28,0,0,0-2.74-1.71,1.67,1.67,0,0,0-.5.19,2.2,2.2,0,0,0-.06-.37A2.29,2.29,0,0,0,70,170.15a2.09,2.09,0,0,0-.54.21,1.79,1.79,0,0,0-.05-.65,2.29,2.29,0,0,0-4.21-.65,2.3,2.3,0,0,0-2.16-.65,2.27,2.27,0,0,0-1.4,1,2.06,2.06,0,0,0-2.29-1,2.1,2.1,0,0,0-1.51,1.36,2.1,2.1,0,0,0-1.73-.37,2.07,2.07,0,0,0-1.59,1.82,2.29,2.29,0,0,0-3.6,1.94,2.22,2.22,0,0,0-.77,0,2.09,2.09,0,0,0-1.55,2.5,2,2,0,0,0,.3.69l-.14,0A2.31,2.31,0,0,0,47,179.09a2.37,2.37,0,0,0,.25.61,2.16,2.16,0,0,0-.56.05,2.08,2.08,0,0,0-.61,3.8,2.07,2.07,0,0,0,.26,3.3,2.29,2.29,0,0,0,.89,4.26,2,2,0,0,0-.57,1.93A2.1,2.1,0,0,0,48.35,194.63Z"/><path class="cls-13" d="M67.53,212.49c4.33,6.22,19.18,22.35,29.44,24.69,5.66,1.29,33,5.11,36.73,1.7,4.39-4,2.35-19-1.13-19.17-10.65-.42-30.35,1.66-35.27.58-2.23-.5-14-8.1-26.62-14.19C65.91,203.8,64.74,208.48,67.53,212.49Z"/><path class="cls-5" d="M126.77,218.88l-1.83,22.53s-24.79-.39-32.28-4.6S73,221.86,68.33,214.4s-3.11-11.53,6-6.94,21.39,11.95,23,12.34S126.77,218.88,126.77,218.88Z"/><path class="cls-6" d="M121.82,220.45c0-.06-.09-.08-.1,0-.31,1.55-.44,3.14-.61,4.7s-.34,3.25-.49,4.87c-.29,3.24-.63,6.49-.73,9.74a.11.11,0,0,0,.21,0c.48-3.19.74-6.43,1-9.65.15-1.59.3-3.18.41-4.78S121.84,222.07,121.82,220.45Z"/><path class="cls-2" d="M88.19,215a102.53,102.53,0,0,1-7.88,12.65l-.26-.23a103.39,103.39,0,0,0,7.83-12.59A2.27,2.27,0,0,1,88.19,215Z"/><path class="cls-2" d="M91.15,216.61A101.09,101.09,0,0,1,83,229.91a3,3,0,0,1-.27-.23,101.51,101.51,0,0,0,8.13-13.24Z"/><path class="cls-11" d="M103,239.66c-4.24-.66-8.06-1.59-10.31-2.85C85.18,232.59,73,221.87,68.33,214.4c-3.56-5.7-3.5-9.42.79-8.81Z"/><path class="cls-5" d="M45.59,254.22c1.36.44,40-10.74,40-10.74l-4.56-13.43s2.25-4.31,1.2-8.47c-1.4-5.54-11.66-14.67-12.47-15.2-3.24-2.15-6.28-2.11-9-.69C49.64,211.63,45.59,254.22,45.59,254.22Z"/><path class="cls-2" d="M80.33,217.67c-10,4.89-23.82,6.76-29.61,7.35,0-.12.06-.23.09-.35,5.84-.62,19.44-2.47,29.31-7.3Z"/><path class="cls-2" d="M81.86,220.42c-10.62,5.8-26.68,7.75-32.06,8.26a2.37,2.37,0,0,1,.09-.36c5.46-.53,21.33-2.49,31.82-8.22A3,3,0,0,1,81.86,220.42Z"/><path class="cls-6" d="M75.08,211.21c1,1.16,2.07,2.26,3.1,3.4-.48-.85-1-1.7-1.47-2.52,0,0,0,0,0,0a18.42,18.42,0,0,1,2,3.12,25.51,25.51,0,0,1,2.13,2.72,12.07,12.07,0,0,1,1.75,3.74,10.31,10.31,0,0,1,.12,4.14,27.43,27.43,0,0,1-1.3,4.63c-.08.2-.36.07-.3-.12.72-2.62,1.54-5.39,1-8.13s-2.27-5-3.91-7.14A37.65,37.65,0,0,0,75,211.28C75,211.23,75,211.16,75.08,211.21Z"/><path class="cls-13" d="M55.77,215.05c-3.11,17.63-.59,30.95,2.41,32.58,8.06,4.4,23.62-3.36,29.08-5.14,2.21-.72.09-19.05-2.34-18.55-6,1.22-16.71,7.44-17,7.41-.6-.06-1.3-4.56-4.38-17.68C61,203.06,57,207.84,55.77,215.05Z"/><path class="cls-13" d="M82.63,224.56s11.33-4.74,20.5-4.32c3.11.14,15.72,4.11,14.89,7.2-.75,2.79-11.2-1.77-11.2-1.77s11,3.67,9.43,6.86S103.6,229,103.6,229s11.17,4,9.08,7.07c-1.58,2.3-12-3.22-12-3.22s9.57,3.52,8,6c-1.68,2.69-11.62-1.8-11.62-1.8-4.92,5.54-9.53,6.17-12.86,6.23C83.44,243.25,82.63,224.56,82.63,224.56Z"/><path class="cls-6" d="M103.11,224.16c1.3.38,2.62.76,3.89,1.26s2.51,1,3.72,1.66a23.52,23.52,0,0,1,4.49,2.83,50.94,50.94,0,0,0-8.36-4.15c-1.26-.49-2.5-1.06-3.76-1.55A0,0,0,0,1,103.11,224.16Z"/><path class="cls-6" d="M101.23,228.69c1.64.56,3.29,1.06,4.91,1.7s3.08,1.37,4.64,2.11c.12.06,0,.1-.07.05-1.59-.68-3.12-1.18-4.71-1.84s-3.18-1.38-4.79-2C101.18,228.72,101.2,228.68,101.23,228.69Z"/><path class="cls-6" d="M98.91,232.29a39.09,39.09,0,0,1,7.31,3.16c.12.07,0,.12-.1.06-2.41-1.1-4.3-2-7.23-3.13C98.84,232.36,98.86,232.27,98.91,232.29Z"/><path class="cls-5" d="M80.4,224.62l9.27,19.83S60.9,252.85,57,247.79s-3.63-20.93-1.8-31.92,6.78-11.2,8.94-1.27,3.44,16.21,3.83,16.15S80.4,224.62,80.4,224.62Z"/><path class="cls-2" d="M66.57,225.81a80.42,80.42,0,0,1-12.66,6.82v-.38a80.76,80.76,0,0,0,12.58-6.8C66.52,225.57,66.55,225.69,66.57,225.81Z"/><path class="cls-2" d="M67.39,229.23a80.38,80.38,0,0,1-13.34,7.14l0-.38a80.24,80.24,0,0,0,13.26-7.12C67.33,229,67.36,229.12,67.39,229.23Z"/><path class="cls-6" d="M76.64,227.29s-.12,0-.09,0c.51,1.49,1.21,2.93,1.85,4.37s1.34,3,2,4.45c1.38,2.93,2.73,5.92,4.29,8.77.06.13.22,0,.18-.09-1.19-3-2.61-5.93-4-8.86-.68-1.45-1.36-2.9-2.07-4.33S77.48,228.68,76.64,227.29Z"/><path class="cls-6" d="M74.46,248.1a11.57,11.57,0,0,0-2.4.4c-.84.15-1.67.28-2.51.39-1.61.21-3.25.37-4.88.42s-5.58-.2-6.81-1.31a7.73,7.73,0,0,1-2.08-3.58,54.25,54.25,0,0,1-1-5.65,73.13,73.13,0,0,1-.38-12.11c0-1.13.12-2.25.2-3.37s.21-2.29.25-3.43c0-.05-.06-.06-.07,0a41,41,0,0,0-.77,5.54c-.06-1.16-.2-2.32-.22-3.48,0-.06-.11-.06-.11,0,0,1.22-.06,2.44,0,3.66,0,.69.09,1.37.17,2-.1,1.56-.14,3.11-.13,4.67a48,48,0,0,0,1.43,12.17A6.65,6.65,0,0,0,58,248.78a10.37,10.37,0,0,0,3.78,1,32,32,0,0,0,8.29-.53c.76-.14,1.53-.3,2.28-.47a9,9,0,0,0,2.19-.6S74.5,248.1,74.46,248.1Z"/><polygon class="cls-6" points="80.76 224.78 80.77 224.78 80.77 224.78 80.76 224.78"/><path class="cls-6" d="M80.36,224.25c-2.12,1.06-4.24,2.12-6.35,3.2l-3.12,1.6L68,230.59c0-.47-.39-1.86-.59-2.75s-.45-2-.7-2.91c-.06-.25-.13-.5-.2-.75,0-.47-.09-.93-.13-1.4-.07-.75-.13-1.51-.25-2.26,0,0,0,0,0,0a10.93,10.93,0,0,0,0,2.14c-.32-1.17-.65-2.34-1-3.5,0,0-.07,0-.06,0,.38,2,.78,3.92,1.23,5.87.22.95.46,1.89.71,2.82a28.56,28.56,0,0,0,.84,3,34.3,34.3,0,0,0,3.17-1.4c1.08-.51,2.16-1,3.23-1.58,2.08-1,4.17-2.1,6.18-3.28l.34.69c0,.08.12-.07.09-.16A4,4,0,0,0,80.36,224.25Z"/><polygon class="cls-6" points="80.77 224.78 80.77 224.78 80.77 224.78 80.77 224.78"/><rect class="cls-8" x="81.86" y="238.79" width="41.02" height="1.84"/><polygon class="cls-4" points="90.64 238.79 89.23 240.63 122.88 240.63 122.88 238.79 90.64 238.79"/><polygon class="cls-8" points="92.39 240.63 132.37 240.63 135.7 213.48 95.72 213.48 92.39 240.63"/><path class="cls-2" d="M111.61,227.06a2.39,2.39,0,0,0,2.39,2.43,2.48,2.48,0,0,0,2.48-2.43,2.39,2.39,0,0,0-2.39-2.44A2.49,2.49,0,0,0,111.61,227.06Z"/><path class="cls-13" d="M135.38,216.1c1.5,2.33,5.22,5.05,5.73,7.05a2.34,2.34,0,0,1-1,2.64s2.16.74,2.32,2.63c.09,1-1.39,2-1.39,2a2.83,2.83,0,0,1,1.75,2.36,2.73,2.73,0,0,1-1.45,2.13s1.33,1.41.93,2.79c-.82,2.8-12.27,4.31-14.59.33-1.09-1.86,1.73-2.08,1.73-2.08s-4.12-.66-4.5-3,3.31-2.42,3.31-2.42-4-.67-4.13-3.15,3.54-2,3.54-2-2.78-1.39-2.45-3.31c.54-3.17,7.07.2,9.5-.73Z"/><path class="cls-6" d="M141.15,235a0,0,0,1,1,0,.06,20,20,0,0,1-11.88.85c-.13,0-.13-.24,0-.23A41.28,41.28,0,0,0,141.15,235Z"/><path class="cls-6" d="M141.13,230.4s.06.06,0,.08a18.8,18.8,0,0,1-13,.13c-.14-.06-.21-.26,0-.21C131,231.3,137.49,231.2,141.13,230.4Z"/><path class="cls-6" d="M127.38,225.1a25.78,25.78,0,0,0,12.61.76c.06,0,.06.07,0,.09a16.92,16.92,0,0,1-7,.94,11.51,11.51,0,0,1-5.72-1.65C127.27,225.2,127.3,225.07,127.38,225.1Z"/><path class="cls-13" d="M59,207.08s6.84,5.79,11.19,4.73,1.68-5.47,1.68-5.47a14.28,14.28,0,0,0-8.21-1.87A7.43,7.43,0,0,0,59,207.08Z"/><path class="cls-13" d="M62.47,206c.16.7,3.43,5.28,6.62,5.18,1,0,1.1-5.73,1.1-5.73l.11-.42,1.4-5.87-7.85-5.13S62.41,205.74,62.47,206Z"/><path class="cls-6" d="M71.7,199.2l-1.41,5.87a12.1,12.1,0,0,1-6.92-7c.24-2,.45-3.7.47-4a.08.08,0,0,0,0,0l1,.6Z"/><path class="cls-13" d="M80.11,190.69c.22,10.58-6.1,11.91-8.38,11.95-2.07,0-9.13-.08-10.45-10.59s3.55-14,8.28-14.3S79.89,180.1,80.11,190.69Z"/><path class="cls-6" d="M78.48,189a5.71,5.71,0,0,1-.71-.19,1.2,1.2,0,0,1-.69-.32.38.38,0,0,1,0-.46.94.94,0,0,1,.93-.18,1.4,1.4,0,0,1,.83.53A.4.4,0,0,1,78.48,189Z"/><path class="cls-6" d="M71.27,189.53a6,6,0,0,0,.72-.11,1.21,1.21,0,0,0,.71-.26.36.36,0,0,0,0-.46.91.91,0,0,0-.9-.26,1.36,1.36,0,0,0-.89.44A.4.4,0,0,0,71.27,189.53Z"/><path class="cls-6" d="M72.69,191.19s-.06,0-.06.06c0,.73-.11,1.55-.77,1.77,0,0,0,0,0,0C72.66,193,72.81,191.87,72.69,191.19Z"/><path class="cls-6" d="M72.06,190.42c-1.15-.12-1.31,2.21-.23,2.32S73,190.52,72.06,190.42Z"/><path class="cls-6" d="M71.6,190.52c-.21.11-.43.33-.67.34s-.49-.25-.66-.49c0,0,0,0,0,0,0,.45.11.91.58,1s.77-.28.91-.72C71.75,190.6,71.68,190.47,71.6,190.52Z"/><path class="cls-6" d="M76.87,191.22s0,0,0,.07c-.08.72,0,1.55.59,1.84,0,0,0,0,0,0C76.72,193,76.68,191.89,76.87,191.22Z"/><path class="cls-6" d="M77.56,190.52c1.17,0,1.09,2.32,0,2.33S76.59,190.52,77.56,190.52Z"/><path class="cls-6" d="M78,190.69c.18.13.36.36.58.38s.45-.22.62-.46c0,0,0,0,0,0,0,.45-.16.9-.59,1s-.67-.33-.76-.78C77.91,190.76,78,190.64,78,190.69Z"/><path class="cls-6" d="M72.18,197.55c.15.2.29.45.54.51a2.11,2.11,0,0,0,.79-.07s0,0,0,0a1,1,0,0,1-1,.26.75.75,0,0,1-.47-.71C72.1,197.53,72.16,197.53,72.18,197.55Z"/><path class="cls-6" d="M75.47,195s.06,1.09,0,1.59c0,.05-.13.06-.3.06h0a2.45,2.45,0,0,1-2.27-1.09s0-.1.08-.07a3.64,3.64,0,0,0,2.15.81c.05-.13-.17-1.85-.09-1.85a4.55,4.55,0,0,1,1.13.35c-.06-2.26-.48-4.5-.51-6.75,0-.08.12-.1.14,0a37.28,37.28,0,0,1,.86,7.26C76.67,195.55,75.66,195.08,75.47,195Z"/><path class="cls-6" d="M75.18,196.43a2.94,2.94,0,0,1-1.17.93,1.31,1.31,0,0,1-.81.07c-.58-.15-.61-.68-.51-1.14a3.19,3.19,0,0,1,.25-.71A3.9,3.9,0,0,0,75.18,196.43Z"/><path class="cls-14" d="M74,197.36a1.31,1.31,0,0,1-.81.07c-.58-.15-.61-.68-.51-1.14A1.36,1.36,0,0,1,74,197.36Z"/><path class="cls-6" d="M62.1,191.6c1.13-.07,4-3.17,4.1-8.58a40,40,0,0,1-.76,5.57c-.36.72,1.63-1.74,1.74-6.11a17.67,17.67,0,0,0,4.5,2.31c2.06.57,3.32.54,3.47.39s-2.89-1.09-3.72-2c0,0,5.5,2.53,8,2.71.29,0,.21-5.18-3.71-7.72s-9.69-.57-11.35,1c0,0-1.18.53-3.29,3.43S60.9,191.68,62.1,191.6Z"/><path class="cls-5" d="M61.89,194.13c.54,1.47-3.63-5.2-3.72-6.29s1.4-6.64,5.69-9.4c3.59-2.31,8.42-1.51,9.26-1.36a6.61,6.61,0,0,1,2.63,1.06s-6.32-1.07-11.35,1C62,180.2,59.88,188.61,61.89,194.13Z"/><path class="cls-5" d="M61.86,178.17s.83-3.35,3.57-4.58c0,0,.79,2.86.09,4.1-.35.63-2.52,1.53-2.9,1.24A5.44,5.44,0,0,1,61.86,178.17Z"/><path class="cls-15" d="M61.86,178.17a6.1,6.1,0,0,0,.76.76l.06,0,.08,0h.06a3.17,3.17,0,0,0,1.25-.33,7.17,7.17,0,0,0-.69-1.12,1.91,1.91,0,0,0-1.1-.5A7.4,7.4,0,0,0,61.86,178.17Z"/><path class="cls-5" d="M61.29,178.78s-4.15.65-5.79,2.12a5.65,5.65,0,0,0,3.85,1.61c1-.06,3-2.5,2.75-2.92A4.27,4.27,0,0,0,61.29,178.78Z"/><path class="cls-15" d="M60.35,179a2.55,2.55,0,0,0,.49,1.29,2.16,2.16,0,0,0,.73.48c.4-.51.64-1,.53-1.14a4,4,0,0,0-.81-.81S60.92,178.84,60.35,179Z"/><path class="cls-5" d="M61.16,179.81a1.37,1.37,0,1,0,0-1.93A1.37,1.37,0,0,0,61.16,179.81Z"/><path class="cls-13" d="M63,192.83s-2.08-3.45-3.64-2.72-.13,5.61,1.59,6.38a1.78,1.78,0,0,0,2.45-.8Z"/><path class="cls-6" d="M59.79,191.5a0,0,0,0,0,0,0,4.54,4.54,0,0,1,2.15,3,1,1,0,0,0-1.46-.36s0,.07,0,.07a1.1,1.1,0,0,1,1.19.46,5.32,5.32,0,0,1,.51,1c.05.12.26.07.22-.06v0C62.54,194.05,61.46,191.77,59.79,191.5Z"/><path class="cls-13" d="M214.49,295.41c-.56,1.5-27.73,35.27-29.58,35.9-.7.25-5.84-3.42-11.94-8-1.32-1-2.67-2-4-3.1-8.89-6.87-18.17-14.37-18.17-14.37l18.11-22.64,17.67,15,3.88,3.29s16.19-8.27,18.29-8.75S215,293.92,214.49,295.41Z"/><path class="cls-1" d="M164.18,316.49l4.75,3.69q2.06,1.6,4,3.1c6.1,4.61,11.24,8.27,11.94,8,1.85-.63,29-34.4,29.58-35.9s-3.68-3.18-5.78-2.71-18.29,8.75-18.29,8.75l-3.88-3.29-3.94-3.34Z"/><path class="cls-5" d="M214.81,295.26c-.57,1.52-28.36,35.74-30.24,36.37-.87.3-8.4-5.31-16.21-11.39l18-22.31,3.93,3.36s16.5-8.34,18.64-8.82S215.38,293.74,214.81,295.26Z"/><path class="cls-6" d="M213,294.64c-4.79,5.62-23.62,28.75-27.94,34.67,0,.05,0,.07,0,0,4.88-5.47,23.52-28.75,28-34.63C213.23,294.59,213.15,294.52,213,294.64Z"/><path class="cls-6" d="M189.69,299.45c-2.25,1.91-4.15,4.95-3.94,8,0,.12.17.11.21,0a40.45,40.45,0,0,1,4-7.76A.19.19,0,0,0,189.69,299.45Z"/><path class="cls-6" d="M192,298.61c-2.25,1.92-4.14,5-3.94,8,0,.12.18.11.21,0a41.63,41.63,0,0,1,4-7.76C192.39,298.68,192.16,298.48,192,298.61Z"/><path class="cls-6" d="M194.3,297.78c-2.25,1.92-4.15,5-3.94,8,0,.12.17.1.21,0a41,41,0,0,1,4-7.76A.19.19,0,0,0,194.3,297.78Z"/><path class="cls-6" d="M196.61,297c-2.26,1.91-4.15,5-4,8,0,.12.18.1.21,0a41.32,41.32,0,0,1,4-7.76A.18.18,0,0,0,196.61,297Z"/><path class="cls-6" d="M187.86,291c-2-.11-2.74,2-2.71,3.58a15.44,15.44,0,0,0,2.35,7.67.07.07,0,0,0,.12,0,.36.36,0,0,0,.57-.12c.82-2.43,2-4.92,2.06-7.52C190.28,293.14,189.69,291.14,187.86,291Zm.83,7.21c-.38,1.2-.81,2.38-1.14,3.59-.46-1.5-1-3-1.28-4.51a19,19,0,0,1-.32-2.25c-.06-1.16.8-4.88,3-2.47C190.09,293.94,189.13,296.81,188.69,298.25Z"/><path class="cls-6" d="M182.25,307.55c2.3-1.22,4-3.39,5.8-5.21a.37.37,0,0,0-.15-.57s0-.1-.06-.1a15.55,15.55,0,0,0-7.92,1.34c-1.43.69-2.95,2.33-2,4S180.9,308.26,182.25,307.55Zm-2.44-.29c-3.12-.84-.18-3.28.89-3.74a16.44,16.44,0,0,1,2.15-.72c1.52-.42,3.06-.62,4.61-.89-.94.85-1.8,1.76-2.71,2.63C183.67,305.59,181.53,307.73,179.81,307.26Z"/><path class="cls-9" d="M185.59,294.69l-19.06,25.72L102.2,275.78,96,271.47s-1.76,1.18-4.4,2.65c-3.67,2-9.06,4.6-13.82,5.3-8,1.18-21.31,1.05-28.05-7.95C44.07,263.89,47.15,254,47.15,254l8.76-3.77S76.66,233,90.1,232.43c5.71-.22,14,4.1,21.72,8.62S185.59,294.69,185.59,294.69Z"/><path class="cls-6" d="M96,271.47s-1.76,1.18-4.4,2.65C86.92,268.52,77,258.36,76.73,258Z"/><path class="cls-6" d="M63.52,244.46c-1.24.86-2.44,1.77-3.67,2.66s-2.44,1.68-3.59,2.63-2.26,2-3.36,3c-.53.5-1,1-1.57,1.53a14.31,14.31,0,0,0-1.49,1.62c0,.05,0,.12.09.08a16.57,16.57,0,0,0,1.66-1.35l1.74-1.47c1.11-.95,2.25-1.87,3.36-2.82s2.13-2,3.23-2.94,2.4-2,3.62-2.94C63.56,244.48,63.54,244.44,63.52,244.46Z"/><path class="cls-6" d="M181.11,293.77c-1.24,1.34-2.38,2.77-3.53,4.18s-2.31,2.84-3.46,4.27c-2.28,2.85-4.59,5.7-6.83,8.58-1.24,1.59-2.46,3.19-3.6,4.84-.06.07.06.15.12.09,2.46-2.71,4.71-5.59,7-8.44s4.56-5.73,6.8-8.62c1.23-1.59,2.5-3.16,3.62-4.82C181.27,293.79,181.17,293.71,181.11,293.77Z"/><path class="cls-6" d="M128.32,294c-3.2-2.52-6.52-4.9-9.84-7.26s-6.6-4.72-10-7c-1-.66-1.93-1.3-2.9-1.94s-2-1.24-2.92-1.91c-.06,0-.11.05,0,.09.87.63,1.69,1.33,2.55,2s1.62,1.24,2.45,1.85c1.6,1.19,3.23,2.36,4.85,3.53,3.28,2.37,6.59,4.72,9.94,7,1.9,1.31,3.79,2.61,5.73,3.85C128.29,294.3,128.43,294.12,128.32,294Z"/><path class="cls-6" d="M148.89,267.5c-3-2.45-6.13-4.66-9.22-6.92s-6.26-4.61-9.41-6.88l-9.37-6.78c-3-2.19-6-4.41-9.23-6.35q-2.62-1.59-5.39-2.93a36.35,36.35,0,0,0-5.57-2.27c-.06,0-.09.07,0,.1,1.58.88,3.23,1.62,4.83,2.47s3.13,1.72,4.65,2.65c3.18,1.92,6.17,4.11,9.19,6.27,6.25,4.5,12.49,9,18.79,13.45,3.52,2.48,7,5.1,10.63,7.38C148.87,267.76,149,267.58,148.89,267.5Z"/></g></svg>