<svg xmlns="http://www.w3.org/2000/svg" viewBox="0 0 500 365.76"><defs><style>.cls-1{fill:#e0e0e0;}.cls-2{fill:#fafafa;}.cls-3{fill:#ebebeb;}.cls-4{fill:#263238;}.cls-5{fill:#bd8c83;}.cls-6{fill:#896360;}.cls-7{fill:#b85128;}.cls-8{opacity:0.3;}.cls-9{fill:#455a64;}.cls-10{fill:none;}.cls-11{fill:#616e7d;}.cls-12,.cls-14{fill:#aad4c8;}.cls-12{opacity:0.51;}.cls-13{opacity:0.16;}.cls-15{fill:#ffbe9d;}.cls-16{opacity:0.6;}.cls-17{fill:#fff;}.cls-18{fill:#eb996e;}.cls-19{fill:#f5f5f5;}</style></defs><title>landing</title><g id="Table"><path class="cls-1" d="M105.7,291a17.45,17.45,0,0,0-7.5-2.58,5,5,0,0,0-3.54.65.75.75,0,0,0-.37.65.8.8,0,0,0,.35.44,10.72,10.72,0,0,0,11.06.84"/><path class="cls-1" d="M105.51,290.8a37.08,37.08,0,0,1-4.84-4.26,12.24,12.24,0,0,1-3-5.62,2.27,2.27,0,0,1,.24-1.88c3.86,3,6.89,6.92,7.64,11.76"/><path class="cls-1" d="M105.66,291a17.65,17.65,0,0,1,.09-6.36,8.62,8.62,0,0,1,3.39-5.24,7.48,7.48,0,0,1-.09,5,24.32,24.32,0,0,1-3.36,7.07"/><path class="cls-1" d="M109.45,297.76a11.08,11.08,0,0,0-6,3.05,11.41,11.41,0,0,0-3.44,5.9c2.26-.14,4.17-1.73,5.56-3.51s2.34-3.74,3.87-5.4"/><path class="cls-1" d="M110.27,298.85a14.84,14.84,0,0,1,1.71-14,17.86,17.86,0,0,1-1.71,14"/><path class="cls-1" d="M115.27,304.8A10.73,10.73,0,0,0,105,310.7c-.12.26-.23.58-.06.81s.43.21.68.2a9,9,0,0,0,5.29-2.73,48,48,0,0,1,4.39-4.18"/><path class="cls-1" d="M115.11,304.48a19.08,19.08,0,0,1-.19-10.67,5.2,5.2,0,0,1,2.27-3.46.41.41,0,0,1,.35-.06.45.45,0,0,1,.22.25,6.29,6.29,0,0,1,.54,3.06,19,19,0,0,1-.48,3.1c-.4,1.89-.61,3.93-1.65,5.56a12,12,0,0,0-.66,1.22c-.2.42-.2.56-.38.89"/><path class="cls-1" d="M128.34,306.45a13.76,13.76,0,0,1,2.41-11.31c.18-.23.41-.47.69-.44.43,0,.55.62.53,1.05a20.45,20.45,0,0,1-3.63,10.7"/><path class="cls-1" d="M129.54,307.26a16.44,16.44,0,0,0,13.5-2.74,10.94,10.94,0,0,0-7.31-.9,10.43,10.43,0,0,0-6.19,3.64"/><path class="cls-1" d="M130.54,304.78a15.59,15.59,0,0,1,12.26-7.08,7.57,7.57,0,0,1-4,4.43,22.48,22.48,0,0,1-5.88,1.72,4.17,4.17,0,0,0-2.37.93"/><path class="cls-1" d="M128.6,292.73a36.08,36.08,0,0,0,1.56-7.18,11.92,11.92,0,0,0-1.43-7.09,15.6,15.6,0,0,0-.2,14.52"/><path class="cls-1" d="M136.58,288.7c2.77-5,8.43-9.07,14.15-9.63-2.21,5.5-8.23,9.74-14.15,9.63"/><path class="cls-1" d="M134.83,289.68c4.14.63,7.66,3.27,11.52,4.87a5.07,5.07,0,0,0,2.61.5,2,2,0,0,0,1.28-3.6,5.5,5.5,0,0,0-1.9-1.15,21,21,0,0,0-13.15-.73"/><path class="cls-1" d="M132.44,292.58a4.9,4.9,0,0,1,2,1.39,21.6,21.6,0,0,0,8.73,4.49c.34.08.78.11.94-.19s0-.58-.22-.82a12.05,12.05,0,0,0-5.28-3.58c-2-.75-3.76-1.65-6.17-1.46"/><path class="cls-1" d="M129.74,275.07a16.52,16.52,0,0,0,12.68,4.31.82.82,0,0,0,.57-.21c.32-.34-.06-.88-.43-1.17a14.62,14.62,0,0,0-12.82-2.93"/><path class="cls-1" d="M132.94,273.9a17.67,17.67,0,0,1,15.82-2.61,12.59,12.59,0,0,1-7.54,3.31,23.87,23.87,0,0,1-8.28-.7"/><path class="cls-1" d="M131.67,265.85c-.37-3.72-.13-6.66-.39-10.39,0-.3-.08-.66-.36-.77s-.71.33-.84.72a12,12,0,0,0,1.58,10.36"/><path class="cls-1" d="M131.4,266.26a21.82,21.82,0,0,0,6.16-6c1.22-1.66,2.25-3.66,2-5.7a5.89,5.89,0,0,0-4.44,2.2,12.3,12.3,0,0,0-2.27,4.56c-.49,1.64-.84,3.32-1.42,4.93"/><path class="cls-1" d="M137.46,264.58a49.82,49.82,0,0,0,15.16-8.94,7.76,7.76,0,0,0-5.7.43,18,18,0,0,0-9.54,8.47"/><path class="cls-1" d="M133.1,268.29a30.91,30.91,0,0,0,8.43,0,35.94,35.94,0,0,0,7.86-2.62.87.87,0,0,0,.53-.4.61.61,0,0,0-.19-.67,1.66,1.66,0,0,0-.67-.32,14.62,14.62,0,0,0-8.5.51,39.72,39.72,0,0,0-7.46,3.45"/><path class="cls-1" d="M117.12,275.2a14.9,14.9,0,0,1-.14-12.33,9.38,9.38,0,0,1,1.1,6.13c-.22,2.1-.86,4.27-.9,6.39"/><path class="cls-1" d="M109.49,271.35a17.21,17.21,0,0,0-12.78,5.44,12,12,0,0,0,7-1.3,35.66,35.66,0,0,0,6-4"/><path class="cls-1" d="M104.36,269.63c-2.33-.19-4.58-.48-6.82.21a8.22,8.22,0,0,0-5.2,4.41,12.27,12.27,0,0,0,6.4-1.21,36.29,36.29,0,0,0,5.62-3.41"/><path class="cls-1" d="M112,269.71a21.69,21.69,0,0,0-6.7-3.34c-2.44-.57-5.28-.15-7,1.69a13,13,0,0,0,6.67,1.29,23.28,23.28,0,0,1,7.27.74"/><path class="cls-1" d="M112,269.82c-3.59-3.52-5-9.85-3.51-14.67A22.35,22.35,0,0,1,112,269.82"/><path class="cls-1" d="M121.83,259.84c.68-1.57,1.16-3.22,1.76-4.83a13.83,13.83,0,0,1,2.51-4.44,6.64,6.64,0,0,1,4.45-2.31,17.93,17.93,0,0,1-8.63,11.6"/><path class="cls-1" d="M120.05,261.92c-1.12-1.54-2.42-3.63-3.93-4.78a6.6,6.6,0,0,0-5.35-1.41,12.43,12.43,0,0,0,9.28,6.19"/><path class="cls-1" d="M120.41,260a26,26,0,0,1-1.77-5.73,8.94,8.94,0,0,1,.89-5.83c2,3.72,2.61,7.72,1,11.6"/><path class="cls-1" d="M121.85,248.41c1.12-3.69,4.5-6.41,8.14-7.66a3.2,3.2,0,0,1,1.43-.21,1.23,1.23,0,0,1,1.05.88c.14.63-.38,1.19-.87,1.61a27.84,27.84,0,0,1-9.75,5.38"/><path class="cls-1" d="M121.89,245.39a26.17,26.17,0,0,1,1.07-7,8.87,8.87,0,0,1,4.43-5.35c.37,2.4-.69,4.79-2,6.86s-2.82,4-3.59,6.32"/><path class="cls-1" d="M121.83,247c-.92-2.69-1-6.11-2.62-8.45-1.13-1.64-2.93-2.75-3.9-4.49a6.83,6.83,0,0,0,.22,5.1,15,15,0,0,0,3,4.26c1.2,1.27,2.22,2.23,3.32,3.58"/><path class="cls-1" d="M121.85,326.23c-.07,0-.13-17.94-.14-40.07s.05-40.07.12-40.07S122,264,122,286.16,121.92,326.23,121.85,326.23Z"/><path class="cls-1" d="M137.53,272.49a4.11,4.11,0,0,1-.67.25l-1.86.63c-1.57.53-3.72,1.3-6.05,2.26s-4.49,1.8-5.73,2.87a4.13,4.13,0,0,0-1.15,1.53c-.18.42-.21.67-.24.67a.69.69,0,0,1,0-.19A2.76,2.76,0,0,1,122,280a4.07,4.07,0,0,1,1.13-1.63,10.15,10.15,0,0,1,2.48-1.54c1-.46,2.1-.95,3.27-1.43,2.34-1,4.51-1.71,6.09-2.2.79-.24,1.44-.42,1.89-.54A3.61,3.61,0,0,1,137.53,272.49Z"/><path class="cls-1" d="M142.67,259.86s-.06.08-.19.21l-.57.54c-.54.48-1.27,1.14-2.15,1.95l-7.16,6.37c-2.79,2.49-5.2,4.86-6.88,6.65-.83.89-1.49,1.63-1.94,2.15l-.52.59a1,1,0,0,1-.2.2,1.3,1.3,0,0,1,.16-.23c.11-.15.26-.36.48-.63.43-.53,1.07-1.29,1.89-2.21a90.73,90.73,0,0,1,6.84-6.71c2.8-2.48,5.35-4.71,7.2-6.32l2.21-1.89.61-.5A1.29,1.29,0,0,1,142.67,259.86Z"/><path class="cls-1" d="M129.59,271.46c-.08,0,.51-1.38,1.09-3.09s.86-3.14.94-3.12a10.82,10.82,0,0,1-.7,3.21,20.71,20.71,0,0,1-.86,2.15A3.85,3.85,0,0,1,129.59,271.46Z"/><path class="cls-1" d="M121.87,282.32a2.85,2.85,0,0,1-.43-.5l-1.1-1.42c-.93-1.19-2.21-2.85-3.65-4.65s-2.75-3.43-3.71-4.61l-1.12-1.39a3.1,3.1,0,0,1-.39-.53,2.54,2.54,0,0,1,.46.46c.29.31.7.77,1.19,1.34,1,1.15,2.34,2.75,3.78,4.57s2.69,3.48,3.58,4.7c.45.62.8,1.12,1,1.47A3.54,3.54,0,0,1,121.87,282.32Z"/><path class="cls-1" d="M118.43,277.9a6.28,6.28,0,0,1-1.44-2.69,7.94,7.94,0,0,1-.33-2.72h.12c0,.21-.09.32-.11.31s0-.12,0-.33h.12a11.92,11.92,0,0,0,.46,2.64A19,19,0,0,0,118.43,277.9Z"/><path class="cls-1" d="M114,272.32a4.52,4.52,0,0,0-1-.58,6.85,6.85,0,0,0-2.8-.23,17.47,17.47,0,0,0-2.81.46c-.71.17-1.14.31-1.15.28a3.37,3.37,0,0,1,1.1-.46,12.86,12.86,0,0,1,2.85-.53,6,6,0,0,1,2.88.31C113.76,271.88,114,272.31,114,272.32Z"/><path class="cls-1" d="M112.94,271s-.59-.24-1.54-.56a15.74,15.74,0,0,0-3.84-.8,16.06,16.06,0,0,0-3.92.2c-1,.18-1.6.37-1.61.33s.14-.08.41-.18a10.23,10.23,0,0,1,1.16-.33,13.86,13.86,0,0,1,7.86.6,9.61,9.61,0,0,1,1.1.5C112.81,270.87,113,271,112.94,271Z"/><path class="cls-1" d="M121.83,265.25a32.35,32.35,0,0,1-1.12-3.91,32,32,0,0,1-.87-4,31.82,31.82,0,0,1,1.12,3.9A31.48,31.48,0,0,1,121.83,265.25Z"/><path class="cls-1" d="M121.9,265.25a17.2,17.2,0,0,0-1.24-2.34,10.22,10.22,0,0,0-1.83-1.89,1.69,1.69,0,0,1,.7.36,5.53,5.53,0,0,1,1.34,1.38A5,5,0,0,1,121.9,265.25Z"/><path class="cls-1" d="M121.85,316.67s-.08-.43-.28-1.2a17.14,17.14,0,0,0-1.2-3.1,43.12,43.12,0,0,0-6.36-9c-1.42-1.63-2.8-3.16-4-4.62a34.18,34.18,0,0,1-2.84-4.09,20.47,20.47,0,0,1-1.43-3c-.13-.37-.23-.67-.28-.87a1.05,1.05,0,0,1-.07-.31s.15.41.45,1.14a21.38,21.38,0,0,0,1.49,3,33.74,33.74,0,0,0,2.87,4c1.17,1.45,2.55,3,4,4.6a40,40,0,0,1,6.33,9.05,15.36,15.36,0,0,1,1.14,3.16c.08.39.14.69.16.9A1.54,1.54,0,0,1,121.85,316.67Z"/><path class="cls-1" d="M136,300.67s-.26.15-.74.41a16.07,16.07,0,0,0-1.93,1.28,22.73,22.73,0,0,0-2.53,2.3c-.89.94-1.8,2-2.73,3.2-1.87,2.34-3.62,4.41-4.66,6.06-.53.82-.92,1.52-1.17,2a5.69,5.69,0,0,1-.41.75s0-.08.07-.21.13-.34.25-.58a18.59,18.59,0,0,1,1.1-2.05,67.74,67.74,0,0,1,4.61-6.14c.94-1.17,1.86-2.26,2.77-3.19a20.18,20.18,0,0,1,2.59-2.29,14,14,0,0,1,2-1.22c.25-.12.45-.2.58-.25S136,300.66,136,300.67Z"/><path class="cls-1" d="M136.3,305.86a12,12,0,0,1-1.57.22,20.71,20.71,0,0,0-3.72.74,11.1,11.1,0,0,0-3.34,1.75c-.77.59-1.13,1.08-1.16,1.05s.06-.14.23-.36a6.14,6.14,0,0,1,.82-.84,10,10,0,0,1,3.37-1.85,16.6,16.6,0,0,1,3.78-.67A7.81,7.81,0,0,1,136.3,305.86Z"/><path class="cls-1" d="M127,309.05c-.08,0,.63-1.12,1.18-2.58s.63-2.75.73-2.73a2.6,2.6,0,0,1,0,.84,9.1,9.1,0,0,1-.46,2,9.29,9.29,0,0,1-.91,1.82C127.19,308.82,127,309.07,127,309.05Z"/><path class="cls-1" d="M140.61,286.73l-.25.13-.74.34c-.32.14-.72.31-1.16.54s-1,.47-1.5.79l-.85.49c-.3.17-.59.37-.91.57-.63.38-1.26.85-1.93,1.33a36.75,36.75,0,0,0-4.05,3.56,36.31,36.31,0,0,0-3.42,4.17c-.46.69-.91,1.34-1.27,2-.18.32-.38.62-.54.92l-.45.88c-.31.55-.53,1.07-.74,1.52s-.38.85-.51,1.18l-.31.75a1,1,0,0,1-.12.25,1.29,1.29,0,0,1,.07-.27l.27-.77a12,12,0,0,1,.47-1.2c.2-.45.41-1,.7-1.55l.45-.88c.15-.31.34-.61.53-.94.35-.65.8-1.31,1.25-2A36.7,36.7,0,0,1,129,294.3a35.13,35.13,0,0,1,4.09-3.57c.69-.48,1.33-1,2-1.32.32-.2.61-.4.92-.56l.86-.48c.55-.31,1.08-.54,1.53-.76s.85-.38,1.18-.51l.76-.29A1,1,0,0,1,140.61,286.73Z"/><path class="cls-1" d="M129.4,294.24a1.76,1.76,0,0,1,.61-.92,3.87,3.87,0,0,1,2.49-.95,6.78,6.78,0,0,1,2.61.51,4,4,0,0,1,1,.48,5.82,5.82,0,0,1-1-.31,8,8,0,0,0-2.55-.42,4.07,4.07,0,0,0-2.37.83A8.46,8.46,0,0,0,129.4,294.24Z"/><path class="cls-1" d="M127.72,296a9.27,9.27,0,0,0,.7-2.3,9.38,9.38,0,0,0-.15-2.39,1.63,1.63,0,0,1,.29.67,4.83,4.83,0,0,1-.4,3.44C127.94,295.78,127.74,296,127.72,296Z"/><path class="cls-1" d="M109.46,319.24c.39,6.86,2.45,13.83,5.63,20.88h13.82a60,60,0,0,0,5.3-20.88Z"/><path class="cls-2" d="M132,330.33c0,.08-4.55.13-10.16.13s-10.17,0-10.17-.13,4.55-.13,10.17-.13S132,330.26,132,330.33Z"/><path class="cls-2" d="M131.66,332.82c0,.07-4.27.13-9.53.13s-9.53-.06-9.53-.13,4.27-.13,9.53-.13S131.66,332.75,131.66,332.82Z"/><path class="cls-2" d="M115.31,323.74a39.08,39.08,0,0,1,0,6.37,39.08,39.08,0,0,1,0-6.37Z"/><path class="cls-2" d="M122.72,323.74a41.82,41.82,0,0,1,0,6.59,41.82,41.82,0,0,1,0-6.59Z"/><path class="cls-2" d="M129.67,323.68a43.62,43.62,0,0,1,0,6.73,43.62,43.62,0,0,1,0-6.73Z"/><path class="cls-2" d="M133.77,323.74c0,.07-5.34.13-11.92.13s-11.92-.06-11.92-.13,5.34-.13,11.92-.13S133.77,323.67,133.77,323.74Z"/><path class="cls-1" d="M378.37,282.62c-.06.07-.55-.23-1.11-.67s-.95-.86-.89-.94.55.23,1.11.67S378.43,282.54,378.37,282.62Z"/><path class="cls-3" d="M393.49,260a17.63,17.63,0,0,0-.51-6.28,6.2,6.2,0,0,0-4.29-4.28c-2.36-.49-4.78,1-6.1,3a17.38,17.38,0,0,0-2.17,6.84,241.7,241.7,0,0,0-3,49.69l9.66,1.35C391.37,293,392.72,277.86,393.49,260Z"/><path class="cls-1" d="M387.35,249.38s0,.06,0,.16l-.16.44c-.16.4-.37,1-.64,1.66-.14.37-.32.76-.46,1.21s-.3.94-.47,1.47L385,256c-.16.6-.33,1.24-.5,1.91a83.42,83.42,0,0,0-1.87,9.57c-.52,3.63-.87,7.66-1.14,11.89-.49,8.47-.57,16.15-.78,21.71-.11,2.78-.2,5-.31,6.58-.05.76-.09,1.35-.12,1.79,0,.19,0,.34,0,.47s0,.15,0,.15a.92.92,0,0,1,0-.16c0-.12,0-.28,0-.46,0-.44,0-1,.06-1.79.06-1.56.12-3.8.19-6.58.16-5.56.19-13.25.69-21.73.27-4.24.62-8.27,1.17-11.92a80,80,0,0,1,1.94-9.58c.18-.67.36-1.31.53-1.91s.39-1.16.56-1.68.35-1,.5-1.46.35-.84.49-1.2c.3-.7.53-1.25.71-1.65l.19-.43A1.42,1.42,0,0,1,387.35,249.38Z"/><path class="cls-1" d="M388.25,249.39a7,7,0,0,1,1.18,2,14.73,14.73,0,0,1,.88,6.25c-.26,5.34-.73,12.7-1.37,20.83s-1.35,15.47-1.92,20.78c-.28,2.65-.53,4.8-.71,6.28-.09.72-.17,1.29-.22,1.71l-.07.44a.61.61,0,0,1,0,.15s0-.05,0-.15l0-.45q.06-.63.15-1.71c.15-1.52.36-3.66.61-6.3.51-5.31,1.18-12.66,1.82-20.78s1.15-15.48,1.47-20.81a15.22,15.22,0,0,0-.77-6.19A12.55,12.55,0,0,0,388.25,249.39Z"/><path class="cls-1" d="M395,274.4a10.31,10.31,0,0,1-3.55-1.27,5.27,5.27,0,0,1,1.83.47A5.57,5.57,0,0,1,395,274.4Z"/><path class="cls-1" d="M396.11,264.55a5.79,5.79,0,0,1-1.74,1,6.11,6.11,0,0,1-1.88.66,5.56,5.56,0,0,1,1.74-1A6.11,6.11,0,0,1,396.11,264.55Z"/><path class="cls-1" d="M395.51,256.51a3.06,3.06,0,0,1-1.44.08,3.35,3.35,0,0,1-1.42-.27,3.06,3.06,0,0,1,1.44-.08A3.3,3.3,0,0,1,395.51,256.51Z"/><path class="cls-1" d="M385.54,251.36c-.09,0-.51-.47-1-1.18a3.41,3.41,0,0,1-.65-1.36c.08,0,.5.48.94,1.18A3.52,3.52,0,0,1,385.54,251.36Z"/><path class="cls-1" d="M382.24,256.22c0,.1-.62.16-1.37.15s-1.37-.11-1.37-.21a5.61,5.61,0,0,1,2.74.06Z"/><path class="cls-1" d="M379.87,266a3.32,3.32,0,0,1-1.44-.4c-.76-.3-1.35-.62-1.32-.71a3.38,3.38,0,0,1,1.45.39C379.32,265.54,379.91,265.86,379.87,266Z"/><path class="cls-1" d="M379.62,274.13c0,.09-.53.29-1.23.43s-1.28.19-1.3.1.53-.29,1.23-.43S379.6,274,379.62,274.13Z"/><path class="cls-1" d="M378.51,287.51a5.44,5.44,0,0,1-2.67.48c0-.09.56-.28,1.3-.41A2.93,2.93,0,0,1,378.51,287.51Z"/><path class="cls-1" d="M377.77,294.9c0,.08-.45.43-1.09.77s-1.21.55-1.25.46.44-.43,1.09-.77S377.72,294.81,377.77,294.9Z"/><path class="cls-1" d="M383.8,303.28c-.08.05-.51-.54-.95-1.31a4,4,0,0,1-.65-1.48c.08-.05.51.54.95,1.31A4,4,0,0,1,383.8,303.28Z"/><path class="cls-1" d="M385.54,289.35c.07.07-.41.64-1.06,1.28s-1.23,1.1-1.3,1,.41-.64,1.06-1.28S385.47,289.28,385.54,289.35Z"/><path class="cls-1" d="M385.15,282c-.07.06-.5-.3-1-.81s-.79-1-.72-1,.51.29,1,.8S385.22,282,385.15,282Z"/><path class="cls-1" d="M386.35,272.7c.07.06-.32.62-.88,1.24s-1.07,1.08-1.14,1,.32-.62.88-1.24S386.28,272.64,386.35,272.7Z"/><path class="cls-1" d="M387,265.92c-.06.07-.61-.36-1.22-1s-1.06-1.14-1-1.21.62.37,1.23,1S387.09,265.85,387,265.92Z"/><path class="cls-1" d="M388.35,256.76a3.49,3.49,0,0,1-.62,1.37c-.42.71-.83,1.24-.91,1.19s.19-.66.61-1.37S388.27,256.71,388.35,256.76Z"/><path class="cls-1" d="M390.84,248.27a3.3,3.3,0,0,1-.55,1.37c-.38.71-.76,1.25-.85,1.21a3.26,3.26,0,0,1,.55-1.37C390.37,248.76,390.75,248.22,390.84,248.27Z"/><path class="cls-1" d="M393.66,252.12c0,.09-.34.36-.86.61s-1,.38-1,.29.35-.36.87-.6S393.62,252,393.66,252.12Z"/><path class="cls-1" d="M393.73,282.62a3.87,3.87,0,0,1-1.89-.46,3.83,3.83,0,0,1-1.64-1.05,9.68,9.68,0,0,1,1.77.73A9.56,9.56,0,0,1,393.73,282.62Z"/><path class="cls-1" d="M392.57,289.08c0,.09-.56.28-1.3.42s-1.34.19-1.36.09.56-.28,1.3-.43S392.56,289,392.57,289.08Z"/><path class="cls-1" d="M391.16,300.15a3.71,3.71,0,0,1-1.48-1.29,3.78,3.78,0,0,1-.92-1.73,11,11,0,0,1,1.19,1.52A11.61,11.61,0,0,1,391.16,300.15Z"/><path class="cls-1" d="M375.62,305.22c-.06-.08.33-.51.88-1s1-.79,1.1-.72-.33.51-.88,1S375.68,305.29,375.62,305.22Z"/><path class="cls-3" d="M371.15,281.05c-.63-2-1.81-4.26-3.87-4.29a3.43,3.43,0,0,0-2.9,1.94,7.17,7.17,0,0,0-.78,3.56A92.29,92.29,0,0,0,368,308h7.55A89.75,89.75,0,0,0,371.15,281.05Z"/><path class="cls-3" d="M357.51,268.68a8.4,8.4,0,0,0-7.86-6.71c-3.34.59-4.63,3.87-5,7.23s.65,6.71,1.68,9.94q5,15.54,9.94,31.07l9.39-1C362.65,295.31,361,282.45,357.51,268.68Z"/><path class="cls-1" d="M367.28,276.76a8,8,0,0,0-.64,1.07,7.15,7.15,0,0,0-.35,3.34c.15,1.43.31,3.16.55,5.05s.59,4,1,6.14c.85,4.34,1.82,8.23,2.43,11.06.31,1.42.54,2.57.69,3.37l.15.92a1.11,1.11,0,0,1,0,.32s-.05-.1-.1-.31-.14-.54-.23-.91c-.2-.84-.46-2-.79-3.33-.67-2.82-1.67-6.7-2.53-11.05-.42-2.18-.76-4.26-1-6.17-.12-.95-.2-1.86-.27-2.71s-.16-1.64-.2-2.37a6.77,6.77,0,0,1,.47-3.41A3.06,3.06,0,0,1,367.28,276.76Z"/><path class="cls-1" d="M349.79,261.7a13,13,0,0,0-1.14,1.53,10.77,10.77,0,0,0-1.43,4.91,23,23,0,0,0,1.16,7.56c.83,2.79,1.73,5.86,2.68,9.08,1.87,6.43,3.57,12.26,4.81,16.51.59,2.09,1.07,3.8,1.42,5,.15.57.27,1,.37,1.37a2.45,2.45,0,0,1,.1.48,2.26,2.26,0,0,1-.17-.46l-.43-1.35c-.37-1.22-.89-2.91-1.53-5l-4.9-16.49c-.94-3.22-1.84-6.29-2.65-9.08a22.33,22.33,0,0,1-1.1-7.67,10.52,10.52,0,0,1,1.56-5A5.72,5.72,0,0,1,349.79,261.7Z"/><path class="cls-1" d="M363.58,308.18a2.33,2.33,0,0,1-.21-.45c-.13-.3-.33-.74-.54-1.32-.45-1.15-1-2.85-1.61-5s-1.19-4.7-1.75-7.57-1.14-6-1.77-9.34-1.38-6.43-2.22-9.22a52.18,52.18,0,0,0-2.74-7.23,38.75,38.75,0,0,0-2.53-4.56c-.33-.53-.62-.91-.79-1.18a3,3,0,0,1-.27-.43,3.63,3.63,0,0,1,.32.39c.2.26.51.63.85,1.14A33.48,33.48,0,0,1,353,268a49.59,49.59,0,0,1,2.82,7.25c.86,2.8,1.6,5.94,2.26,9.25s1.2,6.47,1.74,9.34,1.11,5.44,1.67,7.57,1.1,3.84,1.51,5c.19.59.37,1,.47,1.34A2.89,2.89,0,0,1,363.58,308.18Z"/><path class="cls-1" d="M346.47,277.59c0,.09-.49.3-1.14.45s-1.2.21-1.22.12.49-.29,1.14-.45S346.45,277.5,346.47,277.59Z"/><path class="cls-1" d="M345.48,271.18a4.5,4.5,0,0,1-1.59.17,4.69,4.69,0,0,1-1.59,0,3.1,3.1,0,0,1,1.58-.3A3.29,3.29,0,0,1,345.48,271.18Z"/><path class="cls-1" d="M346.53,265.33c-.06.07-.57-.26-1.13-.74s-1-.93-.92-1,.57.25,1.14.74S346.6,265.26,346.53,265.33Z"/><path class="cls-1" d="M349.4,259.91c.09,0,.07.48.05,1s0,1-.11,1-.25-.45-.23-1S349.31,259.89,349.4,259.91Z"/><path class="cls-1" d="M355.25,262.46c.08.06-.15.52-.51,1s-.72.89-.8.83.15-.51.52-1S355.17,262.41,355.25,262.46Z"/><path class="cls-1" d="M359.05,269.06c0,.09-.45.37-1.09.63s-1.18.4-1.21.31.45-.37,1.08-.63S359,269,359.05,269.06Z"/><path class="cls-1" d="M361.35,275.85a2.85,2.85,0,0,1-1.49.65,2.9,2.9,0,0,1-1.62.06,6.25,6.25,0,0,1,1.55-.4A6.09,6.09,0,0,1,361.35,275.85Z"/><path class="cls-1" d="M350.77,273.92c-.09,0,0-.49.15-1s.39-1,.48-.95,0,.5-.15,1.05S350.87,274,350.77,273.92Z"/><path class="cls-1" d="M352.25,282.44c-.09,0,.1-.66.42-1.41s.66-1.31.75-1.27a3.46,3.46,0,0,1-.43,1.41C352.67,281.91,352.34,282.48,352.25,282.44Z"/><path class="cls-1" d="M348.6,284.78c0,.09-.63-.07-1.35-.3s-1.3-.43-1.28-.53a2.62,2.62,0,0,1,1.39.2C348.09,284.38,348.64,284.69,348.6,284.78Z"/><path class="cls-1" d="M350.71,291.73c.05.07-.35.46-.9.85s-1.05.65-1.1.57.35-.46.9-.85S350.65,291.65,350.71,291.73Z"/><path class="cls-1" d="M352.39,298.65c0,.1-.47.3-1.11.45s-1.17.21-1.19.12.47-.3,1.11-.45S352.37,298.56,352.39,298.65Z"/><path class="cls-1" d="M361.54,281.64c0,.08-.38.42-1,.65s-1.16.26-1.18.17.47-.27,1.06-.49S361.49,281.55,361.54,281.64Z"/><path class="cls-1" d="M362.85,292.42c-.05.08-.55-.07-1.14-.35s-1-.56-1-.65.55.07,1.13.34S362.89,292.33,362.85,292.42Z"/><path class="cls-1" d="M365.15,300.13a3.55,3.55,0,0,1-1.49-.4c-.79-.31-1.41-.63-1.37-.72a3.55,3.55,0,0,1,1.49.4C364.57,299.72,365.19,300,365.15,300.13Z"/><path class="cls-1" d="M352.76,306.17c-.05-.09.57-.5,1.28-1.06s1.26-1.06,1.34-1-.38.68-1.13,1.26A3.11,3.11,0,0,1,352.76,306.17Z"/><path class="cls-1" d="M358.86,302.25c-.1,0-.23-.51-.47-1.11s-.48-1.08-.4-1.13.48.35.73,1S359,302.24,358.86,302.25Z"/><path class="cls-1" d="M357.24,293c-.05.08-.45-.11-.88-.42s-.73-.62-.68-.69.45.11.88.41S357.3,292.9,357.24,293Z"/><path class="cls-1" d="M371.46,278.44c.06.07-.33.45-.86.84s-1,.65-1.06.57.33-.45.86-.84S371.4,278.36,371.46,278.44Z"/><path class="cls-1" d="M373.6,284.29c0,.1-.59.22-1.33.14S371,284.1,371,284a3.82,3.82,0,0,1,1.31.08A4.22,4.22,0,0,1,373.6,284.29Z"/><path class="cls-1" d="M364.39,285.61c0,.09-.53.29-1.25.33s-1.3-.07-1.29-.16.57-.13,1.26-.18S364.37,285.51,364.39,285.61Z"/><path class="cls-1" d="M365.18,280.07c0,.09-.57.11-1.18-.18s-1-.72-.91-.78.49.21,1.05.47S365.2,280,365.18,280.07Z"/><path class="cls-1" d="M374.39,290.58c-.05.08-.62-.19-1.28-.6s-1.16-.82-1.11-.9.63.19,1.29.6S374.44,290.5,374.39,290.58Z"/><rect class="cls-1" x="347.73" y="307.02" width="49.13" height="8.71"/><polygon class="cls-1" points="351.4 314 357.37 340.02 386.66 340.02 393.19 314 351.4 314"/><path class="cls-3" d="M396.83,315.74c0,.09-11.08.17-24.75.17s-24.75-.08-24.75-.17,11.08-.18,24.75-.18S396.83,315.64,396.83,315.74Z"/><path class="cls-1" d="M369.51,285.8c-.08.05-.42-.34-.75-.88s-.54-1-.46-1.05.42.34.75.87S369.59,285.75,369.51,285.8Z"/><path class="cls-1" d="M369.53,292.8c-.09,0,0-.62.26-1.32s.49-1.24.58-1.21,0,.62-.26,1.32S369.62,292.83,369.53,292.8Z"/><path class="cls-1" d="M371.93,300.16c-.09,0-.46-.55-.82-1.31a3.46,3.46,0,0,1-.51-1.47,3.76,3.76,0,0,1,.82,1.32A3.62,3.62,0,0,1,371.93,300.16Z"/><path class="cls-1" d="M366.74,306.08c-.07-.07.22-.52.65-1s.85-.85.92-.79-.22.52-.66,1S366.81,306.14,366.74,306.08Z"/><path class="cls-1" d="M365.65,295.33c0,.1-.49.09-1.06,0s-1-.26-1-.35.49-.09,1,0S365.67,295.24,365.65,295.33Z"/><path class="cls-4" d="M145.74,86.5a54.21,54.21,0,0,1-2.82-9.22,19.53,19.53,0,0,1,.36-9.55c.15-.46,1.47-3.59,2-3.56s-.43,2.92-.24,3.21A16.5,16.5,0,0,1,147.27,77a44.24,44.24,0,0,1-1.53,9.55"/><path class="cls-5" d="M164.48,103.57c-.07-2.27-.12-4.06-.11-4.06s7.77-1.12,7.95-8.86c.09-3.74-.35-11.46-.83-18.44a14.44,14.44,0,0,0-14.23-13.44h-.75c-8.07.38-12.25,7.44-11.65,15.49l1.2,28.22,5.75,6.3a7.29,7.29,0,0,0,12.67-5.2Z"/><path class="cls-6" d="M164.42,99.5a18.69,18.69,0,0,1-10-3.1s2.31,5.94,10,5.33Z"/><path class="cls-4" d="M169.52,78.56a1.1,1.1,0,0,1-1.08,1.1,1.05,1.05,0,0,1-1.12-1,1.1,1.1,0,0,1,1.07-1.11A1.06,1.06,0,0,1,169.52,78.56Z"/><path class="cls-4" d="M169.84,75.4c-.14.14-1-.49-2.16-.5s-2.07.58-2.2.43.08-.33.47-.6a3,3,0,0,1,1.76-.52,2.82,2.82,0,0,1,1.71.58C169.79,75.07,169.91,75.34,169.84,75.4Z"/><path class="cls-4" d="M158.44,78.68a1.11,1.11,0,0,1-1.08,1.1,1.06,1.06,0,0,1-1.13-1,1.1,1.1,0,0,1,1.08-1.1A1.06,1.06,0,0,1,158.44,78.68Z"/><path class="cls-4" d="M158.17,75.75c-.13.14-1-.49-2.16-.5s-2.07.57-2.19.42.08-.32.46-.59a3.07,3.07,0,0,1,1.76-.52,3,3,0,0,1,1.72.57C158.12,75.42,158.24,75.68,158.17,75.75Z"/><path class="cls-4" d="M162.34,84.94a7.49,7.49,0,0,1,1.93-.33c.31,0,.6-.08.65-.29a1.52,1.52,0,0,0-.19-.9c-.28-.74-.57-1.51-.87-2.33a38.68,38.68,0,0,1-2-6.07,40.12,40.12,0,0,1,2.43,5.9q.43,1.23.84,2.34a1.78,1.78,0,0,1,.14,1.2.79.79,0,0,1-.51.44,2.5,2.5,0,0,1-.51.06A7.65,7.65,0,0,1,162.34,84.94Z"/><path class="cls-4" d="M158.5,71.73c-.12.32-1.3.15-2.7.31s-2.53.52-2.72.23c-.08-.14.12-.44.58-.75a4.8,4.8,0,0,1,4.13-.42C158.3,71.32,158.55,71.57,158.5,71.73Z"/><path class="cls-4" d="M169.41,71.39c-.21.27-1,0-2,0s-1.82.2-2-.08,0-.41.4-.67a2.92,2.92,0,0,1,3.25.07C169.38,71,169.5,71.26,169.41,71.39Z"/><path class="cls-5" d="M145.47,80c-.13-.06-5.3-1.64-5.2,3.66s5.41,4.1,5.41,3.94S145.47,80,145.47,80Z"/><path class="cls-6" d="M144,85.62s-.09.07-.24.14a.92.92,0,0,1-.69,0,2.29,2.29,0,0,1-1.1-2,3.11,3.11,0,0,1,.23-1.32,1.11,1.11,0,0,1,.68-.73.47.47,0,0,1,.55.25c.08.14,0,.25.07.26s.12-.09.07-.31a.6.6,0,0,0-.22-.33.67.67,0,0,0-.51-.12,1.29,1.29,0,0,0-1,.84,3.21,3.21,0,0,0-.29,1.48A2.39,2.39,0,0,0,143,86a1,1,0,0,0,.84-.16C144,85.75,144,85.63,144,85.62Z"/><path class="cls-4" d="M167.85,63.53c.84-.5-1.81-3.2-3.94-4.09-3.23-1.35-8.12-2.1-11-1.18-3.5,1.1-6.39,2.94-8.07,6.21a20.87,20.87,0,0,0-2,10.71,6.43,6.43,0,0,0,.84,3.21c.78,1.15,2.22,1.85,2.2,3.46a2.23,2.23,0,0,0,.6,1.6c1,1,2.16,0,2.67-1,1.11-2.11,1.17-4.59,1.2-7a15.71,15.71,0,0,0-.48-5c-.29-.87-.73-1.7-1-2.59a3.18,3.18,0,0,1,.29-2.65,3.94,3.94,0,0,1,.42-.45,5.52,5.52,0,0,1,5.45-1.2c3,1,8.15,2.39,9.45,1.34a8.17,8.17,0,0,0,2.3-2.47Z"/><path class="cls-4" d="M164,88.63c0,.08-.19.28-.63.4a3,3,0,0,1-1.77-.09,3.09,3.09,0,0,1-1.44-1c-.27-.37-.32-.66-.24-.71s.81.68,1.92,1S163.88,88.43,164,88.63Z"/><path class="cls-5" d="M215.36,105.09l-4.42.62-.52-6-.79-5.28L210,85.2l-4.5,5.38a4.16,4.16,0,0,0-.66,1.93l-.46,16.23-.08,6.93,7.87,4.94-.17-8.25,1.83-2C215.63,108.45,215.36,105.09,215.36,105.09Z"/><path class="cls-7" d="M168.79,311.69l-3,15.86s15.12,8.34,14.86,11.32l-30.95-4.64,3.6-24.9Z"/><g class="cls-8"><path d="M168.79,311.69l-3,15.86s15.12,8.34,14.86,11.32l-30.95-4.64,3.6-24.9Z"/></g><path class="cls-1" d="M156.46,324.77a1.28,1.28,0,0,0-1.09,1.32,1.23,1.23,0,0,0,1.29,1.09,1.37,1.37,0,0,0,1.15-1.4,1.27,1.27,0,0,0-1.47-1"/><path class="cls-4" d="M149.74,334.23l.46-2.49,29.5,5.38s1.29.8,1,1.75Z"/><path class="cls-4" d="M166.35,327.47c0,.15-.79.1-1.61.48s-1.3.95-1.43.87.22-.92,1.22-1.36S166.41,327.33,166.35,327.47Z"/><path class="cls-4" d="M169.4,329.3c0,.15-.68.31-1.29.87s-.86,1.22-1,1.19-.12-.9.65-1.59S169.42,329.15,169.4,329.3Z"/><path class="cls-4" d="M170.66,333.46c-.14,0-.24-.78.27-1.55s1.27-1,1.32-.85-.46.51-.87,1.15S170.81,333.47,170.66,333.46Z"/><path class="cls-4" d="M166.63,323.78c-.09.13-.75-.19-1.61-.26s-1.57.1-1.63,0,.66-.58,1.68-.49S166.72,323.67,166.63,323.78Z"/><path class="cls-7" d="M158.68,315.49l-.28,16.12s16.3,5.71,16.54,8.7l-31.3.57-.58-25.15Z"/><path class="cls-1" d="M148.7,330.44a1.27,1.27,0,0,0-.86,1.47,1.23,1.23,0,0,0,1.46.86,1.36,1.36,0,0,0,.9-1.56,1.28,1.28,0,0,0-1.62-.73"/><path class="cls-4" d="M143.64,340.88l0-2.54,30,.4s1.41.58,1.27,1.57Z"/><path class="cls-4" d="M158.9,331.45c0,.15-.76.23-1.5.74s-1.14,1.15-1.28,1.09.07-.94,1-1.54S158.93,331.31,158.9,331.45Z"/><path class="cls-4" d="M162.21,332.74c0,.15-.62.42-1.13,1.08s-.64,1.34-.79,1.34-.27-.87.38-1.67S162.21,332.6,162.21,332.74Z"/><path class="cls-4" d="M164.15,336.64c-.14,0-.37-.73,0-1.57s1.08-1.19,1.15-1.06-.37.58-.66,1.27S164.3,336.62,164.15,336.64Z"/><path class="cls-4" d="M158.56,327.76c-.06.14-.77-.05-1.63,0s-1.53.36-1.61.23.55-.69,1.57-.76S158.63,327.64,158.56,327.76Z"/><path class="cls-4" d="M136.61,190.25l.42,16,4.71,49.54s-1.5,24.13-2.46,37.75c-.82,11.84,1.57,32.34,1.57,32.34l19.91-.52,5.34-68.73,3.31-42.86,6.72-22.41Z"/><path class="cls-4" d="M185.83,193.88l1.26,64.79a27.18,27.18,0,0,1-1.6,9.7L168.39,316l-.85,3.14-12-2.56,5.81-126.36Z"/><path class="cls-9" d="M169.14,205.33a1.43,1.43,0,0,1,0,.31c0,.23,0,.53,0,.91,0,.83,0,2,0,3.51,0,3.05-.09,7.46-.23,12.91-.32,10.89-1,25.92-2.37,42.49s-2.8,31.53-3.91,42.35c-.56,5.4-1,9.77-1.34,12.82-.16,1.49-.29,2.66-.38,3.48,0,.38-.08.68-.11.91a1.77,1.77,0,0,1-.05.3,1.8,1.8,0,0,1,0-.31c0-.22,0-.52.07-.91.08-.82.18-2,.32-3.49.29-3.05.71-7.43,1.22-12.83,1-10.83,2.51-25.8,3.8-42.36s2.09-31.58,2.48-42.47c.18-5.44.3-9.84.35-12.89,0-1.51.06-2.68.08-3.51,0-.38,0-.69,0-.91A1,1,0,0,1,169.14,205.33Z"/><path class="cls-9" d="M151.76,194.35a2.51,2.51,0,0,1-.07.73,11.06,11.06,0,0,1-.51,1.94,12.75,12.75,0,0,1-9.71,8.23,10.46,10.46,0,0,1-2,.18,2.7,2.7,0,0,1-.74-.05c0-.07,1.05,0,2.69-.39a13.2,13.2,0,0,0,9.51-8.06C151.56,195.38,151.69,194.33,151.76,194.35Z"/><path class="cls-9" d="M170.18,196.89a1,1,0,0,1-1,1.05,1,1,0,0,1-1.05-1,1,1,0,1,1,2.05-.05Z"/><path class="cls-9" d="M186.34,204.54a6.29,6.29,0,0,1-1.44-1.28,15.92,15.92,0,0,1-4-8.3,6.3,6.3,0,0,1-.09-1.92c.06,0,.12.73.35,1.88a18.87,18.87,0,0,0,1.45,4.33,19.24,19.24,0,0,0,2.47,3.84C185.85,204,186.38,204.5,186.34,204.54Z"/><polygon class="cls-9" points="118.71 222.67 155.89 208.47 168.73 237.55 129.43 251.25 118.71 222.67"/><path class="cls-5" d="M146,223.6c-1.48-1.35-3.43-3.2-3.45-3.54s-.53-2.59-1-4.56a1.86,1.86,0,0,1,2.09-2.34l2.52-1a16.33,16.33,0,0,0-2.29-3.44,25.66,25.66,0,0,0-4.59-3l-.38-4.39-10.06,2,1.46,10.1s2.49,9.48,3.61,10.39,4.26,1.34,4.26,1.34c1.25,1.45,3.8.83,3.8.83,2.87,1.66,2.7-.42,2.7-.42a.62.62,0,0,0,.29.15A1.26,1.26,0,0,0,146,223.6Z"/><path class="cls-6" d="M138.66,216.58a5.46,5.46,0,0,0,0,1.73,9,9,0,0,0,1.24,4,8,8,0,0,0,3.19,2.59,5.89,5.89,0,0,0,1.58.63,7.2,7.2,0,0,0-1.42-.9,9.06,9.06,0,0,1-3-2.58,10.31,10.31,0,0,1-1.31-3.77A7.7,7.7,0,0,0,138.66,216.58Z"/><path class="cls-6" d="M136.5,217.73a3.19,3.19,0,0,0-.05,1.58,11.61,11.61,0,0,0,.32,1.68,5.34,5.34,0,0,0,.9,1.93,8.79,8.79,0,0,0,1.57,1.37l1.35,1a5.23,5.23,0,0,0,1.32.8c0-.05-.4-.45-1.13-1.05-.36-.3-.8-.66-1.29-1a10.16,10.16,0,0,1-1.48-1.33,5.4,5.4,0,0,1-.85-1.76c-.18-.6-.31-1.15-.4-1.61C136.57,218.33,136.56,217.74,136.5,217.73Z"/><path class="cls-6" d="M134.11,219.27c-.18,0,.26,1.73.92,3.73a1.81,1.81,0,0,0,.48.71,6,6,0,0,0,.56.48,5.77,5.77,0,0,0,1,.67c.62.33,1.06.41,1.08.35s-.37-.23-.92-.62a9.48,9.48,0,0,1-.93-.72,5.47,5.47,0,0,1-.5-.47,1.41,1.41,0,0,1-.38-.54c-.32-1-.65-1.91-.9-2.56A4.4,4.4,0,0,0,134.11,219.27Z"/><path class="cls-7" d="M172.8,112.13s8.71,4.36,12.13,9.3,9.32,13.88,9.32,13.88l7.87-20.44,11.79,5.24s-6.74,24.41-8,27.08c-1.72,3.7-5.83,7-12.26,6.62s-4.38-.22-8.61-4.17l-5.7-6.66Z"/><g class="cls-8"><path d="M178.21,131.17a64,64,0,0,0,7.3,18.85,45.14,45.14,0,0,1-3.72-4.2l-2.34-2.74c-.38-4-1.24-11.91-1.24-11.91"/></g><path class="cls-4" d="M195.63,144.69a5.57,5.57,0,0,1-.36-1.43c-.17-.89-.37-2.13-.54-3.51s-.27-2.63-.32-3.53a5.48,5.48,0,0,1,0-1.48,47.58,47.58,0,0,1,.68,5A46.41,46.41,0,0,1,195.63,144.69Z"/><path class="cls-7" d="M144.8,103.71l-.43-4.22A1.37,1.37,0,0,1,146,98.14c5,1.07,19.76,4.28,19.94,5,.1.47,0,3.55,0,6.12l-21.13-5.59"/><path class="cls-7" d="M126.82,114.87s-5.22,3.7-6.11,13.69c-.56,6.12-1.32,45.85-1.32,45.85l8.49,33.09,13.54-3.42-4.81-34.87.47-30.27Z"/><path class="cls-4" d="M127.88,207.5l.24-.08.69-.2,2.69-.72,9.88-2.56-.11.16c-1-7-2.37-16.23-3.84-26.35-.35-2.41-.69-4.77-1-7h0v0c.16-9.51.31-17.87.42-23.89.06-3,.12-5.37.16-7.05,0-.8,0-1.44.06-1.9l0-.49c0-.11,0-.17,0-.17s0,.06,0,.17,0,.29,0,.49c0,.46,0,1.1,0,1.9,0,1.68,0,4.08,0,7.05-.07,6-.17,14.39-.28,23.9v0c.33,2.26.67,4.61,1,7,1.44,10.13,2.75,19.39,3.74,26.37l0,.13-.13,0-9.91,2.44-2.71.65-.7.15A.68.68,0,0,1,127.88,207.5Z"/><path class="cls-7" d="M145.67,102.61s-15.59,7.7-18.85,12.26c-4,5.54,7,23.23,7.83,27.62.4,2.1,3,17.95,1.78,30.44a215.75,215.75,0,0,0-.93,25l50.33-4.06c0-8.78-2.27-15.55-3.78-26.7l-3.78-36.36-5.47-18.69L165,108.84Z"/><path class="cls-4" d="M177.35,124.68a1.76,1.76,0,0,1,.08.39q.07.44.18,1.11c.15,1,.34,2.36.57,4.09.45,3.46,1,8.25,1.58,13.54s1,10.1,1.26,13.58c.14,1.74.24,3.15.3,4.12l.06,1.13a2.39,2.39,0,0,1,0,.39s0-.13-.07-.39-.08-.67-.13-1.11c-.11-1-.25-2.42-.42-4.11-.36-3.53-.84-8.3-1.38-13.57s-1.09-10-1.47-13.55c-.18-1.69-.33-3.08-.44-4.1,0-.45-.08-.82-.11-1.12A1.36,1.36,0,0,1,177.35,124.68Z"/><path class="cls-4" d="M139.44,128.38c-.07,0,0-1-.35-2.67a13.12,13.12,0,0,0-7.85-9.58c-1.53-.65-2.56-.8-2.55-.87a2.49,2.49,0,0,1,.73.07,10.7,10.7,0,0,1,1.93.54,12.66,12.66,0,0,1,8,9.79,10.53,10.53,0,0,1,.14,2A2.47,2.47,0,0,1,139.44,128.38Z"/><path class="cls-4" d="M173.3,170.68a4.21,4.21,0,0,1-1-.14,24.29,24.29,0,0,1-2.63-.66,30.92,30.92,0,0,1-3.76-1.41,35.46,35.46,0,0,1-4.31-2.38,34.68,34.68,0,0,1-3.9-3,31.9,31.9,0,0,1-2.8-2.89,21.77,21.77,0,0,1-1.64-2.15,4.28,4.28,0,0,1-.52-.84c.06,0,.86,1.12,2.37,2.81a35.9,35.9,0,0,0,2.83,2.8,37.26,37.26,0,0,0,3.87,2.95,38.73,38.73,0,0,0,4.25,2.38,36,36,0,0,0,3.7,1.48C171.93,170.34,173.32,170.61,173.3,170.68Z"/><g class="cls-8"><path d="M137.08,138.94c-3.24,19.29-1.6,39.67,3.38,58.6l1.29-.11C142.8,177.9,140.87,158.12,137.08,138.94Z"/></g><g class="cls-8"><path d="M159.55,171.88a44.53,44.53,0,0,0,16.62,3.38c-.87,1.3-2.5,1.64-4.06,1.73a12.84,12.84,0,0,1-4.58-.44c-2.86-.88-6.24-2.22-8-4.67"/></g><path class="cls-4" d="M165.78,109.19a3.32,3.32,0,0,1-.86.15,11.67,11.67,0,0,1-2.4,0,29.8,29.8,0,0,1-7.64-2c-2.89-1-5.55-1.9-7.37-2.8a11.21,11.21,0,0,1-2.07-1.21,3.35,3.35,0,0,1-.49-.44q-.16-.16-.15-.18s.25.2.72.5a14.26,14.26,0,0,0,2.1,1.1c1.83.82,4.49,1.63,7.38,2.68a33.87,33.87,0,0,0,7.54,2A28,28,0,0,0,165.78,109.19Z"/><path class="cls-4" d="M147.69,98.55a17,17,0,0,1,0,3,17.69,17.69,0,0,1-.16,3,9.6,9.6,0,0,1-.21-3A9.51,9.51,0,0,1,147.69,98.55Z"/><path class="cls-4" d="M155.09,100.2a20,20,0,0,1,.22,3.5,20.24,20.24,0,0,1,0,3.51,13.69,13.69,0,0,1-.38-3.5A13.82,13.82,0,0,1,155.09,100.2Z"/><path class="cls-4" d="M164,102.42a11.63,11.63,0,0,1,.3,3.45,11,11,0,0,1-.4,3.43,31.66,31.66,0,0,1,0-3.44A27.81,27.81,0,0,1,164,102.42Z"/><g class="cls-8"><path d="M145.58,103.28c1.09,1.63,2.78,2.44,4.53,3.32a33.79,33.79,0,0,0,7.14,2.85,13.42,13.42,0,0,0,7.59-.19,29.56,29.56,0,0,1-9.72-2.22c-3.12-1.18-6.44-2.54-9.5-3.75"/></g><path class="cls-10" d="M279,43.53a48,48,0,1,0,48,48A48,48,0,0,0,279,43.53Zm-22.74,65.75a3.24,3.24,0,0,1-2.55-5.26l33.54-42.18a3.24,3.24,0,0,1,5.08,4l-33.53,42.19A3.22,3.22,0,0,1,256.29,109.28Zm50.14-29.34-33.54,42.18a3.25,3.25,0,1,1-5.08-4L301.34,75.9a3.25,3.25,0,1,1,5.09,4Z"/><path class="cls-11" d="M376.3,173.16l-.72-.73L358.06,190l.42.42,4.65,4.64c3,3,9.31,1.48,14.16-3.36s6.34-11.18,3.36-14.15l-4.34-4.34Z"/><polygon class="cls-12" points="371.29 168.22 353.77 185.73 358.06 189.95 375.58 172.43 375.08 171.93 375.06 171.94 371.29 168.22"/><path class="cls-11" d="M278.09,23.26A68.28,68.28,0,1,0,315.88,148.4l37.89,37.33,17.52-17.51-37.64-37.08A68.2,68.2,0,0,0,278.09,23.26ZM279,139.55a48,48,0,1,1,48-48A48,48,0,0,1,279,139.55Z"/><g class="cls-13"><path class="cls-10" d="M105,49.85a6.44,6.44,0,1,0,6.44,6.44A6.43,6.43,0,0,0,105,49.85Z"/><path class="cls-11" d="M118,67.23l-.1-.1-2.35,2.35.06.06.62.62c.4.4,1.25.2,1.9-.45s.85-1.5.45-1.9l-.58-.58Z"/><polygon class="cls-14" points="117.37 66.57 115.02 68.92 115.59 69.48 117.94 67.13 117.87 67.07 117.87 67.07 117.37 66.57"/><path class="cls-11" d="M104.87,47.13a9.16,9.16,0,1,0,5.07,16.78l5.08,5,2.35-2.35-5.05-5a9.15,9.15,0,0,0-7.45-14.47ZM105,62.72a6.44,6.44,0,1,1,6.44-6.43A6.43,6.43,0,0,1,105,62.72Z"/></g><g class="cls-13"><path class="cls-10" d="M393.32,126.42a7.6,7.6,0,1,1-5.06,9.48A7.6,7.6,0,0,1,393.32,126.42Z"/><path class="cls-11" d="M384.55,150.54l.07-.14,3.47,1.84,0,.09-.49.91c-.31.59-1.34.66-2.3.15s-1.48-1.41-1.16-2l.46-.86Z"/><polygon class="cls-14" points="385.08 149.56 388.54 151.41 388.08 152.24 384.62 150.4 384.68 150.3 384.68 150.3 385.08 149.56"/><path class="cls-11" d="M392.53,123.3a10.82,10.82,0,1,1,0,20.71l-4,7.4-3.46-1.85,4-7.35a10.8,10.8,0,0,1,3.45-18.91ZM397.74,141a7.6,7.6,0,1,0-9.48-5.07A7.61,7.61,0,0,0,397.74,141Z"/></g><path class="cls-5" d="M205.74,97.89a33.13,33.13,0,0,1,3.55-5.09,4.68,4.68,0,0,1,1.51-1.33,1.8,1.8,0,0,1,1.91.14,1.89,1.89,0,0,1,.32,2.13,7,7,0,0,1-1.38,1.84,3.75,3.75,0,0,0-1.07,2A6.24,6.24,0,0,0,211,99.7a7,7,0,0,1-1.81,6.51"/><path class="cls-6" d="M209.15,106.21s.24-.29.61-.84a7.19,7.19,0,0,0,1.09-2.54,6.49,6.49,0,0,0,.13-1.9,9,9,0,0,0-.46-2.15,3.32,3.32,0,0,1-.12-1.27,3,3,0,0,1,.48-1.25c.48-.76,1.19-1.34,1.68-2.06A2.6,2.6,0,0,0,213,93a1.62,1.62,0,0,0-.26-1.11,1.59,1.59,0,0,0-2-.22,6.56,6.56,0,0,0-1.57,1.49c-.45.54-.85,1-1.21,1.53-.71,1-1.25,1.75-1.62,2.31a5.78,5.78,0,0,1-.59.85,5.33,5.33,0,0,1,.46-.93,25.89,25.89,0,0,1,1.53-2.4c.34-.49.74-1,1.18-1.56a6.31,6.31,0,0,1,1.65-1.6,2.24,2.24,0,0,1,1.26-.32,1.65,1.65,0,0,1,1.24.62,2.37,2.37,0,0,1-.18,2.71c-.53.79-1.23,1.36-1.68,2.06a2.7,2.7,0,0,0-.43,1.08,3.16,3.16,0,0,0,.1,1.14,9.29,9.29,0,0,1,.44,2.22,7,7,0,0,1-1.42,4.56,4.49,4.49,0,0,1-.53.57C209.23,106.16,209.16,106.22,209.15,106.21Z"/><path class="cls-7" d="M325.62,171.06c-1,.57-10.53.68-10.53.68l.38,7.63,18.88,1.85Z"/><path class="cls-4" d="M274.78,165.1a3.18,3.18,0,0,0-.65,1.49c0,.6,16.54,12.73,19.94,15.21a2.32,2.32,0,0,0,1.35.44l22.73,0,.12-1.81s-20.76-14.76-21.15-14.72S274.78,165.1,274.78,165.1Z"/><path class="cls-2" d="M297.08,166.48c-.31,0-20.07-.27-20.07-.27s15,11.28,17.65,13.21a1.8,1.8,0,0,0,1,.34l21,.4Z"/><path class="cls-15" d="M315.13,172.85h-1.59s-5.76-4.24-6.36-4.37c-.26-.06-4.7-.66-4.7-.66l-5,1.92s-.27,1.12,1.72,1.32a9.83,9.83,0,0,0,4.28-.85s4.44,4.38,6.32,5.43,5.54,2.7,5.54,2.7Z"/><g class="cls-8"><path d="M325.62,171.06c-1,.57-10.53.68-10.53.68l.38,7.63,18.88,1.85Z"/></g><path class="cls-7" d="M344.22,269.69l9.08,22L326,303.11c-.94-2.68,11-13.83,11-13.83l-6.39-13.84Z"/><g class="cls-16"><path class="cls-17" d="M345,284.57a1.2,1.2,0,0,1,1.3.95,1.17,1.17,0,0,1-.93,1.3,1.27,1.27,0,0,1-1.37-1c0-.59.52-1.3,1.11-1.24"/></g><path class="cls-17" d="M353.3,291.68l-.92-2.22L326.5,301.27s-1,1-.49,1.84Z"/><path class="cls-4" d="M336.5,289.33c.06.13.75-.09,1.59.07s1.42.57,1.52.46-.42-.79-1.44-1S336.42,289.22,336.5,289.33Z"/><path class="cls-4" d="M334.13,291.71c0,.15.7.13,1.39.5s1.07.92,1.2.86-.1-.85-1-1.3S334.08,291.59,334.13,291.71Z"/><path class="cls-4" d="M333.94,295.82c.14,0,0-.77-.6-1.35s-1.4-.62-1.41-.48.54.36,1.07.85S333.81,295.86,333.94,295.82Z"/><path class="cls-4" d="M335.39,286c.11.1.65-.34,1.42-.6s1.46-.28,1.48-.42-.74-.38-1.65-.06S335.29,285.94,335.39,286Z"/><path class="cls-4" d="M334.69,282.5c0,.06.58-.08,1.36-.58a6.46,6.46,0,0,0,1.25-1,7.65,7.65,0,0,0,.61-.75,1.86,1.86,0,0,0,.28-.49.64.64,0,0,0-.24-.74.79.79,0,0,0-.71-.06,2,2,0,0,0-.48.29,5.14,5.14,0,0,0-.73.64,5.29,5.29,0,0,0-.91,1.36,2.43,2.43,0,0,0-.34,1.45c.07,0,.21-.53.65-1.29a6.16,6.16,0,0,1,.93-1.19,4.77,4.77,0,0,1,.68-.57c.26-.2.51-.31.64-.21s.05.06,0,.17a1.57,1.57,0,0,1-.21.36,5.8,5.8,0,0,1-.55.71,7.64,7.64,0,0,1-1.1,1.06A11.7,11.7,0,0,0,334.69,282.5Z"/><path class="cls-4" d="M334.94,282.62a2.33,2.33,0,0,0-.19-1.47,5,5,0,0,0-.81-1.42,4.53,4.53,0,0,0-.7-.68,1.22,1.22,0,0,0-1.16-.33.71.71,0,0,0-.41.62,1.86,1.86,0,0,0,.07.56,3.3,3.3,0,0,0,.38.92A3.36,3.36,0,0,0,333.3,282c.83.49,1.45.41,1.44.36a12.14,12.14,0,0,1-1.25-.66,3.42,3.42,0,0,1-1-1.1,2.94,2.94,0,0,1-.3-.8c-.08-.31-.07-.59,0-.6a.85.85,0,0,1,.67.24,5.37,5.37,0,0,1,.65.6,5.55,5.55,0,0,1,.83,1.26C334.79,282.07,334.86,282.63,334.94,282.62Z"/><path class="cls-7" d="M313.92,278.63l8,22.4L294.1,311.12c-.8-2.72,11.66-13.28,11.66-13.28l-5.71-14.14Z"/><g class="cls-16"><path class="cls-17" d="M313.92,293.52a1.22,1.22,0,0,1,1.26,1,1.15,1.15,0,0,1-1,1.25,1.27,1.27,0,0,1-1.33-1.07c0-.6.59-1.28,1.18-1.19"/></g><path class="cls-17" d="M321.92,301l-.81-2.26-26.42,10.54s-1,1-.59,1.81Z"/><path class="cls-4" d="M305.25,297.87c.06.13.76-.05,1.59.14s1.39.64,1.49.54-.38-.81-1.38-1S305.18,297.75,305.25,297.87Z"/><path class="cls-4" d="M302.77,300.13c0,.14.69.16,1.36.57s1,1,1.16.91-.06-.85-.9-1.34S302.73,300,302.77,300.13Z"/><path class="cls-4" d="M302.38,304.22c.14,0,.08-.76-.54-1.38s-1.36-.68-1.38-.54.53.38,1,.9S302.24,304.26,302.38,304.22Z"/><path class="cls-4" d="M304.31,294.5c.1.1.66-.31,1.44-.54s1.48-.2,1.51-.34-.73-.42-1.65-.14S304.2,294.42,304.31,294.5Z"/><path class="cls-4" d="M303.78,291a2.86,2.86,0,0,0,1.39-.51,6.47,6.47,0,0,0,1.29-1,7.51,7.51,0,0,0,.65-.71,1.8,1.8,0,0,0,.3-.48.64.64,0,0,0-.2-.75.8.8,0,0,0-.71-.09,1.42,1.42,0,0,0-.49.26,4.23,4.23,0,0,0-.76.61,5,5,0,0,0-1,1.31,2.43,2.43,0,0,0-.41,1.43c.08,0,.24-.52.71-1.25a5.91,5.91,0,0,1,1-1.15,6.61,6.61,0,0,1,.71-.54c.27-.18.52-.28.64-.17s.06.06,0,.16a1.84,1.84,0,0,1-.22.36c-.19.24-.39.47-.59.68a7.8,7.8,0,0,1-1.16,1A10.5,10.5,0,0,0,303.78,291Z"/><path class="cls-4" d="M304,291.09a2.32,2.32,0,0,0-.12-1.48,4.79,4.79,0,0,0-.74-1.46,5.45,5.45,0,0,0-.66-.71,1.22,1.22,0,0,0-1.15-.38.7.7,0,0,0-.44.6,2,2,0,0,0,0,.56,3.18,3.18,0,0,0,.33.94,3.52,3.52,0,0,0,1.12,1.22c.81.52,1.43.48,1.43.43a10,10,0,0,1-1.22-.72,3.29,3.29,0,0,1-.91-1.15,3,3,0,0,1-.27-.81c-.06-.31,0-.59.08-.6a.85.85,0,0,1,.66.28,5.15,5.15,0,0,1,.61.63,5.34,5.34,0,0,1,.78,1.29C303.9,290.53,303.94,291.1,304,291.09Z"/><path class="cls-4" d="M325.07,87.85a4.56,4.56,0,0,0-1.22,3.89c.11,1.41.54,2.78.57,4.19.05,2.74-1.38,5.34-1.33,8.07s1.59,5.27,1.85,8c.24,2.58,3.24,4.52,2.6,7s-4.91,5.92-3.65,8.19a2.17,2.17,0,0,0,1,1,2.6,2.6,0,0,0,1.41,0l6.53-1.23a4.21,4.21,0,0,0,2.24-.9,3.93,3.93,0,0,0,.91-2.5c.54-5.49-.74-11-1.44-16.42A77.82,77.82,0,0,1,334.51,88"/><path class="cls-15" d="M334,124.76Z"/><path class="cls-15" d="M325.6,94.84a12.69,12.69,0,0,1,11.93-12.55,12.32,12.32,0,0,1,13.06,12l-.3,27.77a2.33,2.33,0,0,1-.53,1.47,11.31,11.31,0,0,1-7.51,4.09,11.83,11.83,0,0,1-7.18-2,2.37,2.37,0,0,1-1.06-2.11l.33-6.2a0,0,0,0,0,0,0,8.42,8.42,0,0,1-1.74-.17c-1.61-.52-5.67-2.41-6.63-8.64A123.81,123.81,0,0,1,325.6,94.84Z"/><path class="cls-4" d="M334.06,104.52a7.49,7.49,0,0,0-1.78-.32c-.28,0-.55-.08-.59-.27a1.31,1.31,0,0,1,.19-.81l.84-2.1a35.24,35.24,0,0,0,1.89-5.48,36.15,36.15,0,0,0-2.33,5.32c-.28.74-.55,1.44-.81,2.11a1.56,1.56,0,0,0-.15,1.08.7.7,0,0,0,.46.4,2.23,2.23,0,0,0,.47.07A7.24,7.24,0,0,0,334.06,104.52Z"/><path class="cls-4" d="M327.3,99.57a1,1,0,0,0,1,1,1,1,0,0,0,1.06-.91,1,1,0,0,0-1-1A1,1,0,0,0,327.3,99.57Z"/><path class="cls-4" d="M327.56,97.11c.11.17.95-.46,2.05-.38s1.83.81,2,.65,0-.36-.35-.69a2.36,2.36,0,0,0-1.56-.72,2.4,2.4,0,0,0-1.64.5C327.65,96.75,327.51,97,327.56,97.11Z"/><path class="cls-4" d="M337.68,99.69a1,1,0,0,0,1,1,1,1,0,0,0,1.06-.9,1,1,0,0,0-1-1A1,1,0,0,0,337.68,99.69Z"/><path class="cls-4" d="M338.08,97.5c.15.15.95-.6,2.13-.67s2.08.54,2.2.37-.09-.36-.48-.64a2.78,2.78,0,0,0-1.77-.5,2.85,2.85,0,0,0-1.69.73C338.13,97.13,338,97.43,338.08,97.5Z"/><path class="cls-18" d="M334.34,117.27s4.23.34,9.54-2.78c0,0-1.7,5.5-9.65,4.76Z"/><path class="cls-18" d="M334.51,107.12a2,2,0,0,1,1.77-.72,1.77,1.77,0,0,1,1.24.65,1.1,1.1,0,0,1,.08,1.29,1.35,1.35,0,0,1-1.44.36,4.12,4.12,0,0,1-1.39-.83,1,1,0,0,1-.31-.32.35.35,0,0,1,0-.4"/><path class="cls-4" d="M337.28,105.27c-.18,0-.19,1.16-1.21,2s-2.29.7-2.3.86.28.23.82.24a3.05,3.05,0,0,0,1.92-.65,2.6,2.6,0,0,0,.94-1.67C337.49,105.55,337.36,105.26,337.28,105.27Z"/><path class="cls-4" d="M337.68,93.67c.1.3,1.2.18,2.49.35s2.31.53,2.49.27-.1-.4-.51-.69a4.25,4.25,0,0,0-1.84-.67,4.29,4.29,0,0,0-1.95.2C337.88,93.31,337.64,93.54,337.68,93.67Z"/><path class="cls-4" d="M327.67,93.65c.21.23.95-.07,1.86-.13s1.68.06,1.84-.21-.06-.36-.41-.58a2.76,2.76,0,0,0-3,.28C327.67,93.28,327.58,93.53,327.67,93.65Z"/><path class="cls-4" d="M336.66,80.83a3.69,3.69,0,0,1,2.93-1.39c4.89-.4,10.1,2.9,12.52,7.17s2.15,10.36-.16,14.7l-1.83.19c-3.77-.49-9.4-11.48-14.29-17.68C335.22,83.05,336.1,81.64,336.66,80.83Z"/><path class="cls-4" d="M327.16,83.36c2.19-2.16,5.68-4.74,9.77-2.84.54,1.22-.82,2.66-1.92,3.48-1.62,1.2-3,2-4.08,2.85C328.77,88.6,326,91.56,325.6,95c0,.21-.2.23-.41.18s-.84-1.52-1-3.43A9.09,9.09,0,0,1,327.16,83.36Z"/><path class="cls-15" d="M349.07,99.21c.11,0,4.71-1.51,4.67,3.22S349,106.13,349,106,349.07,99.21,349.07,99.21Z"/><path class="cls-18" d="M350.41,104.22s.08.06.22.12a.78.78,0,0,0,.61,0,2,2,0,0,0,1-1.82,2.79,2.79,0,0,0-.22-1.18,1,1,0,0,0-.62-.64.4.4,0,0,0-.48.23c-.07.13,0,.22-.07.23s-.1-.08-.06-.28a.54.54,0,0,1,.19-.29.64.64,0,0,1,.46-.12,1.16,1.16,0,0,1,.85.75,2.67,2.67,0,0,1,.27,1.32,2.12,2.12,0,0,1-1.22,2,.87.87,0,0,1-.75-.13C350.42,104.33,350.39,104.23,350.41,104.22Z"/><path class="cls-15" d="M291.35,122.59l-7,3.59-2.79-4.68a23.09,23.09,0,0,1-3.66-2.63l-2.47-2.81a2.56,2.56,0,0,1-.63-2.24.83.83,0,0,1,.22-.44l.69-1.21s-.38-1.72-.49-2.81a8.94,8.94,0,0,1,.81-3.08l-2.59-5.56a1.41,1.41,0,0,1,.21-1.57.6.6,0,0,1,.86-.12c.88.59,3.46,5.09,3.46,5.09l1,.93,1.23.19s-.37-1.73.38-2.12l3.54,2.56,2.92,4.09s.58,5.92,1.36,7.49S291.35,122.59,291.35,122.59Z"/><path class="cls-18" d="M278,110.66a9.49,9.49,0,0,1-1.93-4.4c.07,0,.36,1,.89,2.23S278.05,110.62,278,110.66Z"/><path class="cls-18" d="M276.32,113.48c-.07,0-.36-.51-.56-1.21a4,4,0,0,1-.25-1.32,4.23,4.23,0,0,1,.47,1.25A8.86,8.86,0,0,1,276.32,113.48Z"/><path class="cls-18" d="M277.43,103.1s.32.43.81,1.12,1.2,1.64,2,2.67c.4.51.79,1,1.15,1.42a4.32,4.32,0,0,0,1.07,1,2.17,2.17,0,0,0,1.28.34s-.12.07-.37.08a2,2,0,0,1-1-.28,4.39,4.39,0,0,1-1.15-1c-.37-.43-.76-.91-1.17-1.42-.81-1-1.49-2-2-2.72A6,6,0,0,1,277.43,103.1Z"/><path class="cls-18" d="M282.93,109.22s-.1-.34-.32-.84a4.76,4.76,0,0,0-1.24-1.73,6.45,6.45,0,0,1-.9-.82,1.83,1.83,0,0,1-.38-1,2,2,0,0,1,.05-.92s0,.36.11.9a1.72,1.72,0,0,0,.38.83,8,8,0,0,0,.89.79,4.39,4.39,0,0,1,1.24,1.84A1.92,1.92,0,0,1,282.93,109.22Z"/><path class="cls-7" d="M359.38,177.28V165s1.32-19.13,1.32-25-6.95-19-6.95-19l-11.38.34-8.38.19c-.09,0-13.85,13.33-13.85,13.33a39.18,39.18,0,0,0-2.34,17.25,32.41,32.41,0,0,0,1,4.8l3,11.58s1.66,7.71,2.23,10.39c.45,2.11,23.85,1.1,34,.91C360.42,179.73,359.38,177.28,359.38,177.28Z"/><path class="cls-7" d="M289.55,117.3s14.6,20.88,15.1,20.88,17.58-12,17.58-12,7.47-5.54,12-4.53-1.27,21-1.27,21-23.39,13.3-31.27,14-18-30.84-18-30.84l-1.35-1.8Z"/><path class="cls-4" d="M330.33,144a3.44,3.44,0,0,1-.38.24l-1.11.62L324.73,147l-2.85,1.52c-.51.27-1,.57-1.6.83a9.28,9.28,0,0,0-1.65.87,1.75,1.75,0,0,0-.78,1.58,10.56,10.56,0,0,0,.29,2c.28,1.38.72,2.77,1.05,4.26,1.23,5.89,2.73,11.14,3.67,15,.47,1.92.83,3.48,1.06,4.56.1.51.18.92.24,1.25a1.21,1.21,0,0,1,.06.44,3.69,3.69,0,0,1-.13-.43c-.08-.32-.19-.73-.31-1.23l-1.18-4.52c-1-3.82-2.54-9.06-3.77-15-.32-1.46-.76-2.87-1.05-4.27a10.71,10.71,0,0,1-.28-2.1,2.13,2.13,0,0,1,.22-1.07,2.4,2.4,0,0,1,.7-.78l6.19-3.18,4.17-2.12,1.14-.56A2.1,2.1,0,0,1,330.33,144Z"/><path class="cls-4" d="M304.12,145.89a9,9,0,0,1-.42-3.93,9.24,9.24,0,0,1,.93-3.84c.11,0-.43,1.72-.56,3.87S304.23,145.87,304.12,145.89Z"/><path class="cls-4" d="M300.88,144.69a7.32,7.32,0,0,1,1.18-3.67,7.89,7.89,0,0,1,2.59-2.84,34.67,34.67,0,0,0-2.28,3A26.07,26.07,0,0,0,300.88,144.69Z"/><path class="cls-4" d="M334.69,138.48c-.07,0,.15-.87.27-2.26a17.16,17.16,0,0,0-.43-5.43,17,17,0,0,0-2.15-5c-.76-1.18-1.35-1.83-1.3-1.88a2.18,2.18,0,0,1,.46.42,11.62,11.62,0,0,1,1.06,1.31,15.54,15.54,0,0,1,2.29,5.06,15.38,15.38,0,0,1,.33,5.54,10.22,10.22,0,0,1-.33,1.66A2.29,2.29,0,0,1,334.69,138.48Z"/><g class="cls-8"><path d="M357.28,129.07a7.06,7.06,0,0,1-1.36-3.74l-14.27,3.2a4.43,4.43,0,0,0,1.15,4.54,12.76,12.76,0,0,0,4.17,2.6c1.86.83,3.87,1.67,5.86,1.28a8.43,8.43,0,0,0,3.63-2,4.81,4.81,0,0,0,1.66-2.06A4.87,4.87,0,0,0,357.28,129.07Z"/></g><g class="cls-8"><path d="M318.65,149.94l-.52.6a12.32,12.32,0,0,0,14.56-8.87C327.94,145.13,324.11,147.79,318.65,149.94Z"/></g><g class="cls-8"><path d="M304.65,138.18c-2.94,1.12-5.86,4.24-6.18,7.37a1.71,1.71,0,0,0,.07.87.7.7,0,0,0,.67.47c.44,0,.63-.56.75-1a19.24,19.24,0,0,1,4.69-7.72Z"/></g><path class="cls-4" d="M365.18,124a7.36,7.36,0,0,1-3.55-7.49,38.27,38.27,0,0,1,1.77-4.94c.54-1.67.62-3.69-.56-5a17.3,17.3,0,0,0-2.61-1.81,6.68,6.68,0,0,1-2.24-3.58c-.07-1.36,0-2.76,0-4.12a17.23,17.23,0,0,0-14.28-16.28l-7.44,2.69a19.08,19.08,0,0,0,4.24,9.2,42.12,42.12,0,0,1,3.31,3.9,5.65,5.65,0,0,1,.89,4.86c-.51,1.41-1.81,2.44-2.3,3.87-1,2.8,1.5,5.78,1,8.72a6.13,6.13,0,0,1-1,2.41,12.94,12.94,0,0,1-1.92.6,14,14,0,0,0-3.82,1.28,3.8,3.8,0,0,0-2,3.27,61.23,61.23,0,0,1,9.48,0c-2.14,2.83-3.76,8-3.13,8.63.83.83,6.79,2.25,8,2.35,4.93.37,3.91-2.91,8.82-3.53a2.54,2.54,0,0,0,1.47-.51,2.44,2.44,0,0,0,.47-2.13c-.17-1.41-.55-2.82-.83-4.22A7.59,7.59,0,0,0,365.18,124Z"/><path class="cls-9" d="M343,128.45a.64.64,0,0,1,0-.12c0-.09-.05-.21-.07-.37a4.22,4.22,0,0,1,.08-1.45,7.32,7.32,0,0,1,.88-2.11,24.64,24.64,0,0,1,1.73-2.47,11,11,0,0,0,1.75-3.13,4.32,4.32,0,0,0,.17-1.93,5,5,0,0,0-.78-1.92c-.39-.61-.85-1.22-1.24-1.9a4.19,4.19,0,0,1-.64-2.34,5.6,5.6,0,0,1,.73-2.39c.4-.75.86-1.45,1.26-2.19a6.43,6.43,0,0,0,.8-4.66,11.35,11.35,0,0,0-1.76-4.17c-.8-1.22-1.7-2.29-2.52-3.32a31.54,31.54,0,0,1-2.17-3,10.57,10.57,0,0,1-1.72-5,7.43,7.43,0,0,1,.1-1.44,2.44,2.44,0,0,1,.13-.49,10.43,10.43,0,0,0-.08,1.92,10.65,10.65,0,0,0,1.79,4.85,31.12,31.12,0,0,0,2.19,2.9,41.72,41.72,0,0,1,2.57,3.32A11.74,11.74,0,0,1,348,101.4a6.88,6.88,0,0,1-.83,4.91c-.82,1.49-1.89,2.86-2,4.42a3.92,3.92,0,0,0,.59,2.15c.37.65.82,1.26,1.22,1.89a5.25,5.25,0,0,1,.81,2,4.6,4.6,0,0,1-.2,2.07,11.18,11.18,0,0,1-1.83,3.2,24.1,24.1,0,0,0-1.76,2.42,7.41,7.41,0,0,0-.92,2A5.53,5.53,0,0,0,343,128.45Z"/><path class="cls-9" d="M324.21,185.65l-3.08-.2c-1.24,1.5-2,3.35-3.28,4.82a12.08,12.08,0,0,1-5.21,3.36,36.21,36.21,0,0,1-6.1,1.4,7,7,0,0,0,.26,1.93,2.36,2.36,0,0,0,1.21,1.46,3.29,3.29,0,0,0,1.79.11,33.59,33.59,0,0,0,9.32-2.6,9.31,9.31,0,0,0,4.2-3.08C324.68,190.79,324.47,188.1,324.21,185.65Z"/><path class="cls-4" d="M305.52,225.24c.54.64,26.11,59,26.11,59s17.31-7.27,16.88-7.91-20.65-52.65-20.65-52.65Z"/><path class="cls-4" d="M358.83,179.67l-34.48-.21-.46,7.61c-1.92,4.36-3.77,6.59-6.33,7.42-10.46,3.4-37.21,12.19-41.08,14.47-4.82,2.83-4.12,10.3-4.69,15.41s28,68.39,28,68.39l19.79-8.45-16.15-51.52-1.14-6.53,54.72-.78s10.42-2.62,10.14-17.09S358.83,179.67,358.83,179.67Z"/><path class="cls-7" d="M350.14,204.82a4.76,4.76,0,0,1,.24,1,16.34,16.34,0,0,1,.21,2.81,17.35,17.35,0,0,1-9.18,15.23,15,15,0,0,1-2.58,1.12,5.23,5.23,0,0,1-1,.26,35.62,35.62,0,0,0,3.46-1.6,17.78,17.78,0,0,0,9-15A32.56,32.56,0,0,0,350.14,204.82Z"/><path class="cls-9" d="M324.49,180.55c-.73-.64-2.82-.38-3.58.22a2.79,2.79,0,0,0-.92,2.63,3.91,3.91,0,0,0,1.57,2.38,2.63,2.63,0,0,0,3,.33,2.34,2.34,0,0,0,.87-1.6,6.53,6.53,0,0,0-.08-1.87,4.28,4.28,0,0,0-.48-1.7,1.43,1.43,0,0,0-1.5-.7"/><path class="cls-9" d="M360.21,179.16a124.88,124.88,0,0,1,5.88,16.63,41.7,41.7,0,0,1,1,17.49c-.73,4-1.73,8.72-5.19,10.9a6.65,6.65,0,0,1-4.29,1.48c-6.44.34-18,.14-24.47-.1-3.11-.11-7.1.3-10.21.19,9.4-8.21,14.93-22,12.85-34.28-.32-1.89-.88-3.92-2.43-5.05-1.38-1-3.21-1.07-4.92-1.17s-2.16.33-3.7.33c-2.36,0-2-5.69-.37-6.12Z"/><path class="cls-4" d="M353.28,204.54a4.24,4.24,0,0,1-.28,1c-.19.62-.52,1.5-1,2.58a47.49,47.49,0,0,1-4.31,8,48.13,48.13,0,0,1-5.77,7c-.83.82-1.52,1.46-2,1.87a4.7,4.7,0,0,1-.8.63,6.38,6.38,0,0,1,.7-.73c.47-.45,1.13-1.12,1.93-2a53.26,53.26,0,0,0,10-15c.48-1.05.84-1.92,1.08-2.52A6.59,6.59,0,0,1,353.28,204.54Z"/><path class="cls-4" d="M356.37,214s-.11.23-.38.6-.66.91-1.19,1.55a35,35,0,0,1-4.54,4.54,36,36,0,0,1-5.29,3.67c-.71.4-1.31.71-1.73.9a2.24,2.24,0,0,1-.66.26s.87-.53,2.26-1.39a43.93,43.93,0,0,0,5.18-3.72,47.69,47.69,0,0,0,4.59-4.43C355.7,214.72,356.33,213.92,356.37,214Z"/><path class="cls-4" d="M363.51,225.57c0,.1-8.67.19-19.36.19s-19.36-.09-19.36-.19,8.67-.18,19.36-.18S363.51,225.47,363.51,225.57Z"/><path class="cls-4" d="M344.73,190.9s-.87-.7-2.36-1.69a24.13,24.13,0,0,0-2.73-1.55,23.93,23.93,0,0,0-7.34-2.19,24.6,24.6,0,0,0-3.13-.19c-1.79,0-2.9.19-2.91.12a2.74,2.74,0,0,1,.77-.17,15.16,15.16,0,0,1,2.13-.21,19.88,19.88,0,0,1,3.18.12,23.29,23.29,0,0,1,3.82.77,25,25,0,0,1,3.63,1.44,20,20,0,0,1,2.72,1.65,14.25,14.25,0,0,1,1.67,1.34C344.56,190.68,344.75,190.88,344.73,190.9Z"/><path class="cls-4" d="M349.82,188.63a7.06,7.06,0,0,1-1.67-.22c-1-.19-2.43-.51-4-.93s-2.89-.87-3.87-1.23a7.94,7.94,0,0,1-1.55-.67,7.74,7.74,0,0,1,1.63.42c1,.29,2.37.7,3.89,1.12s2.91.78,3.91,1A8.14,8.14,0,0,1,349.82,188.63Z"/><path class="cls-4" d="M324.9,185.76a1.9,1.9,0,0,1-1.1-.48,3.56,3.56,0,0,1-.55-5.25c.51-.56,1-.73,1-.69s-.35.29-.77.86a3.55,3.55,0,0,0,.52,4.88C324.5,185.55,324.93,185.7,324.9,185.76Z"/><path class="cls-4" d="M322.87,183.35c0,.1-.6.08-1.23.36s-1,.71-1.11.65.21-.67,1-1S322.9,183.25,322.87,183.35Z"/><path class="cls-4" d="M324.92,185.94s0,.19-.28.39a1.91,1.91,0,0,1-1.26.37,4,4,0,0,1-1.85-.6,3.6,3.6,0,0,1-1.48-1.87,3.34,3.34,0,0,1,.11-2.38,2.88,2.88,0,0,1,1.38-1.38,2.64,2.64,0,0,1,1.29-.25.92.92,0,0,1,.46.12,3.75,3.75,0,0,0-1.63.36,2.68,2.68,0,0,0-1.18,1.29,3,3,0,0,0-.08,2.13,3.32,3.32,0,0,0,1.32,1.69,3.58,3.58,0,0,0,1.68.62,2,2,0,0,0,1.16-.21C324.81,186.07,324.89,185.92,324.92,185.94Z"/><g class="cls-8"><path d="M347.35,193.71v0a5.69,5.69,0,0,0-1.73-2.34c-4.33-3.95-11.16-6.78-16.56-6.06a22.39,22.39,0,0,1,10.88,3.94,38.41,38.41,0,0,1,5.37,5.52A1.18,1.18,0,0,0,347.35,193.71Z"/></g><g class="cls-8"><path d="M356,214.47a40.42,40.42,0,0,1-13.31,10.93c2.91-.53,6.56-1.25,9-3S356.35,217.56,356,214.47Z"/></g><polygon class="cls-9" points="195.94 340.45 200.15 340.38 209.45 258.67 205.3 258.2 195.94 340.45"/><polygon class="cls-9" points="220.63 340.45 224.84 340.38 234.14 258.67 229.99 258.2 220.63 340.45"/><polygon class="cls-9" points="295.05 340.6 290.84 340.54 281.54 259.58 285.69 259.1 295.05 340.6"/><polygon class="cls-9" points="267.9 340.6 263.69 340.54 254.38 259.58 258.53 259.1 267.9 340.6"/><rect class="cls-9" x="202.49" y="263.41" width="84.98" height="8.8" transform="translate(489.97 535.62) rotate(180)"/><polygon class="cls-9" points="257.02 165.24 203.18 165.91 202.5 263.41 264.32 264.25 257.02 165.24"/><path class="cls-7" d="M281.13,203.39c-.28-1.88-5.92-8.11-5.92-8.11s-2.82-11.31-3.66-14.64a10.77,10.77,0,0,0-1.23-2.74A22,22,0,0,0,262.1,170l-7.8-4.38-1.86-4.15-20-3.57-4,4.64s-15.13,5.74-17.11,7.48c-2.44,2.14,4.22,37.83,4.22,37.83s-5.17,21.65-6.26,26.13.48,10.78.48,10.78l10.25-9.8c2.86-3.58,7.94-7.91,12.44-7.85l38.47.17-1.53-10.77,31.1,6.05s5.36-10.44,5.78-10.65S281.13,203.39,281.13,203.39Z"/><path class="cls-17" d="M232.68,163.38c-.27-.27,2.4,8.89,5.46,17.3a41.18,41.18,0,0,1,2.49,14.17v30.44L259.07,224,256.31,204s-2.24-12.93-2.87-17.85c-.58-4.5-2.57-18.21-2.57-18.21S240.41,171.25,232.68,163.38Z"/><path class="cls-4" d="M273.83,211a1.46,1.46,0,0,1,0-.47,7.24,7.24,0,0,1,.25-1.24,8.45,8.45,0,0,1,2.1-3.58,8.32,8.32,0,0,1,3.58-2.11,6.89,6.89,0,0,1,1.24-.25,1.09,1.09,0,0,1,.46,0c0,.06-.64.13-1.63.47a8.88,8.88,0,0,0-5.53,5.54C274,210.31,273.89,211,273.83,211Z"/><path class="cls-4" d="M274.79,203.65a7.42,7.42,0,0,1,5.72-.47c0,.1-1.3-.15-2.88,0S274.82,203.75,274.79,203.65Z"/><g class="cls-8"><path d="M213.61,220.26l-1.6,1.82a12.86,12.86,0,0,0,6.49,4.29,32.71,32.71,0,0,0,7.84.71,11,11,0,0,0,3.18-.3,15,15,0,0,1,3.1-1,8.34,8.34,0,0,1,2.15.31,4.24,4.24,0,0,0,2.15,0,1.72,1.72,0,0,0,1.26-1.59A113.31,113.31,0,0,0,213.61,220.26Z"/></g><path class="cls-15" d="M266.26,222.59l-4.52-4.81-9.31-2.35S243.9,218,243.69,218s-7.42-2-7.42-2l-2.53,9.26,13,.89,14.85-.6s.77-.72.31-1.21,2.48.83,2.83.85,1,.28,1.48-.27A2,2,0,0,0,266.26,222.59Z"/><path class="cls-18" d="M261.91,224.34a7.2,7.2,0,0,1-1.48-.42c-.9-.29-2.15-.67-3.55-1s-2.67-.62-3.6-.81a7.42,7.42,0,0,1-1.5-.35,6.5,6.5,0,0,1,1.54.12,33.92,33.92,0,0,1,3.65.72,30.69,30.69,0,0,1,3.54,1.13A5.91,5.91,0,0,1,261.91,224.34Z"/><path class="cls-18" d="M266.26,222.59a17.62,17.62,0,0,1-2.06-.67c-1.27-.42-3-.95-5-1.5a26.07,26.07,0,0,0-5.05-1.24,11.13,11.13,0,0,0-2.14.08,1.61,1.61,0,0,1,.56-.19,6.23,6.23,0,0,1,1.6-.13,21.84,21.84,0,0,1,5.12,1.16c2,.55,3.74,1.11,5,1.6.62.24,1.13.45,1.47.61A1.91,1.91,0,0,1,266.26,222.59Z"/><path class="cls-7" d="M211.25,170s-3.31,2.17-4.94,8.89-8.71,34.16-7.25,38.27,29.67,8.14,29.67,8.14l3.34-14.11-14.33-3.92s.18-13.07.36-18.49S211.25,170,211.25,170Z"/><polygon class="cls-17" points="231.88 213.28 236.5 214.42 233.72 225.07 229.19 224.34 231.88 213.28"/><path class="cls-4" d="M199,215.7s0,.23.07.66a3.11,3.11,0,0,0,1,1.61c1.23,1.14,3.57,2.09,6.54,2.62h0c1.36.44,2.9.8,4.56,1.17s3.43.75,5.31,1.13c3.75.77,7.91,1.58,12.31,2.4l-.19.13,1-4.1c.79-3.24,1.56-6.37,2.28-9.35l.12.2-12.74-3.64h0a12.57,12.57,0,0,0-5.55-1,12.17,12.17,0,0,0-4.19,1,14.11,14.11,0,0,0-2.41,1.33l-.59.43-.2.14s.06-.07.18-.17.31-.27.56-.46a13.92,13.92,0,0,1,2.4-1.41,12.06,12.06,0,0,1,4.24-1,12.58,12.58,0,0,1,5.66.94h0L232,211.87l.15,0,0,.15c-.73,3-1.49,6.11-2.28,9.35l-1,4.1,0,.15-.15,0c-4.4-.83-8.56-1.65-12.31-2.43q-2.82-.6-5.31-1.17c-1.66-.39-3.19-.75-4.58-1.22h0c-3-.57-5.35-1.56-6.58-2.77a3,3,0,0,1-1-1.67A1.85,1.85,0,0,1,199,215.7Z"/><path class="cls-4" d="M218.51,208.19s-.51-.39-1.38-1a13.05,13.05,0,0,0-3.64-1.7,13.3,13.3,0,0,0-4-.52c-1,0-1.67.13-1.68.08a5.08,5.08,0,0,1,1.67-.32,11.64,11.64,0,0,1,4.09.44,11.51,11.51,0,0,1,3.69,1.83A5.34,5.34,0,0,1,218.51,208.19Z"/><path class="cls-4" d="M220.39,185.2a3.49,3.49,0,0,1,0,.87c0,.55-.06,1.35-.13,2.33-.16,2-.46,4.7-1,7.67a53.48,53.48,0,0,1-1.78,7.53c-.16.47-.32.89-.46,1.26l-.41.92a4.25,4.25,0,0,1-.44.75,4.36,4.36,0,0,1,.32-.8l.36-.94c.12-.37.26-.79.4-1.26A64.79,64.79,0,0,0,219,196c.51-3,.84-5.68,1.06-7.64.1-.93.18-1.71.24-2.32A5.36,5.36,0,0,1,220.39,185.2Z"/><path class="cls-4" d="M236.76,178s-.07-.16-.22-.43a2.76,2.76,0,0,0-1-1,2.57,2.57,0,0,0-3.85,1.56l-.09.42-.2-.39a41.51,41.51,0,0,1-2-4.57A22.52,22.52,0,0,1,228,165.5c0-.53.08-1,.11-1.42s.14-.77.21-1.06a4.79,4.79,0,0,1,.28-.87,19.54,19.54,0,0,0-.36,3.35,23.76,23.76,0,0,0,1.53,8,45.42,45.42,0,0,0,1.92,4.56l-.29,0a2.81,2.81,0,0,1,2-2,2.74,2.74,0,0,1,2.26.36,2.55,2.55,0,0,1,1,1.08,1.31,1.31,0,0,1,.12.35C236.76,177.93,236.77,178,236.76,178Z"/><path class="cls-4" d="M252.41,179.37a5.17,5.17,0,0,1-.14-.76,7.75,7.75,0,0,1-.14-2.16,4.5,4.5,0,0,1,1.55-2.84,3,3,0,0,1,1.86-.67,2.53,2.53,0,0,1,2,.88l-.28.16c-.2-.49-.4-1-.61-1.53-1.2-3-2.27-5.77-3-7.77-.36-1-.65-1.74-.88-2.36a5.45,5.45,0,0,1-.28-.88,5.37,5.37,0,0,1,.4.83c.25.61.58,1.39,1,2.33.81,2,1.91,4.71,3.11,7.73l.61,1.54.39,1-.68-.83a2.2,2.2,0,0,0-1.71-.77,2.67,2.67,0,0,0-1.68.58,4.3,4.3,0,0,0-1.51,2.64,9.41,9.41,0,0,0,0,2.11A3.09,3.09,0,0,1,252.41,179.37Z"/><path class="cls-4" d="M264.32,181c.1,0,1.55,9.75,3.24,21.81s3,21.84,2.91,21.85-1.54-9.75-3.24-21.81S264.23,181,264.32,181Z"/><g class="cls-8"><path d="M229.67,173.27a20.06,20.06,0,0,0,1.6,7.25,5.11,5.11,0,0,1,2.54-2,4,4,0,0,1,3.62,1.5,6.45,6.45,0,0,0-1.16-2.77,3.27,3.27,0,0,0-2.54-1.34,2.24,2.24,0,0,0-2.14,1.75l-1.84-4.32"/></g><path class="cls-4" d="M218.82,180.32c-.06,0,0-.67-.23-1.72a10.57,10.57,0,0,0-1.56-3.82,11.8,11.8,0,0,0-1.47-1.74,10.87,10.87,0,0,0-1.47-1.15c-.9-.57-1.54-.79-1.52-.85a1.3,1.3,0,0,1,.46.12,2.48,2.48,0,0,1,.52.2,4.5,4.5,0,0,1,.66.33,9.45,9.45,0,0,1,1.56,1.12,10.21,10.21,0,0,1,1.54,1.79,9.47,9.47,0,0,1,1.51,4,7.15,7.15,0,0,1,.07,1.29C218.87,180.16,218.85,180.32,218.82,180.32Z"/><path class="cls-15" d="M252.13,131.08a13.75,13.75,0,0,0-15.38-10.56l-.71.1c-7.54,1.54-10.44,8.8-8.7,16.3l5.34,26.46,1,2.76a14,14,0,0,0,17.16,1.78l.17-1.55-1.6-8.53s7.15-2.19,6.18-9.51C255.16,144.79,253.61,137.58,252.13,131.08Z"/><path class="cls-18" d="M249.49,157.82a17.85,17.85,0,0,1-10-1.42s3,4.94,10.21,3.23Z"/><path class="cls-4" d="M251,136.65a1,1,0,0,1-.85,1.2,1,1,0,0,1-1.22-.79,1.07,1.07,0,0,1,.86-1.2A1,1,0,0,1,251,136.65Z"/><path class="cls-4" d="M240,138a1,1,0,0,1-.85,1.19,1,1,0,0,1-1.22-.78,1.06,1.06,0,0,1,.86-1.2A1,1,0,0,1,240,138Z"/><path class="cls-4" d="M239.62,136.23c-.11.16-1-.3-2.17-.13s-1.93.86-2.07.74,0-.31.36-.63a3.14,3.14,0,0,1,1.64-.76,3,3,0,0,1,1.75.28C239.52,135.94,239.68,136.16,239.62,136.23Z"/><path class="cls-4" d="M250.44,134.81c-.12.15-1-.31-2.18-.13s-1.94.86-2.08.74,0-.32.36-.63a3.1,3.1,0,0,1,1.64-.76,2.9,2.9,0,0,1,1.76.27C250.34,134.51,250.49,134.74,250.44,134.81Z"/><path class="cls-4" d="M244.94,144.48a7.2,7.2,0,0,1,1.78-.6c.28-.07.55-.16.57-.37a1.56,1.56,0,0,0-.32-.82l-1.16-2.06a37.08,37.08,0,0,1-2.73-5.44,37.7,37.7,0,0,1,3.16,5.21c.4.72.77,1.42,1.13,2.08a1.61,1.61,0,0,1,.31,1.1.71.71,0,0,1-.41.49,2.26,2.26,0,0,1-.48.14A7.93,7.93,0,0,1,244.94,144.48Z"/><path class="cls-4" d="M239,131.89c-.09.31-1.23.24-2.54.49s-2.37.69-2.57.43.08-.43.5-.76a4.18,4.18,0,0,1,1.86-.8,4.27,4.27,0,0,1,2,.1C238.77,131.51,239,131.74,239,131.89Z"/><path class="cls-4" d="M250.19,130.82c-.21.29-1.21.15-2.38.28s-2.12.45-2.39.21c-.11-.12,0-.39.41-.69a4,4,0,0,1,1.88-.67,3.89,3.89,0,0,1,2,.27C250.11,130.43,250.28,130.68,250.19,130.82Z"/><path class="cls-4" d="M253.5,124.34a1.41,1.41,0,0,0-1.6-1,3,3,0,0,0,.95-.64,1,1,0,0,0,.23-1.06c-.26-.55-1-.58-1.59-.67a3.88,3.88,0,0,1-2.07-1,33.51,33.51,0,0,1-1.91-2.79,4.91,4.91,0,0,0-7.66.06,5.11,5.11,0,0,0-8,2.2,6,6,0,0,0-7.34,7.43l4.9,2.26a2.47,2.47,0,0,1,2.75-2.49c1.43.23,2.5,1.72,3.94,1.66,1.13,0,2-1,3-1.43a5.31,5.31,0,0,1,4,.38,15.48,15.48,0,0,0,3.83,1.4,7.64,7.64,0,0,0,4.59-1.11,5,5,0,0,0,1.6-1.26A2.17,2.17,0,0,0,253.5,124.34Z"/><path class="cls-4" d="M229.94,126.89l20.9-2.59a9.65,9.65,0,0,0-3.58-3.09,16.41,16.41,0,0,0-9.93-2c-3.4.44-9.72,5.59-11.84,8.29a5.38,5.38,0,0,0-1.44,3.78c.08,2.75,2,5.6,3,8.16.51,1.33,1.71,5.38,1.71,5.38h0c1.15-.18,1.44-1.15,1.1-2.26l-.86-4.42a6.8,6.8,0,0,0,.91-8.15C229.58,129.6,228.67,127.84,229.94,126.89Z"/><path class="cls-4" d="M228.67,137.86c-1.5-3.58-2.95-7.43-2.25-11.25l-.63,0-.23.22a2.95,2.95,0,0,0-2.76,4.9,2.54,2.54,0,0,0-2.28,2.51,4.7,4.7,0,0,0,1,2.36,5.65,5.65,0,0,1,1.08,2.33,1.84,1.84,0,0,1-1.17,2.05,2.12,2.12,0,0,0,2.51.87,4.16,4.16,0,0,1-1.23,2c1.48.77,3.31.23,4.71-.67a4,4,0,0,0,1.87-2.19A5.06,5.06,0,0,0,228.67,137.86Z"/><path class="cls-15" d="M228.83,142.22c-.13,0-5.23-.77-4.35,4.21s5.69,3.06,5.67,2.92S228.83,142.22,228.83,142.22Z"/><path class="cls-18" d="M228.74,147.67s-.08.07-.21.17a.89.89,0,0,1-.65.13,2.18,2.18,0,0,1-1.33-1.75,2.93,2.93,0,0,1,0-1.29,1,1,0,0,1,.53-.78.45.45,0,0,1,.55.15c.09.13.08.23.11.24s.09-.11,0-.3a.48.48,0,0,0-.25-.28.61.61,0,0,0-.5,0,1.24,1.24,0,0,0-.77.93,2.89,2.89,0,0,0,0,1.44,2.29,2.29,0,0,0,1.64,1.92,1,1,0,0,0,.77-.27C228.75,147.79,228.76,147.67,228.74,147.67Z"/><path class="cls-9" d="M223.14,138.67s-.16-.17-.16-.57a1.93,1.93,0,0,1,.79-1.41,5.89,5.89,0,0,1,2.23-.83,2.81,2.81,0,0,0,2.14-1.43,4.15,4.15,0,0,0,.09-2.67c-.22-.83-.54-1.57-.72-2.21a3.77,3.77,0,0,1-.22-2.16,9.71,9.71,0,0,0,.48,2.07c.22.62.55,1.34.81,2.2a4.45,4.45,0,0,1-.08,2.94,2.54,2.54,0,0,1-1.07,1.15,5,5,0,0,1-1.35.46,6.1,6.1,0,0,0-2.15.7,1.8,1.8,0,0,0-.79,1.21C223.09,138.47,223.18,138.66,223.14,138.67Z"/><path class="cls-9" d="M221.68,136.63s-.13-.13-.21-.43a2.16,2.16,0,0,1,.1-1.32,2.19,2.19,0,0,1,.51-.78,2.6,2.6,0,0,1,.91-.57,2.8,2.8,0,0,0,.9-.5,1.16,1.16,0,0,0,.27-1c0-.38-.14-.78-.17-1.18a6.34,6.34,0,0,1,0-1.15,5.43,5.43,0,0,1,.51-1.88,1.41,1.41,0,0,1,1-.84c.34,0,.49.1.48.12a2.43,2.43,0,0,0-.45,0,1.29,1.29,0,0,0-.8.81,5.77,5.77,0,0,0-.4,1.78,6.56,6.56,0,0,0,0,1.08c0,.37.15.76.18,1.2a1.52,1.52,0,0,1-.39,1.26,2.84,2.84,0,0,1-1,.57,2.08,2.08,0,0,0-1.3,1.12A2.77,2.77,0,0,0,221.68,136.63Z"/><path class="cls-9" d="M249.43,120a1,1,0,0,1-1,.09,3,3,0,0,1-1-.7,4.1,4.1,0,0,0-1.28-.89,3.51,3.51,0,0,0-3.75.69c-.57.53-1,1.22-1.7,1.83a3.27,3.27,0,0,1-1.19.73,2.71,2.71,0,0,1-1.44,0c-.94-.22-1.72-.69-2.53-.88a6.35,6.35,0,0,0-2.4-.15,6.26,6.26,0,0,0-3.64,1.76,6.81,6.81,0,0,0-1.54,2.31c-.25.62-.32,1-.35,1s0-.1,0-.28a4.83,4.83,0,0,1,.18-.76,6.66,6.66,0,0,1,1.49-2.45,6.39,6.39,0,0,1,3.79-1.91,6.46,6.46,0,0,1,2.54.13c.88.2,1.67.67,2.53.86a2.27,2.27,0,0,0,1.24,0,2.82,2.82,0,0,0,1-.64c.62-.56,1.1-1.25,1.71-1.8a3.64,3.64,0,0,1,2.11-1,3.81,3.81,0,0,1,2,.29,4.31,4.31,0,0,1,1.33,1,2.9,2.9,0,0,0,.94.71A1.44,1.44,0,0,0,249.43,120Z"/><path class="cls-4" d="M242.31,146.12c.16-.06.47,1,1.58,1.47s2.2,0,2.25.19-.19.28-.65.43a2.73,2.73,0,0,1-1.87-.1,2.37,2.37,0,0,1-1.25-1.26C242.2,146.43,242.24,146.13,242.31,146.12Z"/><path class="cls-7" d="M307.71,255.08a9.88,9.88,0,0,0-7.1-2.34l-4.34,13.79c3.18.14,6.36,1.78,9.43.94a6.72,6.72,0,0,0,4.67-5.53A8,8,0,0,0,307.71,255.08Z"/><path class="cls-19" d="M300.69,252.41c0-.11.47-.2,1.31-.19a10.92,10.92,0,0,1,3.56.67,9.67,9.67,0,0,1,4.32,3.36,9,9,0,0,1,1.44,3,7.87,7.87,0,0,1,.11,3.62,7.22,7.22,0,0,1-1.58,3.29,6.74,6.74,0,0,1-2.8,1.94,10,10,0,0,1-5.45.36,17.46,17.46,0,0,1-3.41-1.06c-.76-.33-1.16-.57-1.13-.68s.5-.08,1.32.05,2,.39,3.38.51a9.73,9.73,0,0,0,4.72-.6,5.7,5.7,0,0,0,2.12-1.57,6,6,0,0,0,1.19-2.58,7.08,7.08,0,0,0-1.17-5.39,9.27,9.27,0,0,0-3.54-3.15,15.74,15.74,0,0,0-3.16-1.11C301.13,252.66,300.68,252.53,300.69,252.41Z"/><path class="cls-7" d="M260.48,304.14,251,330.59l32.84,11.91c.95-3.21-13.76-15.67-13.76-15.67l6.74-16.7Z"/><g class="cls-16"><path class="cls-17" d="M260.48,321.72a1.43,1.43,0,0,0-1.48,1.2,1.37,1.37,0,0,0,1.17,1.48,1.49,1.49,0,0,0,1.56-1.27c0-.71-.69-1.51-1.39-1.41"/></g><path class="cls-17" d="M251,330.59l1-2.67,31.2,12.44s1.23,1.17.69,2.14Z"/><path class="cls-4" d="M270.71,326.86c-.06.16-.89-.06-1.86.17s-1.64.75-1.77.63.45-1,1.64-1.21S270.8,326.72,270.71,326.86Z"/><path class="cls-4" d="M273.64,329.53c0,.17-.81.19-1.6.67s-1.21,1.14-1.37,1.08.07-1,1.07-1.59S273.69,329.38,273.64,329.53Z"/><path class="cls-4" d="M274.1,334.36c-.15,0-.09-.9.64-1.63s1.61-.8,1.63-.64-.62.45-1.21,1.06S274.27,334.41,274.1,334.36Z"/><path class="cls-4" d="M271.83,322.88c-.12.12-.78-.37-1.71-.63s-1.74-.24-1.77-.41.85-.49,1.94-.16S272,322.78,271.83,322.88Z"/><path class="cls-4" d="M272.46,318.7a3.22,3.22,0,0,1-1.64-.6,8,8,0,0,1-1.53-1.16,7.77,7.77,0,0,1-.76-.84,2.15,2.15,0,0,1-.36-.57.74.74,0,0,1,.24-.88.93.93,0,0,1,.83-.11,2.32,2.32,0,0,1,.59.31,6.5,6.5,0,0,1,.89.72,5.9,5.9,0,0,1,1.16,1.55,2.91,2.91,0,0,1,.48,1.68c-.09,0-.28-.61-.84-1.47a7,7,0,0,0-1.17-1.36,6.13,6.13,0,0,0-.84-.63c-.31-.22-.61-.33-.75-.21s-.07.07,0,.2a1.9,1.9,0,0,0,.27.41,8.07,8.07,0,0,0,.69.82,9.23,9.23,0,0,0,1.37,1.18C271.89,318.35,272.49,318.61,272.46,318.7Z"/><path class="cls-4" d="M272.17,318.85a2.7,2.7,0,0,1,.14-1.74,5.62,5.62,0,0,1,.88-1.72,6.13,6.13,0,0,1,.78-.85,1.46,1.46,0,0,1,1.35-.45.82.82,0,0,1,.52.71,2.27,2.27,0,0,1,0,.66,3.85,3.85,0,0,1-.4,1.11,4.08,4.08,0,0,1-1.32,1.45c-.95.62-1.69.56-1.68.5s.64-.2,1.43-.84a4,4,0,0,0,1.08-1.36,3.39,3.39,0,0,0,.32-1c.07-.37,0-.7-.1-.71a1,1,0,0,0-.77.33,5.15,5.15,0,0,0-.73.75,5.93,5.93,0,0,0-.91,1.52C272.31,318.2,272.26,318.86,272.17,318.85Z"/><path class="cls-4" d="M228.65,233.5c-5,.12-9.7.82-13.14,4.43-4.55,4.8-10.18,11.62-10.5,16.36-.47,7.08,3.8,9.18,6.91,10.9a8.6,8.6,0,0,0,4.53,1.05L274,265.8l1.8-9.75-37.24-9.18,1.55-14Z"/><path class="cls-4" d="M240.15,232.85l18.11-.83s31.3,1.74,38,7.86,5.84,13.07,3.62,19.74S278,309,278,309a7.41,7.41,0,0,1,.7,5.43,7.18,7.18,0,0,1-5.12,4.87l-17.41-6.4s-2.36-.84-.7-3.06,2.79-2.64,2.79-2.64v-4.45s6.11-11.13,6.67-12.66,6.42-24.17,6.42-24.17l3.9-6.7s-9.42-4.43-17.59-7.64l-19.07-4.7Z"/><path class="cls-9" d="M269.53,312.08a17.09,17.09,0,0,1-1.53-1,20.56,20.56,0,0,0-8.13-3.09,16.09,16.09,0,0,1-1.81-.27,6.79,6.79,0,0,1,1.84,0,17.48,17.48,0,0,1,8.23,3.13A6.77,6.77,0,0,1,269.53,312.08Z"/><path class="cls-9" d="M278.23,309a6.17,6.17,0,0,1-1-1.06c-.59-.69-1.37-1.67-2.19-2.78s-1.52-2.15-2-2.92a5.73,5.73,0,0,1-.72-1.28,6.49,6.49,0,0,1,.91,1.15L275.3,305l2.11,2.83A7.1,7.1,0,0,1,278.23,309Z"/><path class="cls-9" d="M284.61,253.1c0,.05-.64.19-1.65.53a18,18,0,0,0-3.75,1.75A18.28,18.28,0,0,0,276,258c-.75.76-1.16,1.29-1.2,1.25a6,6,0,0,1,1-1.41A14.55,14.55,0,0,1,279,255.1a14.8,14.8,0,0,1,3.86-1.7A5.84,5.84,0,0,1,284.61,253.1Z"/><path class="cls-9" d="M266.8,283.33a1.48,1.48,0,0,1,.07-.37l.27-1.07,1-3.88c.93-3.31,2.18-7.82,3.57-12.79.72-2.49,1.34-4.87,2-7a14.68,14.68,0,0,1,3.28-5,18.19,18.19,0,0,1,3.11-2.56c.4-.26.72-.45.94-.57l.34-.17s-.43.3-1.21.84a20.49,20.49,0,0,0-3,2.63,14.71,14.71,0,0,0-3.16,4.94c-.67,2.12-1.29,4.53-2,7-1.43,5-2.71,9.45-3.66,12.75-.47,1.6-.86,2.91-1.15,3.86-.13.42-.24.77-.32,1A1.76,1.76,0,0,1,266.8,283.33Z"/><path class="cls-9" d="M250.78,250.72c-.1,0-.48-3.38-.85-7.57s-.61-7.58-.52-7.59.47,3.38.85,7.56S250.87,250.71,250.78,250.72Z"/><path class="cls-9" d="M220.62,259.76c-.05,0-.33-.52-.89-1.33a13.71,13.71,0,0,0-2.63-2.76,13.48,13.48,0,0,0-3.32-1.88c-.92-.36-1.52-.5-1.51-.55a4.77,4.77,0,0,1,1.59.32,11.5,11.5,0,0,1,6.06,4.74A4.69,4.69,0,0,1,220.62,259.76Z"/><path class="cls-9" d="M231.72,247.46c0,.06-.8-.44-2.13-1a20.22,20.22,0,0,0-5.45-1.6,20.57,20.57,0,0,0-5.68,0c-1.45.21-2.32.46-2.34.4a2.4,2.4,0,0,1,.6-.22,11.5,11.5,0,0,1,1.7-.41,18,18,0,0,1,5.77-.1,18.33,18.33,0,0,1,5.5,1.71,13.68,13.68,0,0,1,1.52.88C231.55,247.31,231.74,247.44,231.72,247.46Z"/><path class="cls-9" d="M275.1,256a2.14,2.14,0,0,1-.45-.07l-1.28-.28-4.69-1.06c-4-.88-9.45-2.07-15.53-3.28s-11.6-2.19-15.61-2.88l-4.74-.81-1.29-.23a2.41,2.41,0,0,1-.44-.11,2.16,2.16,0,0,1,.45,0l1.3.17c1.13.15,2.75.39,4.76.71,4,.63,9.55,1.58,15.64,2.78s11.56,2.44,15.51,3.38c2,.48,3.57.87,4.67,1.16l1.27.34A2.62,2.62,0,0,1,275.1,256Z"/><path class="cls-9" d="M238.6,248.52c-.07,0-.2-.76-.8-1.84a8.1,8.1,0,0,0-1.32-1.7,21.17,21.17,0,0,0-2-1.74,30.22,30.22,0,0,0-4.13-2.57,12.88,12.88,0,0,1-1.76-1,11.66,11.66,0,0,1,1.87.79,24.29,24.29,0,0,1,4.22,2.51,17.43,17.43,0,0,1,2,1.8,7.56,7.56,0,0,1,1.3,1.8,6.18,6.18,0,0,1,.51,1.41A1.57,1.57,0,0,1,238.6,248.52Z"/><path class="cls-4" d="M302.74,257.23c.07.07-.89,1-1.64,2.53s-1,2.82-1.1,2.8a6,6,0,0,1,.8-3A5.79,5.79,0,0,1,302.74,257.23Z"/><g class="cls-8"><path d="M264.86,185,269,214l.2.46A62.24,62.24,0,0,0,264.86,185Z"/></g><path class="cls-1" d="M287.06,201.65l-13.41,23.44-33,.72-.09,1.5,32-.24,1,0,33.76.07,6.83-11.77,8.72-12.49a1.24,1.24,0,0,0-1-1.94l-33.71.13A1.22,1.22,0,0,0,287.06,201.65Z"/><path class="cls-15" d="M314.13,215.33s1.73,1.59,1.46,2.94-.18,2.36-1.46,2.45a2,2,0,0,1-1.74,2,2.14,2.14,0,0,1-2.07,2.48s-.76,2.27-2.31,1.72a14,14,0,0,1-2.56-1.19l-.45-.82s-2.29-.86-1.73-2.15c.34-.78,1.53-1,1.53-1a2.21,2.21,0,0,1,.14-2c.55-.73,2.34-.12,2.34-.12a2.5,2.5,0,0,1,.56-1.75c.61-.72,3.45,1.24,3.45,1.24l1.55-1.86Z"/><path class="cls-18" d="M310.32,225.21a15.25,15.25,0,0,1-2.85-1.57,15.51,15.51,0,0,1-2.67-1.86,16.07,16.07,0,0,1,2.85,1.58A15.66,15.66,0,0,1,310.32,225.21Z"/><path class="cls-18" d="M312.39,222.73a13.78,13.78,0,0,1-2.64-1.4,14,14,0,0,1-2.47-1.68,13.37,13.37,0,0,1,2.64,1.39A13.76,13.76,0,0,1,312.39,222.73Z"/><path class="cls-18" d="M309.57,218.08a8.91,8.91,0,0,1,2.34,1.25,22.11,22.11,0,0,1,2.21,1.46,7.09,7.09,0,0,1-2.39-1.18A12.6,12.6,0,0,1,309.57,218.08Z"/><path class="cls-4" d="M322.85,201.79l-.16,0h-.48l-1.82,0-6.71.06-22.12.05H290a1.33,1.33,0,0,0-1.23.58l-1.5,2.7-2.85,5.14c-1.81,3.27-3.45,6.21-4.83,8.69l-3.29,5.85-.91,1.58-.24.4L275,227s0-.06.06-.15l.21-.43.86-1.61,3.19-5.9,4.78-8.72q1.35-2.46,2.83-5.15c.49-.89,1-1.8,1.51-2.73a1.65,1.65,0,0,1,1.5-.73h1.61l22.12,0,6.71.05,1.82,0,.48,0Z"/><path class="cls-17" d="M299.09,213.57a1.53,1.53,0,0,0,0,2.15,1.51,1.51,0,0,0,2.12-.26,1.42,1.42,0,1,0-2.09-1.89Z"/><path class="cls-9" d="M288.09,286.83s0-.06.05-.15.1-.26.16-.43l.68-1.63,2.56-6.05,8.8-20.44v0a28,28,0,0,0,.83-6.29,16,16,0,0,0-1.44-7.28,17.67,17.67,0,0,0-4.46-5.28,13.78,13.78,0,0,0-2.91-1.43c-1-.4-2-.75-2.9-1.06-1.89-.63-3.69-1.11-5.34-1.5-3.31-.77-6-1.19-7.91-1.46l-2.18-.29-.56-.08-.19,0s.07,0,.19,0l.57,0c.5,0,1.24.1,2.18.22a75.13,75.13,0,0,1,8,1.35c1.67.37,3.48.84,5.39,1.46.95.3,1.93.65,2.92,1.05a14.42,14.42,0,0,1,3,1.45,13.61,13.61,0,0,1,2.51,2.41,13.87,13.87,0,0,1,2.08,3,16.38,16.38,0,0,1,1.48,7.45,28.7,28.7,0,0,1-.84,6.37h0l-8.92,20.39c-1.12,2.53-2,4.57-2.66,6l-.74,1.61-.19.41Z"/><path class="cls-4" d="M409,340.27c0,.1-71.2.19-159,.19s-159-.09-159-.19,71.18-.18,159-.18S409,340.17,409,340.27Z"/><polygon class="cls-1" points="149.83 340.27 146.73 340.27 144.96 233.69 151.59 233.69 149.83 340.27"/><path class="cls-4" d="M149.83,340.27s0-.19,0-.56,0-.91,0-1.61c0-1.42,0-3.5.08-6.18.07-5.38.18-13.14.32-22.75.3-19.22.71-45.84,1.17-75.48l.19.18H145l.19-.18c.86,52.11,1.52,95.5,1.62,106.58l0,0,2.33,0,.77,0-.75,0-2.35,0h0v0c-.27-11.08-1.05-54.46-1.91-106.58v-.18h7v.18c-.52,29.7-1,56.36-1.33,75.61-.18,9.6-.33,17.35-.43,22.71-.06,2.66-.1,4.73-.13,6.14,0,.69,0,1.22,0,1.59S149.83,340.27,149.83,340.27Z"/><polygon class="cls-1" points="352.27 340.27 349.17 340.27 348.18 233.99 354.81 233.99 352.27 340.27"/><path class="cls-4" d="M352.27,340.27v-.55c0-.38,0-.91,0-1.61,0-1.42.07-3.5.12-6.17.11-5.36.28-13.1.48-22.69.44-19.16,1.05-45.7,1.73-75.26l.18.19h-6.63l.19-.19c.48,52,.82,95.22.84,106.28l0,0,2.33,0,.77,0-.75,0-2.35,0h0v0C349,329.21,348.48,286,348,234v-.19h7V234c-.74,29.61-1.4,56.2-1.88,75.39-.25,9.57-.46,17.3-.6,22.64-.07,2.66-.13,4.72-.17,6.13,0,.69,0,1.21-.05,1.58Z"/><rect class="cls-1" x="130.05" y="225.57" width="247.57" height="8.79"/><path class="cls-4" d="M130.05,225.57h5l14.31,0,52.83-.05,175.46-.08h.19v9h0v.19h-.19l-247.57-.14H130v0c0-3,0-5.22,0-6.67s0-2.12,0-2.12c0,.32,0,2.82,0,8.79l0,0,247.57-.14-.18.18h0v-8.78l.18.19-175.32-.08-52.87-.05-14.36,0h-3.74Z"/><path class="cls-17" d="M182.49,225.7s0,0-.07.1l-.26.26a5,5,0,0,1-1.25.81,8,8,0,0,1-2.39.65,19.53,19.53,0,0,1-3.33.12,38.25,38.25,0,0,1-4-.37,42.18,42.18,0,0,0-4.57-.44,34,34,0,0,0-10.3,1.62c-3.53,1-6.83,2.19-10,2.9a34,34,0,0,1-4.55.73,23.72,23.72,0,0,1-4,0,15.83,15.83,0,0,1-5.55-1.44,8.59,8.59,0,0,1-1.72-1l.12.06.33.2a11.35,11.35,0,0,0,1.33.7,16.27,16.27,0,0,0,5.51,1.35,24.36,24.36,0,0,0,4,0,33.91,33.91,0,0,0,4.51-.75c3.13-.72,6.41-1.89,10-2.92a34.11,34.11,0,0,1,10.41-1.61,39.48,39.48,0,0,1,4.6.47c1.43.19,2.76.35,4,.4a21.94,21.94,0,0,0,3.31-.08,8.41,8.41,0,0,0,2.36-.6A5.8,5.8,0,0,0,182.49,225.7Z"/><path class="cls-17" d="M155.41,225.84a6.25,6.25,0,0,1-.75.52,20.34,20.34,0,0,1-2.25,1.18,23.57,23.57,0,0,1-3.7,1.22,24.4,24.4,0,0,1-4.82.61,22,22,0,0,1-8.63-1.45,5.27,5.27,0,0,1-2.09-1.38,2.24,2.24,0,0,1-.34-.53c-.05-.13-.07-.2-.06-.2a5.49,5.49,0,0,0,.5.68,5.69,5.69,0,0,0,2.08,1.28,22.92,22.92,0,0,0,8.53,1.35,24.5,24.5,0,0,0,4.75-.58,24,24,0,0,0,3.68-1.16,22.88,22.88,0,0,0,2.28-1.1A5.42,5.42,0,0,1,155.41,225.84Z"/><path class="cls-17" d="M213.5,231.41a2,2,0,0,1,.39.11,8,8,0,0,0,1.14.25,8.2,8.2,0,0,0,4.33-.55v.11a11.74,11.74,0,0,0-5.37-1.7,12.4,12.4,0,0,0-7,1.47c-.26.16-.51.35-.54.58s.18.43.46.56a3.69,3.69,0,0,0,1,.28l1.06.19c1.41.26,2.88.51,4.39.69a32.72,32.72,0,0,0,4.68.26,21.74,21.74,0,0,0,2.4-.19c.4-.05.8-.12,1.19-.2a6.39,6.39,0,0,0,1.16-.31,3.85,3.85,0,0,0,1.5-.88,1.18,1.18,0,0,0,.28-1.35,2.49,2.49,0,0,0-1.17-1.06,10.92,10.92,0,0,0-1.65-.66,27.21,27.21,0,0,0-6.87-1.15,34.45,34.45,0,0,0-11.74,1.47,31.63,31.63,0,0,0-7.07,3.14c-.75.47-1.33.85-1.7,1.12l-.44.3-.16.1.14-.11c.1-.09.24-.19.42-.32.35-.29.92-.68,1.67-1.17a30.45,30.45,0,0,1,7.06-3.22,34.56,34.56,0,0,1,11.83-1.54,27.17,27.17,0,0,1,7,1.16,10.35,10.35,0,0,1,1.7.67,2.85,2.85,0,0,1,1.3,1.19,1.42,1.42,0,0,1-.33,1.59,4.29,4.29,0,0,1-1.62.95,7.34,7.34,0,0,1-1.2.32l-1.22.21a22.43,22.43,0,0,1-2.44.18,31.85,31.85,0,0,1-4.73-.26c-1.53-.19-3-.45-4.41-.71l-1.06-.19a3.88,3.88,0,0,1-1-.31,1.28,1.28,0,0,1-.43-.3.63.63,0,0,1-.16-.48c0-.35.39-.56.66-.72a12.51,12.51,0,0,1,7.16-1.48,11.88,11.88,0,0,1,5.46,1.77l.1.07-.12.05a8.25,8.25,0,0,1-4.42.5A5.9,5.9,0,0,1,213.5,231.41Z"/><path class="cls-17" d="M245.36,225.93a1.44,1.44,0,0,1,.25.44,2.8,2.8,0,0,1,.16,1.32,6.15,6.15,0,0,1-2.41,3.84,12,12,0,0,1-2.25,1.56,11.3,11.3,0,0,1-2.18.85,11.45,11.45,0,0,1-1.57.32,2,2,0,0,1-.59,0s.83-.14,2.09-.52a11.95,11.95,0,0,0,4.28-2.42,6.38,6.38,0,0,0,2.42-3.68A3.94,3.94,0,0,0,245.36,225.93Z"/><path class="cls-17" d="M289.82,233.9a13.73,13.73,0,0,0-1.14-.9,9.07,9.07,0,0,0-3.87-1.41,10.19,10.19,0,0,0-2.95.07,15.74,15.74,0,0,1-3.45.25,7.51,7.51,0,0,1-3.44-1.37,12.75,12.75,0,0,0-3.46-1.66,15.48,15.48,0,0,0-7.67-.1,20,20,0,0,0-5.68,2.34,31.72,31.72,0,0,0-3.3,2.28l-.84.68a1.57,1.57,0,0,1-.3.22L254,234c.18-.17.44-.4.8-.71A27,27,0,0,1,258,231a19.82,19.82,0,0,1,5.73-2.42,15.76,15.76,0,0,1,7.86.09,12.71,12.71,0,0,1,3.53,1.7,7.37,7.37,0,0,0,3.29,1.34,15.48,15.48,0,0,0,3.38-.24,11,11,0,0,1,3,0,8.89,8.89,0,0,1,3.91,1.52A4.6,4.6,0,0,1,289.82,233.9Z"/><path class="cls-17" d="M329.51,225.66a1.87,1.87,0,0,1-.27.3c-.19.18-.44.48-.84.82a22.87,22.87,0,0,1-3.62,2.6,31.21,31.21,0,0,1-6.27,2.83,30.13,30.13,0,0,1-4,1,25.34,25.34,0,0,1-4.52.48,27.14,27.14,0,0,1-8.59-1.45,31.23,31.23,0,0,1-6.23-2.88,22.78,22.78,0,0,1-3.59-2.63c-.4-.33-.66-.63-.85-.81a1.87,1.87,0,0,1-.27-.3,1.47,1.47,0,0,1,.32.27c.2.17.47.46.88.78a26.45,26.45,0,0,0,3.63,2.55,31.25,31.25,0,0,0,6.22,2.8,24.4,24.4,0,0,0,12.93,1,30.08,30.08,0,0,0,4-1,32,32,0,0,0,6.25-2.75,24.49,24.49,0,0,0,3.65-2.53c.41-.32.68-.61.89-.78Z"/><path class="cls-17" d="M323.84,225.57s-.06.06-.21.14-.35.21-.64.36c-.56.29-1.4.7-2.48,1.13a29.93,29.93,0,0,1-3.92,1.3,21,21,0,0,1-5.11.71,25,25,0,0,1-9.07-1.86,20.09,20.09,0,0,1-2.46-1.18c-.28-.15-.49-.28-.63-.37l-.2-.14a9.44,9.44,0,0,1,.89.43c.57.29,1.41.68,2.49,1.1a25.88,25.88,0,0,0,9,1.77,21.16,21.16,0,0,0,5-.68,33.35,33.35,0,0,0,3.91-1.23c1.08-.42,1.93-.79,2.51-1.07S323.83,225.56,323.84,225.57Z"/><path class="cls-17" d="M349,226.47h-.29l-.81,0-.59,0h-.69c-.5,0-1.07,0-1.7,0l-1,0-1.06.1c-.73.05-1.51.19-2.33.3a42.5,42.5,0,0,0-5.17,1.26,38.57,38.57,0,0,0-4.85,1.93c-.7.37-1.38.69-2,1.06l-.87.5-.77.51c-.5.31-.91.63-1.28.9-.18.14-.35.27-.52.38l-.4.35-.58.46q-.19.16-.21.15a1.21,1.21,0,0,1,.17-.18l.53-.5.39-.36.5-.4c.36-.28.77-.61,1.26-.93l.77-.53.86-.52c.59-.37,1.27-.71,2-1.08a37.67,37.67,0,0,1,4.89-2,39.37,39.37,0,0,1,5.23-1.25c.83-.11,1.61-.24,2.35-.28l1.08-.09,1,0c.64,0,1.21,0,1.71,0l.7,0,.59.06.81.09Z"/><path class="cls-17" d="M294.27,233.73a10.46,10.46,0,0,0-1.36-1.32,13.67,13.67,0,0,0-5-2.26,31.87,31.87,0,0,0-3.9-.7c-1.42-.18-2.95-.33-4.55-.55a47.12,47.12,0,0,1-4.94-1,37.8,37.8,0,0,0-5.27-1A26.66,26.66,0,0,0,259,228a42.87,42.87,0,0,0-4.18,1.52c-1.28.54-2.45,1.06-3.52,1.55-2.13,1-3.82,1.81-5,2.39l-1.35.67-.35.17c-.08,0-.12.06-.13.05l.11-.07.34-.19,1.31-.71c1.15-.6,2.84-1.46,5-2.46,1.06-.5,2.23-1,3.51-1.58a42,42,0,0,1,4.19-1.55,26.86,26.86,0,0,1,10.41-1.19,39,39,0,0,1,5.33,1,47,47,0,0,0,4.9,1c1.59.23,3.12.38,4.54.58A32,32,0,0,1,288,230a13.26,13.26,0,0,1,5,2.36A5.29,5.29,0,0,1,294.27,233.73Z"/><path class="cls-17" d="M238.51,225.7a1.9,1.9,0,0,1,0,.57,5.6,5.6,0,0,1-.48,1.48,9,9,0,0,1-3.81,3.95,27.86,27.86,0,0,1-5.64,2.11c-.75.2-1.37.35-1.8.44a3,3,0,0,1-.68.11,6.47,6.47,0,0,1,.65-.2l1.76-.51A33.32,33.32,0,0,0,234,231.5a9.39,9.39,0,0,0,3.78-3.82A10.9,10.9,0,0,0,238.51,225.7Z"/><path class="cls-17" d="M181,234.36a5.6,5.6,0,0,1,.61-.47c.39-.29,1-.69,1.76-1.17a54.06,54.06,0,0,1,6.31-3.3c2.57-1.15,5-2.07,6.72-2.72l2.08-.75a7,7,0,0,1,.78-.25,3.8,3.8,0,0,1-.73.34l-2,.82c-1.72.69-4.11,1.63-6.67,2.78a65.77,65.77,0,0,0-6.33,3.22c-.78.46-1.4.84-1.82,1.11A3.05,3.05,0,0,1,181,234.36Z"/><path class="cls-17" d="M192.7,226.06s-.58-.06-1.6,0a13.16,13.16,0,0,0-4.13,1A39.12,39.12,0,0,0,181.6,230a26.35,26.35,0,0,1-3.23,1.7,20.49,20.49,0,0,1-3.86,1.21,44.21,44.21,0,0,1-7.91.77c-2.45.06-4.65,0-6.49.08a37.45,37.45,0,0,0-4.34.35l-1.16.18a2.13,2.13,0,0,1-.41.06l.39-.1c.26-.07.65-.15,1.16-.24a32.83,32.83,0,0,1,4.35-.42c1.85-.09,4.05-.07,6.49-.14a44.18,44.18,0,0,0,7.84-.78,20.58,20.58,0,0,0,3.8-1.18,30.07,30.07,0,0,0,3.21-1.67,37.05,37.05,0,0,1,5.43-2.9,13.08,13.08,0,0,1,4.22-1,10.15,10.15,0,0,1,1.2,0Z"/><path class="cls-17" d="M354.83,234.36a6,6,0,0,1,.6-.47c.4-.29,1-.69,1.77-1.17a54.06,54.06,0,0,1,6.31-3.3c2.57-1.15,5-2.07,6.72-2.72.87-.32,1.58-.58,2.08-.75a7,7,0,0,1,.78-.25,3.8,3.8,0,0,1-.73.34l-2,.82c-1.72.69-4.1,1.63-6.66,2.78a64.6,64.6,0,0,0-6.33,3.22c-.78.46-1.4.84-1.82,1.11A3.05,3.05,0,0,1,354.83,234.36Z"/><path class="cls-17" d="M366.5,226.06s-.58-.06-1.6,0a13.16,13.16,0,0,0-4.13,1A39.12,39.12,0,0,0,355.4,230a27.1,27.1,0,0,1-3.23,1.7,20.49,20.49,0,0,1-3.86,1.21,44.21,44.21,0,0,1-7.91.77c-2.45.06-4.65,0-6.49.08a37.25,37.25,0,0,0-4.34.35l-1.16.18a2.13,2.13,0,0,1-.41.06l.39-.1c.26-.07.65-.15,1.16-.24a32.83,32.83,0,0,1,4.35-.42c1.85-.09,4.05-.07,6.49-.14a44.18,44.18,0,0,0,7.84-.78,20.58,20.58,0,0,0,3.8-1.18,30.07,30.07,0,0,0,3.21-1.67,37.05,37.05,0,0,1,5.43-2.9,13,13,0,0,1,4.22-1,10.22,10.22,0,0,1,1.2,0Z"/><path class="cls-4" d="M347.1,225.54c0,.07-10.35.12-23.11.12s-23.11,0-23.11-.12,10.35-.12,23.11-.12S347.1,225.47,347.1,225.54Z"/></g></svg>