<svg xmlns="http://www.w3.org/2000/svg" viewBox="0 0 355.34 306.69"><defs><style>.cls-1{fill:#595959;}.cls-2{fill:#ffcd52;}.cls-3{fill:#e8bd47;}</style></defs><title>reading tips</title><g id="Table"><path class="cls-1" d="M168.13,155.86l31,0a2.58,2.58,0,0,0,0-5.11l-31,0a2.57,2.57,0,0,0,0,5.1Z"/><path class="cls-1" d="M168.12,148.73l30.95,0a2.58,2.58,0,0,0,0-5.11h-3.31l-3.34-6.78s-1.61-2.18-2.44-2.42-10.35-1.28-13.3,0a4.88,4.88,0,0,0-2.56,2.6c-.87,1.66-2.69,5.08-3.51,6.61h-2.48a2.58,2.58,0,0,0,0,5.11Z"/><path class="cls-1" d="M168.14,163l31-.05a2.58,2.58,0,0,0,0-5.11l-31,0a2.58,2.58,0,0,0,0,5.11Z"/><path class="cls-2" d="M126.36,187.51l7.83,3.89a3.3,3.3,0,0,0,4.47-1.2.08.08,0,0,1,0,0,3.3,3.3,0,0,0-1.21-4.47l-7.82-3.9a3.25,3.25,0,0,0-4.88,3.08A3,3,0,0,0,126.36,187.51Z"/><path class="cls-2" d="M228.7,190.15a3.31,3.31,0,0,0,4.48,1.16l7.82-3.92a2.94,2.94,0,0,0,1.56-2.63,3.32,3.32,0,0,0-.43-1.89,3.27,3.27,0,0,0-4.48-1.16l-7.81,3.91a3.32,3.32,0,0,0-1.16,4.49A.08.08,0,0,1,228.7,190.15Z"/><path class="cls-2" d="M123.87,228.77l8.55-1.8a3.12,3.12,0,0,0,2.26-2.27,3.79,3.79,0,0,0,0-1.74.43.43,0,0,1,0-.11,2.81,2.81,0,0,0-2.76-2.36,3.39,3.39,0,0,0-1.26,0l-8.53,1.91C118,223.38,119.76,229.63,123.87,228.77Z"/><path class="cls-2" d="M232.68,223.29a2.86,2.86,0,0,0,2.31,3.52l8.53,1.91a3.3,3.3,0,0,0,4-2.3l0-.11a3.31,3.31,0,0,0-2.3-4l-8.55-1.79A3.31,3.31,0,0,0,232.68,223.29Z"/><path class="cls-2" d="M142.48,263l.07.06c1.27,1,3.44,1.47,4.63,0l5.44-6.84a3.35,3.35,0,0,0,0-4.63l-.24-.21a3.27,3.27,0,0,0-4.41.23c-1.82,2.27-3.66,4.53-5.49,6.8C141.42,259.62,141,261.78,142.48,263Z"/><path class="cls-2" d="M214.88,256.12l5.44,6.84c1.2,1.51,3.38,1,4.63,0a.18.18,0,0,1,.07-.05c1.5-1.21,1-3.38,0-4.63l-5.52-6.79a2.77,2.77,0,0,0-2.51-.92,3.45,3.45,0,0,0-2.11,1,3,3,0,0,0-.9,1.82A3.8,3.8,0,0,0,214.88,256.12Z"/><path class="cls-2" d="M183.7,277.62h.05a3.3,3.3,0,0,0,3.29-3.25c0-2.91,0-5.83,0-8.74a3.31,3.31,0,0,0-3.26-3.3h0a3.05,3.05,0,0,0-2.18.81,2.94,2.94,0,0,0-1.11,2.44c0,2.91,0,5.83,0,8.74A3.31,3.31,0,0,0,183.7,277.62Z"/><path class="cls-3" d="M173.06,207.94c-.31.64-.37,1.12-.17,1.44s.4.49.6.49c.46,0,1.09-.64,1.39-1.24a4.78,4.78,0,0,0,.23-2.92A6.3,6.3,0,0,0,173.06,207.94Z"/><path class="cls-3" d="M186.36,209.18a2.21,2.21,0,0,0-.06,1.69.21.21,0,0,0,.22.11,1.23,1.23,0,0,0,.47-.12,2.74,2.74,0,0,0,1.36-1.42,4.17,4.17,0,0,0,.21-3.36l-.24.28A14.28,14.28,0,0,0,186.36,209.18Z"/><path class="cls-2" d="M196.21,195.43a200.28,200.28,0,0,1-11.1-30.72h-4.69a204.71,204.71,0,0,1-10.25,29.06,13.49,13.49,0,0,1,6.82,7.61,13.55,13.55,0,0,1,6.61-1,12.6,12.6,0,0,1,4.87,1.38A25.8,25.8,0,0,1,196.21,195.43Z"/><path class="cls-3" d="M203.24,201.06h.2c.39,0,.84-.16.93-.49a2,2,0,0,0-.47-1.68,4.59,4.59,0,0,0-3.3-1.7h-.27c.25.51.51,1,.77,1.53C201.62,199.81,202.27,200.91,203.24,201.06Z"/><path class="cls-3" d="M163.33,200.18h0c.11,0,.42-.14,1.14-1.32l.06-.09c.45-.9.9-1.82,1.37-2.79a3.78,3.78,0,0,0-2.39,1,2.43,2.43,0,0,0-.6,1.9C163,199.79,163.21,200.12,163.33,200.18Z"/><path class="cls-2" d="M183.76,254.83a41.7,41.7,0,0,0,17.35-79.58l0-8.1a2.46,2.46,0,0,0-2.47-2.46l-10.45,0A195.14,195.14,0,0,0,199,194.48a6.91,6.91,0,0,1,6.15,1.65,6.14,6.14,0,0,1,2.19,4.64,3.3,3.3,0,0,1-1.63,2.58,4,4,0,0,1-2.2.67c-2.31,0-4.14-2.08-5-3.86l-1-2a21,21,0,0,0-6.84,5.56,6.09,6.09,0,0,1,1.08,2.76,8.55,8.55,0,0,1-2,6c-1.47,1.69-3.35,2-5,.77a3.64,3.64,0,0,1-1.61-2.51c-.3-2.27,1.67-4.68,3.11-6.44a2.11,2.11,0,0,0,.19-.23,5.82,5.82,0,0,0-1.32-.41,11.53,11.53,0,0,0-6.39.19c-.31.12-.61.24-.91.38.12.61.22,1.22.28,1.81a6.26,6.26,0,0,1-2.26,5.94,3.91,3.91,0,0,1-2.46.89,2.89,2.89,0,0,1-2.16-.88,4.25,4.25,0,0,1-1.29-3.42c.23-2.51,2.53-4.43,3.51-5.14.28-.2.58-.41.89-.6-.76-2.1-2.35-5.22-5.34-6.39-.61,1.29-1.23,2.56-1.86,3.8a1.65,1.65,0,0,1-.15.25c-.55.83-2,2.69-3.72,2.69a2.68,2.68,0,0,1-1.79-.72c-1.68-1.47-1.74-4-1.07-5.81.85-2.28,3.09-3.64,6-3.65.3,0,.61,0,.91,0a196.88,196.88,0,0,0,10.06-28.29l-8.72,0a2.47,2.47,0,0,0-2.47,2.47v8.1a41.69,41.69,0,0,0,17.59,79.52Z"/><rect class="cls-1" x="182.74" width="2" height="136.07"/></g></svg>